<svg id="svg" version="1.1" xmlns="http://www.w3.org/2000/svg" xmlns:xlink="http://www.w3.org/1999/xlink" width="400" height="408.2474226804124" viewBox="0, 0, 400,408.2474226804124"><g id="svgg"><path id="path0" d="M173.200 20.868 C 170.450 21.292,166.940 21.788,165.400 21.969 C 163.860 22.150,161.340 22.699,159.800 23.189 C 157.068 24.058,155.736 24.352,150.400 25.264 C 147.934 25.685,144.861 26.904,144.378 27.651 C 144.172 27.969,142.238 28.455,138.800 29.052 C 138.030 29.185,136.729 29.819,135.908 30.460 C 134.550 31.520,133.469 31.942,128.600 33.313 C 127.140 33.723,124.798 34.834,123.800 35.587 C 123.580 35.754,122.885 36.013,122.256 36.164 C 119.697 36.776,108.980 42.040,107.502 43.410 C 106.915 43.955,106.247 44.400,106.017 44.400 C 105.788 44.400,105.600 44.580,105.600 44.800 C 105.600 45.020,105.317 45.200,104.972 45.200 C 104.626 45.200,103.231 45.991,101.872 46.958 C 100.512 47.924,98.500 49.206,97.400 49.806 C 96.300 50.406,94.851 51.415,94.181 52.048 C 93.510 52.682,92.832 53.200,92.672 53.200 C 92.341 53.200,89.233 55.179,88.537 55.834 C 88.282 56.074,87.112 56.878,85.937 57.622 C 83.225 59.337,83.213 59.357,83.206 62.081 C 83.201 64.088,83.325 64.449,84.236 65.081 C 84.806 65.477,85.661 66.233,86.136 66.761 C 86.611 67.290,87.579 68.280,88.287 68.961 C 88.994 69.643,89.804 70.440,90.087 70.734 C 90.369 71.027,91.333 72.017,92.229 72.934 C 93.125 73.850,94.205 75.197,94.629 75.928 C 95.053 76.658,95.988 77.619,96.706 78.064 C 97.424 78.508,98.557 79.666,99.225 80.636 C 99.892 81.606,100.620 82.400,100.842 82.400 C 101.064 82.400,102.090 83.279,103.123 84.354 C 107.057 88.447,109.075 88.877,114.000 86.671 C 115.326 86.078,122.187 81.390,124.172 79.721 C 125.037 78.995,125.989 78.400,126.289 78.400 C 126.589 78.400,127.051 78.218,127.317 77.995 C 129.622 76.064,131.233 75.122,133.524 74.368 C 134.996 73.883,136.650 73.173,137.200 72.790 C 139.066 71.490,141.050 70.497,142.347 70.212 C 143.508 69.957,146.482 68.839,149.800 67.410 C 151.746 66.572,153.309 66.067,154.800 65.792 C 157.222 65.346,158.887 64.636,160.048 63.553 C 161.285 62.399,162.717 62.000,165.615 62.000 C 168.704 62.000,173.392 60.935,176.086 59.621 C 177.462 58.949,178.865 58.400,179.203 58.400 C 179.541 58.400,180.498 57.839,181.329 57.154 L 182.841 55.908 182.720 39.454 C 182.625 26.382,182.488 22.832,182.054 22.181 C 181.447 21.269,179.390 19.974,178.668 20.048 C 178.410 20.074,175.950 20.443,173.200 20.868 M222.400 20.726 C 219.629 22.060,219.800 20.859,219.800 39.029 C 219.800 58.551,219.343 57.196,226.400 58.599 C 227.170 58.752,228.340 59.186,229.000 59.562 C 230.791 60.584,235.683 61.736,240.114 62.179 C 242.223 62.390,243.869 62.963,244.408 63.675 C 244.875 64.292,248.380 65.521,250.420 65.783 C 252.990 66.114,255.016 66.729,256.400 67.600 C 257.903 68.545,259.085 69.045,262.589 70.217 C 264.343 70.804,266.503 71.781,267.389 72.389 C 268.275 72.997,270.056 73.833,271.348 74.247 C 272.639 74.661,274.242 75.503,274.909 76.118 C 275.577 76.733,276.951 77.606,277.962 78.058 C 278.973 78.510,280.520 79.554,281.400 80.378 C 282.280 81.202,283.630 82.119,284.400 82.415 C 286.030 83.042,288.800 84.782,288.800 85.179 C 288.800 85.330,289.565 85.883,290.500 86.408 C 291.435 86.934,292.603 87.767,293.097 88.260 C 293.590 88.753,294.850 89.743,295.897 90.459 C 296.944 91.176,298.001 91.951,298.246 92.181 C 298.492 92.411,299.548 93.320,300.594 94.200 C 304.971 97.884,315.370 108.771,318.506 112.952 C 319.334 114.056,320.164 115.059,320.350 115.180 C 320.536 115.301,321.008 116.030,321.399 116.800 C 321.789 117.570,322.708 118.869,323.440 119.686 C 324.173 120.503,325.243 122.100,325.818 123.236 C 326.394 124.372,327.323 125.760,327.884 126.320 C 328.818 127.254,330.800 130.714,330.800 131.411 C 330.800 131.573,331.170 132.027,331.623 132.420 C 332.546 133.220,337.359 142.510,338.763 146.200 C 339.265 147.520,340.216 149.822,340.876 151.315 C 341.536 152.808,342.326 155.238,342.630 156.715 C 342.935 158.192,343.794 160.660,344.538 162.200 C 346.605 166.475,346.800 167.082,346.800 169.244 C 346.800 171.421,347.830 175.075,348.687 175.940 C 349.880 177.143,350.280 179.187,350.540 185.400 C 350.687 188.920,350.978 192.610,351.186 193.600 C 351.681 195.948,351.682 214.652,351.188 219.800 C 350.976 222.000,350.701 225.960,350.576 228.600 C 350.298 234.444,349.831 236.728,348.322 239.618 C 347.466 241.257,347.019 242.936,346.610 246.053 C 346.101 249.931,345.322 252.154,343.614 254.600 C 343.460 254.820,343.094 256.080,342.800 257.400 C 342.506 258.720,342.148 259.980,342.004 260.200 C 341.860 260.420,341.060 262.310,340.227 264.400 C 339.394 266.490,338.561 268.560,338.376 269.000 C 338.192 269.440,337.750 270.700,337.395 271.800 C 337.040 272.900,336.502 274.183,336.198 274.651 C 335.895 275.118,334.991 276.738,334.191 278.251 C 333.390 279.763,332.325 281.540,331.824 282.200 C 331.322 282.860,330.403 284.390,329.781 285.600 C 329.160 286.810,328.178 288.250,327.600 288.800 C 327.022 289.350,326.220 290.510,325.819 291.377 C 325.418 292.245,324.658 293.415,324.130 293.977 C 323.603 294.540,322.600 295.900,321.903 297.000 C 321.205 298.100,319.952 299.790,319.117 300.756 C 318.283 301.722,317.600 302.732,317.600 303.000 C 317.600 303.268,317.119 303.828,316.530 304.244 C 315.942 304.660,315.136 305.360,314.740 305.800 C 314.344 306.240,313.025 307.671,311.810 308.979 C 310.594 310.288,309.600 311.494,309.600 311.661 C 309.600 311.992,308.796 312.800,305.545 315.737 C 304.365 316.803,302.469 318.558,301.330 319.637 C 300.192 320.717,299.092 321.600,298.886 321.600 C 298.681 321.600,297.902 322.241,297.156 323.023 C 296.410 323.806,295.072 324.959,294.182 325.586 C 293.293 326.212,291.955 327.295,291.208 327.992 C 290.462 328.689,289.160 329.612,288.314 330.044 C 286.890 330.770,285.829 331.522,284.632 332.652 C 284.368 332.901,283.084 333.606,281.776 334.219 C 280.469 334.832,279.310 335.447,279.200 335.586 C 278.769 336.130,276.512 337.481,274.800 338.220 C 273.810 338.646,272.515 339.422,271.923 339.943 C 270.505 341.192,269.076 341.912,267.390 342.228 C 266.634 342.370,265.217 343.188,264.243 344.046 C 263.268 344.904,261.870 345.715,261.135 345.848 C 259.028 346.230,256.312 347.189,254.944 348.035 C 254.253 348.462,252.633 349.000,251.344 349.230 C 250.055 349.461,248.010 349.973,246.800 350.368 C 245.590 350.763,243.610 351.312,242.400 351.587 C 241.190 351.862,239.120 352.436,237.800 352.862 C 234.024 354.083,230.170 354.800,227.385 354.800 C 223.713 354.800,221.629 355.884,220.590 358.336 C 219.598 360.677,219.361 389.762,220.312 392.441 C 221.398 395.501,226.242 395.955,232.600 393.593 C 235.875 392.376,239.068 391.631,241.080 391.614 C 243.739 391.592,246.805 390.802,249.350 389.484 C 250.940 388.660,253.036 388.044,255.826 387.578 C 258.349 387.156,260.388 386.582,261.076 386.099 C 261.694 385.664,263.370 384.997,264.800 384.617 C 266.230 384.236,268.300 383.686,269.400 383.393 C 273.123 382.402,274.131 382.020,275.630 381.028 C 276.452 380.484,278.329 379.717,279.802 379.325 C 281.357 378.911,282.923 378.190,283.541 377.606 C 284.970 376.253,286.383 375.380,287.647 375.069 C 288.222 374.927,289.612 374.180,290.735 373.407 C 291.858 372.635,293.547 371.708,294.488 371.347 C 295.430 370.986,296.856 370.182,297.659 369.560 C 298.461 368.938,300.171 367.937,301.459 367.337 C 303.749 366.269,306.468 364.497,306.733 363.900 C 306.807 363.735,307.044 363.600,307.261 363.600 C 307.685 363.600,310.795 361.542,311.670 360.682 C 311.962 360.396,313.100 359.565,314.200 358.834 C 315.300 358.104,316.745 356.923,317.410 356.210 C 318.076 355.497,319.156 354.630,319.810 354.284 C 320.465 353.937,322.440 352.268,324.200 350.574 C 325.960 348.880,328.120 347.032,329.000 346.467 C 330.704 345.373,336.996 339.134,338.748 336.800 C 339.327 336.030,340.430 334.740,341.200 333.934 C 341.970 333.127,342.969 332.047,343.420 331.534 C 343.871 331.020,344.621 330.346,345.087 330.036 C 345.553 329.725,346.174 329.013,346.467 328.454 C 346.760 327.894,347.724 326.708,348.608 325.818 C 349.493 324.928,350.481 323.681,350.804 323.048 C 351.127 322.414,352.034 321.154,352.819 320.248 C 353.604 319.341,354.681 317.880,355.213 317.000 C 355.744 316.120,356.586 314.990,357.083 314.488 C 357.580 313.987,358.430 312.608,358.972 311.424 C 359.513 310.240,360.310 308.941,360.743 308.536 C 361.176 308.131,362.177 306.557,362.967 305.039 C 363.758 303.520,365.033 301.540,365.801 300.639 C 366.569 299.737,367.198 298.725,367.199 298.389 C 367.199 298.053,367.478 297.381,367.817 296.897 C 368.945 295.286,370.718 291.685,370.988 290.455 C 371.228 289.364,372.286 287.273,374.361 283.791 C 374.758 283.126,375.208 281.686,375.363 280.591 C 375.713 278.116,376.451 276.468,377.758 275.240 C 378.427 274.611,378.855 273.670,379.027 272.446 C 379.397 269.815,380.362 266.967,381.405 265.431 C 382.578 263.703,383.105 261.982,383.436 258.800 C 383.677 256.488,384.565 253.318,385.621 251.000 C 385.822 250.560,386.164 248.850,386.381 247.200 C 386.599 245.550,387.030 242.760,387.340 241.000 C 388.511 234.351,388.840 230.689,389.227 220.000 C 389.446 213.950,389.623 208.730,389.621 208.400 C 389.546 199.508,388.643 181.014,388.146 178.200 C 387.796 176.220,387.361 173.520,387.179 172.200 C 386.453 166.932,385.643 162.807,385.087 161.537 C 384.347 159.850,383.808 157.758,383.198 154.200 C 382.660 151.068,382.390 150.356,381.052 148.531 C 380.481 147.752,379.855 145.918,379.429 143.776 C 378.917 141.196,378.382 139.774,377.374 138.308 C 376.624 137.218,375.818 135.578,375.582 134.663 C 375.073 132.690,374.119 130.521,373.626 130.216 C 373.433 130.096,372.958 128.964,372.571 127.699 C 372.185 126.435,371.743 125.220,371.590 125.000 C 371.436 124.780,371.186 124.081,371.034 123.447 C 370.883 122.813,370.044 121.243,369.171 119.958 C 368.298 118.672,367.474 117.072,367.340 116.402 C 367.206 115.732,366.940 115.086,366.748 114.968 C 366.557 114.850,366.400 114.437,366.400 114.051 C 366.400 113.665,365.846 112.821,365.168 112.175 C 364.490 111.529,363.587 110.238,363.161 109.306 C 362.734 108.374,361.804 107.022,361.093 106.300 C 360.382 105.578,359.407 104.155,358.927 103.138 C 358.447 102.121,357.502 100.660,356.827 99.892 C 356.152 99.123,355.600 98.374,355.600 98.228 C 355.600 97.734,352.474 93.250,350.127 90.376 C 348.847 88.809,347.350 86.965,346.800 86.280 C 346.250 85.594,344.211 83.405,342.268 81.416 C 340.325 79.427,338.218 77.080,337.586 76.200 C 336.317 74.433,333.757 71.918,331.600 70.318 C 330.830 69.747,328.519 67.642,326.465 65.640 C 324.410 63.638,322.610 61.995,322.465 61.989 C 322.319 61.982,321.367 61.217,320.350 60.289 C 319.332 59.360,318.000 58.240,317.390 57.800 C 316.780 57.360,315.732 56.521,315.061 55.936 C 314.390 55.351,312.932 54.387,311.821 53.794 C 310.709 53.202,309.350 52.311,308.800 51.815 C 308.250 51.318,307.260 50.650,306.600 50.330 C 304.508 49.314,303.484 48.631,302.311 47.471 C 301.683 46.850,300.407 46.004,299.474 45.592 C 298.542 45.179,297.336 44.371,296.795 43.795 C 295.800 42.736,295.139 42.385,291.233 40.844 C 290.041 40.373,288.120 39.361,286.965 38.594 C 285.810 37.827,284.667 37.200,284.427 37.200 C 284.186 37.200,283.677 37.033,283.295 36.829 C 282.913 36.625,281.610 36.157,280.400 35.789 C 279.190 35.421,278.110 34.993,278.000 34.838 C 277.708 34.426,274.100 32.800,273.479 32.800 C 272.997 32.800,270.655 31.683,267.441 29.919 C 266.758 29.545,265.743 29.230,265.184 29.219 C 263.360 29.185,259.489 27.994,258.837 27.267 C 258.051 26.389,256.468 25.774,253.600 25.230 C 249.487 24.450,247.804 24.051,244.400 23.047 C 242.530 22.495,239.740 21.858,238.200 21.631 C 236.660 21.404,233.633 20.944,231.474 20.609 C 226.524 19.841,224.173 19.871,222.400 20.726 M54.179 90.109 C 51.664 92.235,50.465 93.555,49.045 95.766 C 48.633 96.407,47.644 97.667,46.848 98.566 C 46.052 99.464,45.052 100.830,44.627 101.600 C 44.202 102.370,43.378 103.630,42.794 104.400 C 42.211 105.170,41.401 106.610,40.994 107.600 C 40.588 108.590,39.762 109.940,39.160 110.600 C 38.174 111.679,36.001 115.857,36.000 116.674 C 35.999 116.853,35.526 117.540,34.947 118.200 C 34.368 118.860,33.486 120.310,32.987 121.423 C 32.487 122.535,31.644 123.975,31.112 124.623 C 30.071 125.891,29.401 127.434,28.992 129.504 C 28.674 131.116,27.777 132.955,26.992 133.607 C 26.666 133.877,26.400 134.348,26.400 134.654 C 26.400 134.960,26.237 135.523,26.037 135.905 C 25.683 136.583,24.240 141.320,23.610 143.877 C 23.436 144.579,22.810 146.109,22.217 147.277 C 21.561 148.568,21.055 150.340,20.927 151.800 C 20.664 154.780,19.858 157.340,18.558 159.322 C 17.766 160.529,17.435 161.853,16.956 165.722 C 16.198 171.852,15.675 174.242,14.723 175.937 C 13.284 178.499,12.912 186.527,14.155 188.194 C 14.995 189.321,18.851 189.600,33.355 189.583 C 52.673 189.561,52.409 189.658,53.584 182.200 C 53.861 180.440,54.409 177.830,54.802 176.400 C 55.195 174.970,55.823 172.360,56.198 170.600 C 56.574 168.840,57.022 166.950,57.194 166.400 C 57.366 165.850,57.720 164.590,57.981 163.600 C 58.241 162.610,58.622 161.247,58.827 160.572 C 59.032 159.896,59.200 159.119,59.200 158.846 C 59.200 158.572,59.650 157.365,60.200 156.163 C 60.750 154.960,61.200 153.722,61.200 153.412 C 61.200 153.101,61.380 152.736,61.600 152.600 C 61.820 152.464,62.000 151.904,62.000 151.355 C 62.000 150.806,62.810 149.117,63.800 147.600 C 64.790 146.083,65.600 144.668,65.600 144.454 C 65.600 143.573,67.321 140.127,68.245 139.158 C 68.792 138.584,69.747 136.810,70.368 135.214 C 70.989 133.618,71.805 131.954,72.181 131.514 C 72.557 131.075,73.748 129.219,74.829 127.390 C 75.909 125.561,77.027 123.825,77.312 123.532 C 77.597 123.239,78.141 122.338,78.520 121.529 C 78.899 120.720,79.748 119.551,80.405 118.931 C 81.987 117.438,82.176 113.651,80.727 112.496 C 80.246 112.113,79.481 111.369,79.027 110.843 C 78.382 110.097,68.084 99.770,66.699 98.480 C 66.533 98.326,65.899 97.660,65.289 97.000 C 64.679 96.340,63.644 95.334,62.990 94.764 C 62.335 94.194,61.440 93.280,61.000 92.733 C 60.333 91.904,58.015 90.156,56.153 89.077 C 55.908 88.935,55.019 89.400,54.179 90.109 M222.400 185.478 C 177.381 230.515,176.118 231.711,174.594 230.758 C 172.999 229.760,170.693 227.827,169.635 226.600 C 169.066 225.940,167.076 223.960,165.213 222.200 C 159.637 216.931,152.379 209.475,151.680 208.299 C 151.321 207.694,150.704 207.097,150.310 206.971 C 149.915 206.846,146.894 204.043,143.595 200.743 L 137.598 194.742 135.462 194.522 C 133.389 194.308,133.296 194.342,132.376 195.650 C 131.131 197.420,130.834 197.708,129.354 198.577 C 128.669 198.979,127.808 199.818,127.440 200.440 C 127.072 201.062,126.262 201.872,125.640 202.240 C 125.018 202.608,124.208 203.418,123.840 204.040 C 123.472 204.662,122.667 205.470,122.051 205.834 C 121.434 206.198,120.506 207.181,119.989 208.018 C 119.471 208.856,118.641 209.726,118.145 209.952 C 114.628 211.555,115.367 214.575,120.563 219.836 C 127.192 226.548,129.200 228.695,129.200 229.071 C 129.200 229.267,129.695 229.723,130.300 230.083 C 131.662 230.895,143.816 242.933,144.715 244.360 C 145.075 244.932,145.815 245.760,146.360 246.200 C 150.537 249.575,161.452 260.503,161.827 261.686 C 161.952 262.079,162.183 262.400,162.340 262.400 C 162.804 262.400,164.588 263.940,168.225 267.481 C 175.509 274.571,175.594 274.546,188.075 261.806 C 191.527 258.283,194.497 255.269,194.675 255.110 C 194.854 254.950,215.735 234.117,241.078 208.814 L 287.157 162.808 286.581 161.704 C 286.264 161.097,286.004 160.276,286.002 159.879 C 286.000 159.256,281.778 154.789,278.154 151.576 C 277.519 151.013,276.706 150.203,276.348 149.776 C 275.989 149.349,275.089 148.446,274.348 147.768 C 273.606 147.090,272.442 145.908,271.759 145.141 C 271.077 144.374,269.907 143.504,269.159 143.209 C 268.412 142.914,267.629 142.521,267.420 142.336 C 267.211 142.151,266.761 142.014,266.420 142.030 C 266.079 142.047,246.270 161.599,222.400 185.478 M16.129 226.050 C 12.807 226.817,12.220 231.412,14.706 237.200 C 15.682 239.472,16.289 242.226,16.603 245.800 C 17.057 250.976,17.616 253.415,18.612 254.575 C 19.805 255.963,20.234 257.339,20.757 261.456 C 20.989 263.278,21.631 265.744,22.216 267.056 C 23.284 269.450,23.750 270.775,25.012 275.000 C 25.406 276.320,25.866 277.670,26.033 278.000 C 26.976 279.863,28.800 283.997,28.802 284.275 C 28.811 285.507,29.795 287.656,30.906 288.869 C 31.730 289.769,32.497 291.253,32.963 292.852 C 33.387 294.303,34.189 295.917,34.826 296.600 C 35.441 297.260,36.500 299.005,37.178 300.477 C 37.857 301.950,38.662 303.405,38.969 303.712 C 39.276 304.019,40.332 305.797,41.317 307.664 C 42.302 309.531,43.578 311.567,44.154 312.188 C 44.729 312.809,45.200 313.519,45.200 313.766 C 45.200 314.152,45.939 315.146,49.022 318.905 C 49.340 319.292,49.600 319.717,49.600 319.849 C 49.600 319.982,50.963 321.417,52.628 323.040 L 55.657 325.991 56.838 325.381 C 59.047 324.238,78.171 305.474,80.259 302.400 C 82.578 298.986,82.569 299.150,80.584 296.824 C 79.603 295.675,78.800 294.467,78.800 294.139 C 78.800 293.588,76.602 290.054,75.977 289.600 C 75.826 289.490,75.184 288.412,74.551 287.204 C 73.918 285.995,73.094 284.666,72.720 284.250 C 71.941 283.382,70.325 279.987,69.809 278.135 C 69.677 277.659,69.058 276.628,68.434 275.842 C 67.809 275.057,66.887 273.376,66.383 272.107 C 65.879 270.838,64.890 268.990,64.185 268.000 C 63.479 267.010,62.488 264.850,61.982 263.200 C 61.476 261.550,60.730 259.718,60.324 259.129 C 59.919 258.540,59.427 257.280,59.231 256.329 C 58.640 253.456,55.527 241.057,55.182 240.200 C 54.723 239.059,54.430 237.548,53.785 233.000 C 52.701 225.352,53.981 225.818,33.800 225.732 C 24.689 225.694,17.081 225.831,16.129 226.050 M106.982 329.826 C 104.257 330.801,100.015 334.552,92.669 342.483 C 89.343 346.074,86.869 348.336,84.475 349.976 C 83.192 350.855,82.597 352.581,83.261 353.500 C 84.820 355.658,87.145 358.122,88.415 358.962 C 89.204 359.484,90.538 360.562,91.381 361.356 C 92.223 362.150,93.112 362.800,93.356 362.800 C 93.600 362.801,94.323 363.251,94.962 363.800 C 95.601 364.350,96.242 364.800,96.387 364.800 C 96.531 364.800,96.999 365.115,97.427 365.500 C 97.855 365.885,99.013 366.637,100.002 367.170 C 100.991 367.704,102.340 368.542,103.000 369.034 C 103.660 369.526,105.370 370.470,106.800 371.132 C 108.230 371.794,109.887 372.800,110.483 373.368 C 111.078 373.936,111.665 374.400,111.787 374.400 C 112.453 374.400,115.982 376.302,117.107 377.267 C 117.826 377.884,118.906 378.506,119.507 378.649 C 120.108 378.793,120.780 379.041,121.000 379.200 C 121.220 379.359,121.894 379.608,122.497 379.752 C 123.100 379.896,124.440 380.551,125.475 381.207 C 126.510 381.863,127.594 382.400,127.884 382.400 C 128.174 382.400,128.723 382.569,129.105 382.777 C 129.487 382.984,130.880 383.468,132.200 383.852 C 133.520 384.236,135.860 385.069,137.400 385.702 C 138.940 386.335,141.730 387.183,143.600 387.586 C 147.542 388.435,148.341 388.719,149.307 389.616 C 150.167 390.415,154.270 391.600,156.174 391.600 C 158.181 391.600,161.842 392.633,164.176 393.858 C 165.891 394.757,166.965 394.972,171.200 395.260 C 173.950 395.448,176.951 395.754,177.868 395.941 C 179.817 396.338,181.804 395.369,182.433 393.714 C 183.175 391.761,182.889 360.707,182.118 359.589 C 180.197 356.801,175.018 354.800,169.727 354.800 C 168.498 354.800,166.752 354.608,165.846 354.374 C 163.040 353.647,160.261 352.746,158.800 352.090 C 157.548 351.528,154.422 350.591,150.400 349.573 C 149.630 349.379,148.449 349.215,147.775 349.210 C 147.102 349.204,146.202 348.879,145.775 348.487 C 144.794 347.584,142.525 346.513,140.022 345.769 C 138.951 345.452,137.512 344.665,136.824 344.022 C 136.135 343.379,134.903 342.649,134.086 342.400 C 132.282 341.850,129.547 340.430,129.000 339.760 C 128.493 339.139,125.576 337.600,124.906 337.600 C 124.628 337.600,124.400 337.459,124.400 337.286 C 124.400 337.114,123.867 336.657,123.215 336.272 C 122.563 335.887,121.798 335.350,121.515 335.079 C 121.232 334.808,120.231 334.245,119.292 333.829 C 118.353 333.412,117.043 332.554,116.381 331.921 C 113.856 329.509,110.165 328.686,106.982 329.826 " stroke="none" fill="#07a48d" fill-rule="evenodd"></path><path id="path1" d="M0.000 204.000 L 0.000 408.000 200.000 408.000 L 400.000 408.000 400.000 204.000 L 400.000 0.000 200.000 0.000 L 0.000 0.000 0.000 204.000 M180.322 20.681 C 182.641 22.012,182.590 21.611,182.720 39.454 L 182.841 55.908 181.329 57.154 C 180.498 57.839,179.541 58.400,179.203 58.400 C 178.865 58.400,177.462 58.949,176.086 59.621 C 173.392 60.935,168.704 62.000,165.615 62.000 C 162.717 62.000,161.285 62.399,160.048 63.553 C 158.887 64.636,157.222 65.346,154.800 65.792 C 153.309 66.067,151.746 66.572,149.800 67.410 C 146.482 68.839,143.508 69.957,142.347 70.212 C 141.050 70.497,139.066 71.490,137.200 72.790 C 136.650 73.173,134.996 73.883,133.524 74.368 C 131.233 75.122,129.622 76.064,127.317 77.995 C 127.051 78.218,126.589 78.400,126.289 78.400 C 125.989 78.400,125.037 78.995,124.172 79.721 C 122.187 81.390,115.326 86.078,114.000 86.671 C 109.075 88.877,107.057 88.447,103.123 84.354 C 102.090 83.279,101.064 82.400,100.842 82.400 C 100.620 82.400,99.892 81.606,99.225 80.636 C 98.557 79.666,97.424 78.508,96.706 78.064 C 95.988 77.619,95.053 76.658,94.629 75.928 C 94.205 75.197,93.125 73.850,92.229 72.934 C 91.333 72.017,90.369 71.027,90.087 70.734 C 89.804 70.440,88.994 69.643,88.287 68.961 C 87.579 68.280,86.611 67.290,86.136 66.761 C 85.661 66.233,84.806 65.477,84.236 65.081 C 83.325 64.449,83.201 64.088,83.206 62.081 C 83.213 59.357,83.225 59.337,85.937 57.622 C 87.112 56.878,88.282 56.074,88.537 55.834 C 89.233 55.179,92.341 53.200,92.672 53.200 C 92.832 53.200,93.510 52.682,94.181 52.048 C 94.851 51.415,96.300 50.406,97.400 49.806 C 98.500 49.206,100.512 47.924,101.872 46.958 C 103.231 45.991,104.626 45.200,104.972 45.200 C 105.317 45.200,105.600 45.020,105.600 44.800 C 105.600 44.580,105.788 44.400,106.017 44.400 C 106.247 44.400,106.915 43.955,107.502 43.410 C 108.980 42.040,119.697 36.776,122.256 36.164 C 122.885 36.013,123.580 35.754,123.800 35.587 C 124.798 34.834,127.140 33.723,128.600 33.313 C 133.469 31.942,134.550 31.520,135.908 30.460 C 136.729 29.819,138.030 29.185,138.800 29.052 C 142.238 28.455,144.172 27.969,144.378 27.651 C 144.861 26.904,147.934 25.685,150.400 25.264 C 155.736 24.352,157.068 24.058,159.800 23.189 C 161.340 22.699,163.860 22.150,165.400 21.969 C 166.940 21.788,170.450 21.292,173.200 20.868 C 175.950 20.443,178.410 20.074,178.668 20.048 C 178.925 20.022,179.669 20.307,180.322 20.681 M231.474 20.609 C 233.633 20.944,236.660 21.404,238.200 21.631 C 239.740 21.858,242.530 22.495,244.400 23.047 C 247.804 24.051,249.487 24.450,253.600 25.230 C 256.468 25.774,258.051 26.389,258.837 27.267 C 259.489 27.994,263.360 29.185,265.184 29.219 C 265.743 29.230,266.758 29.545,267.441 29.919 C 270.655 31.683,272.997 32.800,273.479 32.800 C 274.100 32.800,277.708 34.426,278.000 34.838 C 278.110 34.993,279.190 35.421,280.400 35.789 C 281.610 36.157,282.913 36.625,283.295 36.829 C 283.677 37.033,284.186 37.200,284.427 37.200 C 284.667 37.200,285.810 37.827,286.965 38.594 C 288.120 39.361,290.041 40.373,291.233 40.844 C 295.139 42.385,295.800 42.736,296.795 43.795 C 297.336 44.371,298.542 45.179,299.474 45.592 C 300.407 46.004,301.683 46.850,302.311 47.471 C 303.484 48.631,304.508 49.314,306.600 50.330 C 307.260 50.650,308.250 51.318,308.800 51.815 C 309.350 52.311,310.709 53.202,311.821 53.794 C 312.932 54.387,314.390 55.351,315.061 55.936 C 315.732 56.521,316.780 57.360,317.390 57.800 C 318.000 58.240,319.332 59.360,320.350 60.289 C 321.367 61.217,322.319 61.982,322.465 61.989 C 322.610 61.995,324.410 63.638,326.465 65.640 C 328.519 67.642,330.830 69.747,331.600 70.318 C 333.757 71.918,336.317 74.433,337.586 76.200 C 338.218 77.080,340.325 79.427,342.268 81.416 C 344.211 83.405,346.250 85.594,346.800 86.280 C 347.350 86.965,348.847 88.809,350.127 90.376 C 352.474 93.250,355.600 97.734,355.600 98.228 C 355.600 98.374,356.152 99.123,356.827 99.892 C 357.502 100.660,358.447 102.121,358.927 103.138 C 359.407 104.155,360.382 105.578,361.093 106.300 C 361.804 107.022,362.734 108.374,363.161 109.306 C 363.587 110.238,364.490 111.529,365.168 112.175 C 365.846 112.821,366.400 113.665,366.400 114.051 C 366.400 114.437,366.557 114.850,366.748 114.968 C 366.940 115.086,367.206 115.732,367.340 116.402 C 367.474 117.072,368.298 118.672,369.171 119.958 C 370.044 121.243,370.883 122.813,371.034 123.447 C 371.186 124.081,371.436 124.780,371.590 125.000 C 371.743 125.220,372.185 126.435,372.571 127.699 C 372.958 128.964,373.433 130.096,373.626 130.216 C 374.119 130.521,375.073 132.690,375.582 134.663 C 375.818 135.578,376.624 137.218,377.374 138.308 C 378.382 139.774,378.917 141.196,379.429 143.776 C 379.855 145.918,380.481 147.752,381.052 148.531 C 382.390 150.356,382.660 151.068,383.198 154.200 C 383.808 157.758,384.347 159.850,385.087 161.537 C 385.643 162.807,386.453 166.932,387.179 172.200 C 387.361 173.520,387.796 176.220,388.146 178.200 C 388.643 181.014,389.546 199.508,389.621 208.400 C 389.623 208.730,389.446 213.950,389.227 220.000 C 388.840 230.689,388.511 234.351,387.340 241.000 C 387.030 242.760,386.599 245.550,386.381 247.200 C 386.164 248.850,385.822 250.560,385.621 251.000 C 384.565 253.318,383.677 256.488,383.436 258.800 C 383.105 261.982,382.578 263.703,381.405 265.431 C 380.362 266.967,379.397 269.815,379.027 272.446 C 378.855 273.670,378.427 274.611,377.758 275.240 C 376.451 276.468,375.713 278.116,375.363 280.591 C 375.208 281.686,374.758 283.126,374.361 283.791 C 372.286 287.273,371.228 289.364,370.988 290.455 C 370.718 291.685,368.945 295.286,367.817 296.897 C 367.478 297.381,367.199 298.053,367.199 298.389 C 367.198 298.725,366.569 299.737,365.801 300.639 C 365.033 301.540,363.758 303.520,362.967 305.039 C 362.177 306.557,361.176 308.131,360.743 308.536 C 360.310 308.941,359.513 310.240,358.972 311.424 C 358.430 312.608,357.580 313.987,357.083 314.488 C 356.586 314.990,355.744 316.120,355.213 317.000 C 354.681 317.880,353.604 319.341,352.819 320.248 C 352.034 321.154,351.127 322.414,350.804 323.048 C 350.481 323.681,349.493 324.928,348.608 325.818 C 347.724 326.708,346.760 327.894,346.467 328.454 C 346.174 329.013,345.553 329.725,345.087 330.036 C 344.621 330.346,343.871 331.020,343.420 331.534 C 342.969 332.047,341.970 333.127,341.200 333.934 C 340.430 334.740,339.327 336.030,338.748 336.800 C 336.996 339.134,330.704 345.373,329.000 346.467 C 328.120 347.032,325.960 348.880,324.200 350.574 C 322.440 352.268,320.465 353.937,319.810 354.284 C 319.156 354.630,318.076 355.497,317.410 356.210 C 316.745 356.923,315.300 358.104,314.200 358.834 C 313.100 359.565,311.962 360.396,311.670 360.682 C 310.795 361.542,307.685 363.600,307.261 363.600 C 307.044 363.600,306.807 363.735,306.733 363.900 C 306.468 364.497,303.749 366.269,301.459 367.337 C 300.171 367.937,298.461 368.938,297.659 369.560 C 296.856 370.182,295.430 370.986,294.488 371.347 C 293.547 371.708,291.858 372.635,290.735 373.407 C 289.612 374.180,288.222 374.927,287.647 375.069 C 286.383 375.380,284.970 376.253,283.541 377.606 C 282.923 378.190,281.357 378.911,279.802 379.325 C 278.329 379.717,276.452 380.484,275.630 381.028 C 274.131 382.020,273.123 382.402,269.400 383.393 C 268.300 383.686,266.230 384.236,264.800 384.617 C 263.370 384.997,261.694 385.664,261.076 386.099 C 260.388 386.582,258.349 387.156,255.826 387.578 C 253.036 388.044,250.940 388.660,249.350 389.484 C 246.805 390.802,243.739 391.592,241.080 391.614 C 239.068 391.631,235.875 392.376,232.600 393.593 C 226.242 395.955,221.398 395.501,220.312 392.441 C 219.361 389.762,219.598 360.677,220.590 358.336 C 221.629 355.884,223.713 354.800,227.385 354.800 C 230.170 354.800,234.024 354.083,237.800 352.862 C 239.120 352.436,241.190 351.862,242.400 351.587 C 243.610 351.312,245.590 350.763,246.800 350.368 C 248.010 349.973,250.055 349.461,251.344 349.230 C 252.633 349.000,254.253 348.462,254.944 348.035 C 256.312 347.189,259.028 346.230,261.135 345.848 C 261.870 345.715,263.268 344.904,264.243 344.046 C 265.217 343.188,266.634 342.370,267.390 342.228 C 269.076 341.912,270.505 341.192,271.923 339.943 C 272.515 339.422,273.810 338.646,274.800 338.220 C 276.512 337.481,278.769 336.130,279.200 335.586 C 279.310 335.447,280.469 334.832,281.776 334.219 C 283.084 333.606,284.368 332.901,284.632 332.652 C 285.829 331.522,286.890 330.770,288.314 330.044 C 289.160 329.612,290.462 328.689,291.208 327.992 C 291.955 327.295,293.293 326.212,294.182 325.586 C 295.072 324.959,296.410 323.806,297.156 323.023 C 297.902 322.241,298.681 321.600,298.886 321.600 C 299.092 321.600,300.192 320.717,301.330 319.637 C 302.469 318.558,304.365 316.803,305.545 315.737 C 308.796 312.800,309.600 311.992,309.600 311.661 C 309.600 311.494,310.594 310.288,311.810 308.979 C 313.025 307.671,314.344 306.240,314.740 305.800 C 315.136 305.360,315.942 304.660,316.530 304.244 C 317.119 303.828,317.600 303.268,317.600 303.000 C 317.600 302.732,318.283 301.722,319.117 300.756 C 319.952 299.790,321.205 298.100,321.903 297.000 C 322.600 295.900,323.603 294.540,324.130 293.977 C 324.658 293.415,325.418 292.245,325.819 291.377 C 326.220 290.510,327.022 289.350,327.600 288.800 C 328.178 288.250,329.160 286.810,329.781 285.600 C 330.403 284.390,331.322 282.860,331.824 282.200 C 332.325 281.540,333.390 279.763,334.191 278.251 C 334.991 276.738,335.895 275.118,336.198 274.651 C 336.502 274.183,337.040 272.900,337.395 271.800 C 337.750 270.700,338.192 269.440,338.376 269.000 C 338.561 268.560,339.394 266.490,340.227 264.400 C 341.060 262.310,341.860 260.420,342.004 260.200 C 342.148 259.980,342.506 258.720,342.800 257.400 C 343.094 256.080,343.460 254.820,343.614 254.600 C 345.322 252.154,346.101 249.931,346.610 246.053 C 347.019 242.936,347.466 241.257,348.322 239.618 C 349.831 236.728,350.298 234.444,350.576 228.600 C 350.701 225.960,350.976 222.000,351.188 219.800 C 351.682 214.652,351.681 195.948,351.186 193.600 C 350.978 192.610,350.687 188.920,350.540 185.400 C 350.280 179.187,349.880 177.143,348.687 175.940 C 347.830 175.075,346.800 171.421,346.800 169.244 C 346.800 167.082,346.605 166.475,344.538 162.200 C 343.794 160.660,342.935 158.192,342.630 156.715 C 342.326 155.238,341.536 152.808,340.876 151.315 C 340.216 149.822,339.265 147.520,338.763 146.200 C 337.359 142.510,332.546 133.220,331.623 132.420 C 331.170 132.027,330.800 131.573,330.800 131.411 C 330.800 130.714,328.818 127.254,327.884 126.320 C 327.323 125.760,326.394 124.372,325.818 123.236 C 325.243 122.100,324.173 120.503,323.440 119.686 C 322.708 118.869,321.789 117.570,321.399 116.800 C 321.008 116.030,320.536 115.301,320.350 115.180 C 320.164 115.059,319.334 114.056,318.506 112.952 C 315.370 108.771,304.971 97.884,300.594 94.200 C 299.548 93.320,298.492 92.411,298.246 92.181 C 298.001 91.951,296.944 91.176,295.897 90.459 C 294.850 89.743,293.590 88.753,293.097 88.260 C 292.603 87.767,291.435 86.934,290.500 86.408 C 289.565 85.883,288.800 85.330,288.800 85.179 C 288.800 84.782,286.030 83.042,284.400 82.415 C 283.630 82.119,282.280 81.202,281.400 80.378 C 280.520 79.554,278.973 78.510,277.962 78.058 C 276.951 77.606,275.577 76.733,274.909 76.118 C 274.242 75.503,272.639 74.661,271.348 74.247 C 270.056 73.833,268.275 72.997,267.389 72.389 C 266.503 71.781,264.343 70.804,262.589 70.217 C 259.085 69.045,257.903 68.545,256.400 67.600 C 255.016 66.729,252.990 66.114,250.420 65.783 C 248.380 65.521,244.875 64.292,244.408 63.675 C 243.869 62.963,242.223 62.390,240.114 62.179 C 235.683 61.736,230.791 60.584,229.000 59.562 C 228.340 59.186,227.170 58.752,226.400 58.599 C 223.673 58.057,221.248 57.116,220.529 56.321 C 219.512 55.197,219.391 22.933,220.400 21.971 C 222.485 19.986,225.257 19.645,231.474 20.609 M58.400 90.538 C 59.390 91.198,60.560 92.186,61.000 92.733 C 61.440 93.280,62.335 94.194,62.990 94.764 C 63.644 95.334,64.679 96.340,65.289 97.000 C 65.899 97.660,66.533 98.326,66.699 98.480 C 68.084 99.770,78.382 110.097,79.027 110.843 C 79.481 111.369,80.246 112.113,80.727 112.496 C 82.176 113.651,81.987 117.438,80.405 118.931 C 79.748 119.551,78.899 120.720,78.520 121.529 C 78.141 122.338,77.597 123.239,77.312 123.532 C 77.027 123.825,75.909 125.561,74.829 127.390 C 73.748 129.219,72.557 131.075,72.181 131.514 C 71.805 131.954,70.989 133.618,70.368 135.214 C 69.747 136.810,68.792 138.584,68.245 139.158 C 67.321 140.127,65.600 143.573,65.600 144.454 C 65.600 144.668,64.790 146.083,63.800 147.600 C 62.810 149.117,62.000 150.806,62.000 151.355 C 62.000 151.904,61.820 152.464,61.600 152.600 C 61.380 152.736,61.200 153.101,61.200 153.412 C 61.200 153.722,60.750 154.960,60.200 156.163 C 59.650 157.365,59.200 158.572,59.200 158.846 C 59.200 159.119,59.032 159.896,58.827 160.572 C 58.622 161.247,58.241 162.610,57.981 163.600 C 57.720 164.590,57.366 165.850,57.194 166.400 C 57.022 166.950,56.574 168.840,56.198 170.600 C 55.823 172.360,55.195 174.970,54.802 176.400 C 54.409 177.830,53.861 180.440,53.584 182.200 C 52.409 189.658,52.673 189.561,33.355 189.583 C 18.851 189.600,14.995 189.321,14.155 188.194 C 12.912 186.527,13.284 178.499,14.723 175.937 C 15.675 174.242,16.198 171.852,16.956 165.722 C 17.435 161.853,17.766 160.529,18.558 159.322 C 19.858 157.340,20.664 154.780,20.927 151.800 C 21.055 150.340,21.561 148.568,22.217 147.277 C 22.810 146.109,23.436 144.579,23.610 143.877 C 24.240 141.320,25.683 136.583,26.037 135.905 C 26.237 135.523,26.400 134.960,26.400 134.654 C 26.400 134.348,26.666 133.877,26.992 133.607 C 27.777 132.955,28.674 131.116,28.992 129.504 C 29.401 127.434,30.071 125.891,31.112 124.623 C 31.644 123.975,32.487 122.535,32.987 121.423 C 33.486 120.310,34.368 118.860,34.947 118.200 C 35.526 117.540,35.999 116.853,36.000 116.674 C 36.001 115.857,38.174 111.679,39.160 110.600 C 39.762 109.940,40.588 108.590,40.994 107.600 C 41.401 106.610,42.211 105.170,42.794 104.400 C 43.378 103.630,44.202 102.370,44.627 101.600 C 45.052 100.830,46.052 99.464,46.848 98.566 C 47.644 97.667,48.633 96.407,49.045 95.766 C 51.087 92.588,55.327 88.599,56.153 89.077 C 56.399 89.220,57.410 89.877,58.400 90.538 M267.420 142.336 C 267.629 142.521,268.412 142.914,269.159 143.209 C 269.907 143.504,271.077 144.374,271.759 145.141 C 272.442 145.908,273.606 147.090,274.348 147.768 C 275.089 148.446,275.989 149.349,276.348 149.776 C 276.706 150.203,277.519 151.013,278.154 151.576 C 281.778 154.789,286.000 159.256,286.002 159.879 C 286.004 160.276,286.264 161.097,286.581 161.704 L 287.157 162.808 241.078 208.814 C 215.735 234.117,194.854 254.950,194.675 255.110 C 194.497 255.269,191.527 258.283,188.075 261.806 C 175.594 274.546,175.509 274.571,168.225 267.481 C 164.588 263.940,162.804 262.400,162.340 262.400 C 162.183 262.400,161.952 262.079,161.827 261.686 C 161.452 260.503,150.537 249.575,146.360 246.200 C 145.815 245.760,145.075 244.932,144.715 244.360 C 143.816 242.933,131.662 230.895,130.300 230.083 C 129.695 229.723,129.200 229.267,129.200 229.071 C 129.200 228.695,127.192 226.548,120.563 219.836 C 115.367 214.575,114.628 211.555,118.145 209.952 C 118.641 209.726,119.471 208.856,119.989 208.018 C 120.506 207.181,121.434 206.198,122.051 205.834 C 122.667 205.470,123.472 204.662,123.840 204.040 C 124.208 203.418,125.018 202.608,125.640 202.240 C 126.262 201.872,127.072 201.062,127.440 200.440 C 127.808 199.818,128.669 198.979,129.354 198.577 C 130.834 197.708,131.131 197.420,132.376 195.650 C 133.296 194.342,133.389 194.308,135.462 194.522 L 137.598 194.742 143.595 200.743 C 146.894 204.043,149.915 206.846,150.310 206.971 C 150.704 207.097,151.321 207.694,151.680 208.299 C 152.379 209.475,159.637 216.931,165.213 222.200 C 167.076 223.960,169.066 225.940,169.635 226.600 C 170.693 227.827,172.999 229.760,174.594 230.758 C 176.118 231.711,177.381 230.515,222.400 185.478 C 246.270 161.599,266.079 142.047,266.420 142.030 C 266.761 142.014,267.211 142.151,267.420 142.336 M51.117 226.519 C 52.806 227.441,53.097 228.148,53.785 233.000 C 54.430 237.548,54.723 239.059,55.182 240.200 C 55.527 241.057,58.640 253.456,59.231 256.329 C 59.427 257.280,59.919 258.540,60.324 259.129 C 60.730 259.718,61.476 261.550,61.982 263.200 C 62.488 264.850,63.479 267.010,64.185 268.000 C 64.890 268.990,65.879 270.838,66.383 272.107 C 66.887 273.376,67.809 275.057,68.434 275.842 C 69.058 276.628,69.677 277.659,69.809 278.135 C 70.325 279.987,71.941 283.382,72.720 284.250 C 73.094 284.666,73.918 285.995,74.551 287.204 C 75.184 288.412,75.826 289.490,75.977 289.600 C 76.602 290.054,78.800 293.588,78.800 294.139 C 78.800 294.467,79.603 295.675,80.584 296.824 C 82.569 299.150,82.578 298.986,80.259 302.400 C 78.171 305.474,59.047 324.238,56.838 325.381 L 55.657 325.991 52.628 323.040 C 50.963 321.417,49.600 319.982,49.600 319.849 C 49.600 319.717,49.340 319.292,49.022 318.905 C 45.939 315.146,45.200 314.152,45.200 313.766 C 45.200 313.519,44.729 312.809,44.154 312.188 C 43.578 311.567,42.302 309.531,41.317 307.664 C 40.332 305.797,39.276 304.019,38.969 303.712 C 38.662 303.405,37.857 301.950,37.178 300.477 C 36.500 299.005,35.441 297.260,34.826 296.600 C 34.189 295.917,33.387 294.303,32.963 292.852 C 32.497 291.253,31.730 289.769,30.906 288.869 C 29.795 287.656,28.811 285.507,28.802 284.275 C 28.800 283.997,26.976 279.863,26.033 278.000 C 25.866 277.670,25.406 276.320,25.012 275.000 C 23.750 270.775,23.284 269.450,22.216 267.056 C 21.631 265.744,20.989 263.278,20.757 261.456 C 20.234 257.339,19.805 255.963,18.612 254.575 C 17.616 253.415,17.057 250.976,16.603 245.800 C 16.289 242.226,15.682 239.472,14.706 237.200 C 12.220 231.412,12.807 226.817,16.129 226.050 C 19.437 225.287,49.602 225.692,51.117 226.519 M114.089 330.347 C 114.688 330.581,115.719 331.289,116.381 331.921 C 117.043 332.554,118.353 333.412,119.292 333.829 C 120.231 334.245,121.232 334.808,121.515 335.079 C 121.798 335.350,122.563 335.887,123.215 336.272 C 123.867 336.657,124.400 337.114,124.400 337.286 C 124.400 337.459,124.628 337.600,124.906 337.600 C 125.576 337.600,128.493 339.139,129.000 339.760 C 129.547 340.430,132.282 341.850,134.086 342.400 C 134.903 342.649,136.135 343.379,136.824 344.022 C 137.512 344.665,138.951 345.452,140.022 345.769 C 142.525 346.513,144.794 347.584,145.775 348.487 C 146.202 348.879,147.102 349.204,147.775 349.210 C 148.449 349.215,149.630 349.379,150.400 349.573 C 154.422 350.591,157.548 351.528,158.800 352.090 C 160.261 352.746,163.040 353.647,165.846 354.374 C 166.752 354.608,168.498 354.800,169.727 354.800 C 175.018 354.800,180.197 356.801,182.118 359.589 C 182.889 360.707,183.175 391.761,182.433 393.714 C 181.804 395.369,179.817 396.338,177.868 395.941 C 176.951 395.754,173.950 395.448,171.200 395.260 C 166.965 394.972,165.891 394.757,164.176 393.858 C 161.842 392.633,158.181 391.600,156.174 391.600 C 154.270 391.600,150.167 390.415,149.307 389.616 C 148.341 388.719,147.542 388.435,143.600 387.586 C 141.730 387.183,138.940 386.335,137.400 385.702 C 135.860 385.069,133.520 384.236,132.200 383.852 C 130.880 383.468,129.487 382.984,129.105 382.777 C 128.723 382.569,128.174 382.400,127.884 382.400 C 127.594 382.400,126.510 381.863,125.475 381.207 C 124.440 380.551,123.100 379.896,122.497 379.752 C 121.894 379.608,121.220 379.359,121.000 379.200 C 120.780 379.041,120.108 378.793,119.507 378.649 C 118.906 378.506,117.826 377.884,117.107 377.267 C 115.982 376.302,112.453 374.400,111.787 374.400 C 111.665 374.400,111.078 373.936,110.483 373.368 C 109.887 372.800,108.230 371.794,106.800 371.132 C 105.370 370.470,103.660 369.526,103.000 369.034 C 102.340 368.542,100.991 367.704,100.002 367.170 C 99.013 366.637,97.855 365.885,97.427 365.500 C 96.999 365.115,96.531 364.800,96.387 364.800 C 96.242 364.800,95.601 364.350,94.962 363.800 C 94.323 363.251,93.600 362.801,93.356 362.800 C 93.112 362.800,92.223 362.150,91.381 361.356 C 90.538 360.562,89.204 359.484,88.415 358.962 C 87.145 358.122,84.820 355.658,83.261 353.500 C 82.597 352.581,83.192 350.855,84.475 349.976 C 86.869 348.336,89.343 346.074,92.669 342.483 C 95.917 338.977,96.503 338.386,100.789 334.299 C 106.375 328.973,108.752 328.266,114.089 330.347 " stroke="none" fill="#ffffff" fill-rule="evenodd"></path></g></svg>