<svg id="svg" version="1.1" xmlns="http://www.w3.org/2000/svg" xmlns:xlink="http://www.w3.org/1999/xlink" width="400" height="357.33333333333337" viewBox="0, 0, 400,357.33333333333337"><g id="svgg"><path id="path0" d="M223.771 10.596 C 217.745 10.986,215.949 11.529,213.152 13.807 C 212.096 14.667,211.102 15.371,210.944 15.371 C 210.245 15.371,207.875 18.165,207.114 19.883 C 206.656 20.919,206.002 22.094,205.659 22.494 C 203.281 25.271,202.171 51.385,204.109 58.975 C 205.361 63.879,209.402 70.088,212.258 71.495 C 213.184 71.951,214.377 72.685,214.911 73.125 C 215.501 73.613,217.458 74.324,219.915 74.943 L 223.950 75.961 273.280 76.077 C 329.288 76.209,327.375 76.287,329.811 73.781 C 332.310 71.209,332.750 67.564,330.943 64.406 C 330.005 62.766,322.206 54.547,318.983 51.803 C 318.618 51.492,317.435 50.335,316.354 49.232 C 315.273 48.129,314.008 46.855,313.544 46.401 C 310.421 43.348,308.830 40.524,308.476 37.407 C 307.976 33.012,307.231 29.403,306.377 27.243 C 305.966 26.204,305.630 25.098,305.630 24.786 C 305.630 24.240,304.389 21.092,303.224 18.685 C 302.917 18.050,302.383 17.441,302.038 17.331 C 301.692 17.222,300.315 16.111,298.979 14.863 C 296.092 12.168,293.679 11.218,288.435 10.711 C 285.487 10.426,227.975 10.323,223.771 10.596 M368.626 23.430 C 367.499 23.864,364.688 24.923,362.378 25.783 C 359.251 26.947,357.777 27.711,356.607 28.776 C 355.743 29.562,354.478 30.667,353.796 31.231 C 353.115 31.795,352.023 33.163,351.371 34.270 C 350.718 35.377,349.756 36.765,349.231 37.355 C 345.482 41.573,345.603 58.038,349.412 61.933 C 349.843 62.374,351.039 63.993,352.070 65.531 C 353.396 67.509,354.421 68.607,355.574 69.284 C 356.470 69.811,357.647 70.603,358.189 71.046 C 358.731 71.488,359.287 71.850,359.425 71.850 C 359.564 71.850,361.041 72.526,362.710 73.353 L 365.743 74.856 371.343 74.872 C 377.021 74.889,381.218 74.108,382.587 72.782 C 382.825 72.551,383.905 71.932,384.987 71.406 C 387.133 70.363,391.190 66.590,392.953 63.997 C 393.559 63.106,394.169 62.297,394.309 62.198 C 396.984 60.316,398.169 47.266,396.245 40.881 C 394.769 35.986,388.356 28.321,384.767 27.164 C 384.003 26.918,383.217 26.591,383.021 26.438 C 382.824 26.285,381.641 25.816,380.391 25.396 C 379.142 24.976,377.753 24.392,377.306 24.099 C 375.494 22.912,370.892 22.557,368.626 23.430 M276.328 37.767 C 278.943 39.516,279.069 39.783,278.708 42.806 C 278.038 48.416,278.700 48.257,255.868 48.257 C 231.770 48.257,231.278 48.149,231.278 42.858 C 231.278 39.823,231.596 39.345,234.676 37.738 C 236.346 36.868,275.023 36.894,276.328 37.767 M117.401 88.113 C 113.580 88.821,107.304 92.008,106.459 93.670 C 106.105 94.366,105.067 95.650,104.151 96.523 C 100.781 99.735,100.482 101.857,100.208 124.512 L 99.997 141.964 98.373 144.172 C 97.479 145.387,95.967 147.105,95.013 147.989 C 89.328 153.262,75.957 166.933,75.561 167.878 C 74.570 170.242,74.765 174.115,75.974 176.076 C 78.122 179.562,68.711 179.252,172.475 179.260 L 262.913 179.267 266.309 177.902 C 268.177 177.151,270.218 176.382,270.845 176.193 C 272.521 175.688,277.924 170.148,278.582 168.260 C 280.521 162.696,280.429 164.447,280.429 133.155 C 280.429 106.345,280.383 104.098,279.803 102.816 C 279.459 102.055,279.178 100.961,279.178 100.385 C 279.178 98.623,278.151 97.038,274.710 93.486 C 273.181 91.909,270.524 90.388,266.487 88.778 L 263.986 87.781 191.957 87.713 C 133.868 87.658,119.439 87.735,117.401 88.113 M262.050 102.266 C 267.384 103.337,267.425 103.588,267.302 134.251 C 267.192 161.485,267.188 161.542,264.871 163.491 C 262.340 165.621,265.362 165.550,182.127 165.419 C 102.072 165.292,104.413 165.344,102.700 163.631 L 101.848 162.779 103.295 161.134 C 104.091 160.230,105.114 158.837,105.567 158.039 C 106.020 157.241,107.426 155.804,108.691 154.846 C 110.926 153.153,111.023 153.012,112.060 149.921 L 113.128 146.738 113.210 128.686 C 113.312 105.905,113.454 105.034,117.426 102.868 L 119.214 101.893 189.663 101.885 C 239.044 101.879,260.692 101.993,262.050 102.266 M132.800 113.772 C 130.414 114.179,126.495 117.494,125.981 119.540 C 125.466 121.591,128.792 126.120,131.380 126.892 C 134.027 127.682,247.530 127.894,249.262 127.113 C 249.889 126.830,250.773 126.492,251.226 126.361 C 252.100 126.109,254.155 123.556,254.155 122.722 C 254.155 122.450,254.414 121.833,254.729 121.351 C 255.905 119.556,253.527 116.134,249.665 114.064 L 248.268 113.315 191.605 113.361 C 154.900 113.391,134.187 113.536,132.800 113.772 M31.814 127.300 C 26.763 127.861,23.118 129.068,21.926 130.575 C 21.565 131.032,21.028 131.520,20.733 131.661 C 16.994 133.441,12.046 139.799,10.780 144.448 C 8.548 152.653,8.902 158.780,11.951 164.722 C 14.265 169.229,20.634 175.408,23.892 176.308 C 24.605 176.505,26.157 177.122,27.340 177.679 C 33.003 180.348,41.841 179.373,48.893 175.302 C 50.742 174.234,56.633 168.140,57.032 166.881 C 57.148 166.517,57.366 166.220,57.518 166.220 C 59.193 166.220,61.634 153.450,60.727 149.434 C 59.426 143.670,58.588 141.038,57.660 139.802 C 55.517 136.945,51.631 132.912,50.082 131.937 C 49.177 131.367,47.980 130.463,47.421 129.929 C 46.296 128.850,42.704 127.767,39.142 127.433 C 37.962 127.322,36.434 127.180,35.746 127.117 C 35.058 127.054,33.289 127.137,31.814 127.300 M132.976 139.896 C 129.989 140.516,128.920 141.345,127.326 144.277 L 125.913 146.877 127.098 148.636 C 130.783 154.107,125.541 153.697,191.918 153.703 L 248.179 153.709 249.761 152.919 C 251.679 151.961,254.155 149.895,254.155 149.253 C 254.155 148.996,254.376 148.362,254.644 147.843 C 255.062 147.039,255.055 146.653,254.600 145.211 C 253.640 142.172,253.328 141.780,250.925 140.585 L 248.615 139.436 191.778 139.462 C 150.683 139.481,134.397 139.601,132.976 139.896 M39.142 141.443 C 39.732 141.567,41.029 142.407,42.025 143.309 C 43.020 144.212,44.432 145.353,45.161 145.845 C 45.891 146.336,46.550 147.060,46.625 147.453 C 46.700 147.846,46.939 149.032,47.156 150.089 C 47.950 153.958,47.032 157.756,44.689 160.292 C 40.289 165.053,40.834 164.687,37.696 164.985 C 33.254 165.406,27.167 163.816,27.167 162.234 C 27.167 162.035,26.361 161.061,25.376 160.071 C 23.219 157.903,23.056 157.393,23.056 152.815 C 23.056 148.135,23.346 146.860,24.577 146.129 C 25.117 145.808,26.282 144.894,27.167 144.097 C 28.734 142.686,29.597 142.166,32.172 141.081 C 34.102 140.267,34.726 140.217,36.461 140.736 C 37.346 141.000,38.552 141.319,39.142 141.443 M161.573 191.245 C 154.820 191.542,152.634 192.114,149.182 194.487 C 147.774 195.455,146.487 196.257,146.322 196.269 C 145.938 196.298,141.890 200.999,141.340 202.056 C 138.207 208.079,138.159 208.607,138.159 237.355 L 138.159 262.556 139.021 266.130 C 140.592 272.652,142.724 275.555,148.994 279.714 C 153.957 283.005,145.563 282.734,242.860 282.744 L 328.259 282.752 329.786 281.591 C 331.161 280.544,331.382 280.158,332.003 277.701 L 332.694 274.973 331.584 273.039 C 329.883 270.077,328.571 268.427,326.518 266.667 C 325.485 265.782,324.344 264.613,323.982 264.070 C 323.620 263.526,322.327 262.270,321.108 261.278 C 319.888 260.286,318.796 259.175,318.679 258.809 C 318.563 258.443,317.349 257.239,315.981 256.134 C 314.613 255.029,313.494 253.903,313.494 253.632 C 313.494 253.362,312.615 252.357,311.541 251.400 C 308.264 248.479,308.386 249.235,308.112 230.027 C 307.980 220.786,307.744 212.824,307.589 212.332 C 303.815 200.406,303.203 199.070,300.712 197.313 C 299.780 196.655,298.436 195.603,297.725 194.975 C 297.014 194.347,295.084 193.303,293.435 192.655 L 290.438 191.477 278.463 191.235 C 262.892 190.920,168.773 190.928,161.573 191.245 M276.413 219.945 L 278.383 221.301 278.736 224.055 C 279.142 227.228,278.673 228.091,275.780 229.492 C 273.665 230.516,174.663 230.623,170.449 229.606 C 166.781 228.720,166.066 227.757,166.396 224.148 C 166.939 218.215,163.106 218.569,226.677 218.580 L 274.443 218.588 276.413 219.945 M366.889 230.749 C 364.455 231.080,363.276 231.431,362.248 232.129 C 361.491 232.644,360.707 233.067,360.507 233.069 C 360.307 233.071,359.339 233.713,358.356 234.495 C 357.373 235.277,356.400 235.919,356.194 235.921 C 355.726 235.926,353.520 238.251,352.639 239.669 C 352.276 240.254,351.847 240.897,351.685 241.099 C 344.595 249.957,344.175 261.604,350.635 270.233 C 351.736 271.703,352.797 273.177,352.994 273.509 C 353.867 274.985,359.804 279.572,362.716 281.021 L 365.809 282.561 371.198 282.567 C 376.459 282.574,382.842 281.106,382.842 279.889 C 382.842 279.743,383.765 279.161,384.894 278.596 C 388.401 276.841,392.493 273.134,392.493 271.712 C 392.493 271.541,392.749 271.189,393.061 270.930 C 393.373 270.671,394.317 269.083,395.158 267.401 C 400.689 256.345,396.194 240.814,385.698 234.715 C 384.127 233.803,382.842 232.911,382.842 232.735 C 382.842 231.909,379.644 230.948,375.693 230.585 C 371.023 230.157,371.267 230.152,366.889 230.749 M235.210 244.917 C 238.239 245.521,238.751 245.739,239.954 246.938 L 241.302 248.283 240.717 250.951 C 239.557 256.237,242.136 255.893,203.575 255.919 C 163.879 255.945,166.401 256.261,165.986 251.211 C 165.598 246.501,166.950 245.354,173.905 244.494 C 179.195 243.840,231.621 244.201,235.210 244.917 M119.750 295.266 C 114.155 295.928,107.515 299.053,105.569 301.942 C 105.064 302.692,103.956 304.052,103.108 304.964 C 102.051 306.101,101.498 307.054,101.348 308.002 C 101.228 308.762,101.053 309.786,100.960 310.277 C 100.867 310.769,100.566 313.849,100.292 317.124 C 99.777 323.286,99.556 324.092,97.939 325.709 C 97.410 326.237,96.705 327.245,96.371 327.948 C 96.038 328.651,94.924 329.861,93.896 330.636 C 92.869 331.412,91.664 332.539,91.219 333.141 C 90.774 333.743,89.741 334.658,88.923 335.174 C 88.106 335.690,86.543 337.016,85.452 338.119 C 84.360 339.222,82.985 340.549,82.395 341.066 C 76.655 346.102,75.235 348.476,74.885 353.619 L 74.624 357.462 135.614 357.462 L 196.604 357.462 196.604 356.179 C 196.604 355.086,196.978 354.490,199.115 352.170 C 201.283 349.817,201.756 349.053,202.585 346.573 L 203.544 343.700 203.559 328.686 C 203.575 313.666,203.228 308.859,201.950 306.342 C 201.111 304.691,195.422 298.957,194.285 298.618 C 193.890 298.499,192.601 297.958,191.421 297.414 C 185.987 294.911,189.109 295.108,153.887 295.047 C 136.390 295.017,121.028 295.115,119.750 295.266 M30.384 309.038 C 29.106 309.327,27.659 309.712,27.167 309.893 C 26.676 310.075,25.690 310.319,24.977 310.437 C 24.263 310.554,23.270 311.030,22.770 311.494 C 22.270 311.957,20.901 312.919,19.728 313.632 C 17.483 314.996,15.714 316.740,14.374 318.910 C 13.932 319.628,13.331 320.306,13.040 320.418 C 12.749 320.530,12.511 320.916,12.511 321.276 C 12.511 321.636,12.368 322.083,12.194 322.270 C 11.624 322.879,10.088 327.909,9.645 330.617 C 8.921 335.035,10.156 342.730,12.030 345.477 C 12.295 345.865,12.511 346.399,12.511 346.663 C 12.511 347.087,13.845 349.095,14.835 350.162 C 15.031 350.373,15.678 351.101,16.272 351.779 C 16.867 352.457,17.952 353.469,18.685 354.028 C 19.761 354.848,20.018 355.278,20.018 356.253 L 20.018 357.462 35.210 357.462 L 50.402 357.462 50.402 356.386 C 50.402 355.504,50.951 354.779,53.450 352.365 C 57.834 348.132,59.231 345.121,60.610 336.943 C 61.310 332.793,59.378 322.686,57.500 320.670 C 57.135 320.279,56.836 319.814,56.836 319.637 C 56.836 318.950,51.380 313.815,49.774 312.991 C 48.842 312.512,47.525 311.706,46.847 311.199 C 46.170 310.692,45.328 310.277,44.975 310.277 C 44.622 310.277,43.487 309.947,42.452 309.544 C 39.929 308.561,33.655 308.298,30.384 309.038 M185.263 309.562 C 185.763 309.955,186.307 310.282,186.473 310.289 C 187.595 310.333,189.736 313.323,190.381 315.746 C 191.090 318.409,191.094 337.349,190.387 339.701 C 189.261 343.441,185.770 346.306,181.769 346.772 C 180.393 346.933,163.423 347.065,144.057 347.067 C 107.294 347.069,104.958 346.982,103.369 345.543 C 103.009 345.217,102.526 344.951,102.295 344.951 C 101.458 344.951,101.920 344.013,103.791 341.912 C 104.842 340.733,105.952 339.282,106.258 338.687 C 106.565 338.093,107.795 336.701,108.993 335.595 C 110.191 334.488,111.171 333.320,111.171 333.000 C 111.171 332.680,111.565 331.481,112.048 330.335 C 112.806 328.533,112.955 327.483,113.151 322.570 C 113.456 314.903,114.963 310.378,117.248 310.272 C 117.542 310.258,118.347 309.939,119.035 309.562 C 121.037 308.466,183.869 308.466,185.263 309.562 M133.244 320.844 C 129.171 321.831,125.110 326.800,126.376 329.247 C 130.726 337.661,150.492 336.806,150.492 328.204 C 150.492 326.403,149.147 323.329,147.811 322.074 C 146.026 320.397,137.914 319.712,133.244 320.844 M38.141 322.827 C 39.851 323.125,40.672 323.479,41.449 324.257 C 42.018 324.825,42.623 325.290,42.794 325.290 C 43.260 325.290,45.974 328.224,46.265 329.044 C 46.913 330.867,47.163 333.492,46.951 336.250 L 46.720 339.261 44.003 341.958 C 40.278 345.656,36.759 346.763,32.708 345.511 C 31.725 345.207,30.574 344.957,30.150 344.955 C 29.674 344.952,28.240 343.847,26.397 342.062 L 23.414 339.174 23.013 336.432 C 22.066 329.956,24.931 325.475,31.418 323.285 C 34.178 322.353,35.071 322.292,38.141 322.827 M166.777 323.687 C 166.250 324.377,165.489 325.737,165.085 326.708 L 164.351 328.474 165.387 330.159 C 167.103 332.951,167.886 333.350,170.577 332.804 C 177.022 331.497,177.456 325.235,171.244 323.189 C 168.192 322.184,167.898 322.217,166.777 323.687 " stroke="none" fill="#e74d6d" fill-rule="evenodd"></path><path id="path1" d="M0.000 178.731 L 0.000 357.462 10.009 357.462 L 20.018 357.462 20.018 356.253 C 20.018 355.278,19.761 354.848,18.685 354.028 C 17.952 353.469,16.867 352.457,16.272 351.779 C 15.678 351.101,15.031 350.373,14.835 350.162 C 13.845 349.095,12.511 347.087,12.511 346.663 C 12.511 346.399,12.295 345.865,12.030 345.477 C 10.156 342.730,8.921 335.035,9.645 330.617 C 10.088 327.909,11.624 322.879,12.194 322.270 C 12.368 322.083,12.511 321.636,12.511 321.276 C 12.511 320.916,12.749 320.530,13.040 320.418 C 13.331 320.306,13.932 319.628,14.374 318.910 C 15.714 316.740,17.483 314.996,19.728 313.632 C 20.901 312.919,22.270 311.957,22.770 311.494 C 23.270 311.030,24.263 310.550,24.977 310.427 C 25.690 310.304,26.917 309.999,27.703 309.750 C 32.466 308.242,38.821 308.158,42.452 309.554 C 43.487 309.952,44.622 310.277,44.975 310.277 C 45.328 310.277,46.170 310.692,46.847 311.199 C 47.525 311.706,48.842 312.512,49.774 312.991 C 51.380 313.815,56.836 318.950,56.836 319.637 C 56.836 319.814,57.135 320.279,57.500 320.670 C 59.378 322.686,61.310 332.793,60.610 336.943 C 59.231 345.121,57.834 348.132,53.450 352.365 C 50.951 354.779,50.402 355.504,50.402 356.386 L 50.402 357.462 62.513 357.462 L 74.624 357.462 74.885 353.619 C 75.235 348.476,76.655 346.102,82.395 341.066 C 82.985 340.549,84.360 339.222,85.452 338.119 C 86.543 337.016,88.106 335.690,88.923 335.174 C 89.741 334.658,90.774 333.743,91.219 333.141 C 91.664 332.539,92.869 331.412,93.896 330.636 C 94.924 329.861,96.038 328.651,96.371 327.948 C 96.705 327.245,97.410 326.237,97.939 325.709 C 99.556 324.092,99.777 323.286,100.292 317.124 C 100.566 313.849,100.867 310.769,100.960 310.277 C 101.053 309.786,101.228 308.762,101.348 308.002 C 101.498 307.054,102.051 306.101,103.108 304.964 C 103.956 304.052,105.064 302.692,105.569 301.942 C 107.146 299.602,109.571 298.222,115.818 296.112 L 118.856 295.085 152.100 295.085 C 188.942 295.085,186.010 294.911,191.421 297.411 C 192.601 297.956,193.890 298.499,194.285 298.618 C 195.422 298.957,201.111 304.691,201.950 306.342 C 203.228 308.859,203.575 313.666,203.559 328.686 L 203.544 343.700 202.585 346.573 C 201.756 349.053,201.283 349.817,199.115 352.170 C 196.978 354.490,196.604 355.086,196.604 356.179 L 196.604 357.462 298.302 357.462 L 400.000 357.462 400.000 178.731 L 400.000 0.000 200.000 0.000 L 0.000 0.000 0.000 178.731 M288.435 10.711 C 293.679 11.218,296.092 12.168,298.979 14.863 C 300.315 16.111,301.692 17.222,302.038 17.331 C 302.383 17.441,302.917 18.050,303.224 18.685 C 304.389 21.092,305.630 24.240,305.630 24.786 C 305.630 25.098,305.966 26.204,306.377 27.243 C 307.231 29.403,307.976 33.012,308.476 37.407 C 308.830 40.524,310.421 43.348,313.544 46.401 C 314.008 46.855,315.273 48.129,316.354 49.232 C 317.435 50.335,318.618 51.492,318.983 51.803 C 322.206 54.547,330.005 62.766,330.943 64.406 C 332.750 67.564,332.310 71.209,329.811 73.781 C 327.375 76.287,329.288 76.209,273.280 76.077 L 223.950 75.961 219.915 74.943 C 217.458 74.324,215.501 73.613,214.911 73.125 C 214.377 72.685,213.184 71.951,212.258 71.495 C 209.402 70.088,205.361 63.879,204.109 58.975 C 202.171 51.385,203.281 25.271,205.659 22.494 C 206.002 22.094,206.656 20.919,207.114 19.883 C 207.875 18.165,210.245 15.371,210.944 15.371 C 211.102 15.371,212.096 14.667,213.152 13.807 C 215.949 11.529,217.745 10.986,223.771 10.596 C 227.975 10.323,285.487 10.426,288.435 10.711 M377.306 24.099 C 377.753 24.392,379.142 24.976,380.391 25.396 C 381.641 25.816,382.824 26.285,383.021 26.438 C 383.217 26.591,384.003 26.918,384.767 27.164 C 388.356 28.321,394.769 35.986,396.245 40.881 C 398.169 47.266,396.984 60.316,394.309 62.198 C 394.169 62.297,393.559 63.106,392.953 63.997 C 391.190 66.590,387.133 70.363,384.987 71.406 C 383.905 71.932,382.825 72.551,382.587 72.782 C 381.218 74.108,377.021 74.889,371.343 74.872 L 365.743 74.856 362.710 73.353 C 361.041 72.526,359.564 71.850,359.425 71.850 C 359.287 71.850,358.731 71.488,358.189 71.046 C 357.647 70.603,356.470 69.811,355.574 69.284 C 354.421 68.607,353.396 67.509,352.070 65.531 C 351.039 63.993,349.843 62.374,349.412 61.933 C 345.603 58.038,345.482 41.573,349.231 37.355 C 349.756 36.765,350.718 35.377,351.371 34.270 C 352.023 33.163,353.115 31.795,353.796 31.231 C 354.478 30.667,355.743 29.562,356.607 28.776 C 357.777 27.711,359.251 26.947,362.378 25.783 C 364.688 24.923,367.499 23.864,368.626 23.430 C 370.892 22.557,375.494 22.912,377.306 24.099 M234.676 37.738 C 231.596 39.345,231.278 39.823,231.278 42.858 C 231.278 48.149,231.770 48.257,255.868 48.257 C 278.700 48.257,278.038 48.416,278.708 42.806 C 279.069 39.783,278.943 39.516,276.328 37.767 C 275.023 36.894,236.346 36.868,234.676 37.738 M266.487 88.778 C 270.524 90.388,273.181 91.909,274.710 93.486 C 278.151 97.038,279.178 98.623,279.178 100.385 C 279.178 100.961,279.459 102.055,279.803 102.816 C 280.383 104.098,280.429 106.345,280.429 133.155 C 280.429 164.447,280.521 162.696,278.582 168.260 C 277.924 170.148,272.521 175.688,270.845 176.193 C 270.218 176.382,268.177 177.151,266.309 177.902 L 262.913 179.267 172.475 179.260 C 68.711 179.252,78.122 179.562,75.974 176.076 C 74.765 174.115,74.570 170.242,75.561 167.878 C 75.957 166.933,89.328 153.262,95.013 147.989 C 95.967 147.105,97.479 145.387,98.373 144.172 L 99.997 141.964 100.208 124.512 C 100.482 101.857,100.781 99.735,104.151 96.523 C 105.067 95.650,106.105 94.366,106.459 93.670 C 107.304 92.008,113.580 88.821,117.401 88.113 C 119.439 87.735,133.868 87.658,191.957 87.713 L 263.986 87.781 266.487 88.778 M117.426 102.868 C 113.454 105.034,113.312 105.905,113.210 128.686 L 113.128 146.738 112.060 149.921 C 111.023 153.012,110.926 153.153,108.691 154.846 C 107.426 155.804,106.020 157.241,105.567 158.039 C 105.114 158.837,104.091 160.230,103.295 161.134 L 101.848 162.779 102.700 163.631 C 104.413 165.344,102.072 165.292,182.127 165.419 C 271.765 165.561,264.648 165.951,266.517 160.788 C 267.682 157.566,267.754 110.801,266.599 106.912 C 264.957 101.378,272.567 101.875,189.663 101.885 L 119.214 101.893 117.426 102.868 M249.665 114.064 C 253.527 116.134,255.905 119.556,254.729 121.351 C 254.414 121.833,254.155 122.450,254.155 122.722 C 254.155 123.556,252.100 126.109,251.226 126.361 C 250.773 126.492,249.889 126.830,249.262 127.113 C 248.283 127.554,240.028 127.612,190.639 127.524 C 125.779 127.408,130.558 127.626,128.342 124.685 C 125.162 120.464,125.172 119.623,128.441 116.354 C 131.596 113.199,127.067 113.414,191.605 113.361 L 248.268 113.315 249.665 114.064 M39.142 127.433 C 42.704 127.767,46.296 128.850,47.421 129.929 C 47.980 130.463,49.177 131.367,50.082 131.937 C 51.631 132.912,55.517 136.945,57.660 139.802 C 58.588 141.038,59.426 143.670,60.727 149.434 C 61.634 153.450,59.193 166.220,57.518 166.220 C 57.366 166.220,57.148 166.517,57.032 166.881 C 56.633 168.140,50.742 174.234,48.893 175.302 C 41.841 179.373,33.003 180.348,27.340 177.679 C 26.157 177.122,24.605 176.505,23.892 176.308 C 20.634 175.408,14.265 169.229,11.951 164.722 C 7.414 155.881,8.749 144.177,15.146 136.729 C 17.405 134.099,19.386 132.302,20.733 131.661 C 21.028 131.520,21.565 131.032,21.926 130.575 C 23.431 128.673,31.279 126.710,35.746 127.117 C 36.434 127.180,37.962 127.322,39.142 127.433 M250.925 140.585 C 253.328 141.780,253.640 142.172,254.600 145.211 C 255.055 146.653,255.062 147.039,254.644 147.843 C 254.376 148.362,254.155 148.996,254.155 149.253 C 254.155 149.895,251.679 151.961,249.761 152.919 L 248.179 153.709 191.918 153.703 C 125.541 153.697,130.783 154.107,127.098 148.636 L 125.913 146.877 127.326 144.277 C 130.148 139.085,124.693 139.493,191.778 139.462 L 248.615 139.436 250.925 140.585 M34.138 140.404 C 33.378 140.563,31.613 141.272,29.848 142.128 C 29.258 142.414,28.052 143.301,27.167 144.097 C 26.282 144.894,25.117 145.808,24.577 146.129 C 23.346 146.860,23.056 148.135,23.056 152.815 C 23.056 157.393,23.219 157.903,25.376 160.071 C 26.361 161.061,27.167 162.035,27.167 162.234 C 27.167 163.816,33.254 165.406,37.696 164.985 C 40.834 164.687,40.289 165.053,44.689 160.292 C 47.032 157.756,47.950 153.958,47.156 150.089 C 46.939 149.032,46.700 147.846,46.625 147.453 C 46.550 147.060,45.891 146.336,45.161 145.845 C 44.432 145.353,43.020 144.212,42.025 143.309 C 41.029 142.407,39.732 141.567,39.142 141.443 C 38.552 141.319,37.346 141.000,36.461 140.736 C 35.576 140.471,34.531 140.322,34.138 140.404 M278.463 191.235 L 290.438 191.477 293.435 192.655 C 295.084 193.303,297.014 194.347,297.725 194.975 C 298.436 195.603,299.780 196.655,300.712 197.313 C 303.203 199.070,303.815 200.406,307.589 212.332 C 307.744 212.824,307.980 220.786,308.112 230.027 C 308.386 249.235,308.264 248.479,311.541 251.400 C 312.615 252.357,313.494 253.362,313.494 253.632 C 313.494 253.903,314.613 255.029,315.981 256.134 C 317.349 257.239,318.563 258.443,318.679 258.809 C 318.796 259.175,319.888 260.286,321.108 261.278 C 322.327 262.270,323.620 263.526,323.982 264.070 C 324.344 264.613,325.485 265.782,326.518 266.667 C 328.571 268.427,329.883 270.077,331.584 273.039 L 332.694 274.973 332.003 277.701 C 331.382 280.158,331.161 280.544,329.786 281.591 L 328.259 282.752 242.860 282.744 C 145.563 282.734,153.957 283.005,148.994 279.714 C 142.724 275.555,140.592 272.652,139.021 266.130 L 138.159 262.556 138.159 237.355 C 138.159 208.607,138.207 208.079,141.340 202.056 C 141.890 200.999,145.938 196.298,146.322 196.269 C 146.487 196.257,147.774 195.455,149.182 194.487 C 152.634 192.114,154.820 191.542,161.573 191.245 C 168.773 190.928,262.892 190.920,278.463 191.235 M175.156 218.798 C 167.998 219.230,166.778 219.975,166.396 224.148 C 166.066 227.757,166.781 228.720,170.449 229.606 C 174.663 230.623,273.665 230.516,275.780 229.492 C 278.673 228.091,279.142 227.228,278.736 224.055 L 278.383 221.301 276.413 219.945 L 274.443 218.588 226.677 218.580 C 200.405 218.575,177.221 218.673,175.156 218.798 M375.693 230.585 C 379.644 230.948,382.842 231.909,382.842 232.735 C 382.842 232.911,384.127 233.803,385.698 234.715 C 396.194 240.814,400.689 256.345,395.158 267.401 C 394.317 269.083,393.373 270.671,393.061 270.930 C 392.749 271.189,392.493 271.541,392.493 271.712 C 392.493 273.134,388.401 276.841,384.894 278.596 C 383.765 279.161,382.842 279.743,382.842 279.889 C 382.842 281.106,376.459 282.574,371.198 282.567 L 365.809 282.561 362.716 281.021 C 359.804 279.572,353.867 274.985,352.994 273.509 C 352.797 273.177,351.736 271.703,350.635 270.233 C 344.175 261.604,344.595 249.957,351.685 241.099 C 351.847 240.897,352.276 240.254,352.639 239.669 C 353.520 238.251,355.726 235.926,356.194 235.921 C 356.400 235.919,357.373 235.277,358.356 234.495 C 359.339 233.713,360.307 233.071,360.507 233.069 C 360.707 233.067,361.491 232.644,362.248 232.129 C 363.276 231.431,364.455 231.080,366.889 230.749 C 371.267 230.152,371.023 230.157,375.693 230.585 M173.905 244.494 C 166.950 245.354,165.598 246.501,165.986 251.211 C 166.401 256.261,163.879 255.945,203.575 255.919 C 242.136 255.893,239.557 256.237,240.717 250.951 L 241.302 248.283 239.954 246.938 C 237.334 244.324,236.219 244.241,203.932 244.234 C 188.597 244.231,175.085 244.348,173.905 244.494 M119.035 309.562 C 118.347 309.939,117.542 310.258,117.248 310.272 C 114.963 310.378,113.456 314.903,113.151 322.570 C 112.955 327.483,112.806 328.533,112.048 330.335 C 111.565 331.481,111.171 332.680,111.171 333.000 C 111.171 333.320,110.191 334.488,108.993 335.595 C 107.795 336.701,106.565 338.093,106.258 338.687 C 105.952 339.282,104.842 340.733,103.791 341.912 C 101.920 344.013,101.458 344.951,102.295 344.951 C 102.526 344.951,103.009 345.217,103.369 345.543 C 104.958 346.982,107.294 347.069,144.057 347.067 C 187.025 347.064,185.232 347.235,188.757 342.785 C 191.774 338.975,191.992 316.867,189.053 312.708 C 188.150 311.429,186.953 310.308,186.473 310.289 C 186.307 310.282,185.763 309.955,185.263 309.562 C 183.869 308.466,121.037 308.466,119.035 309.562 M144.883 320.786 C 148.121 321.548,150.492 324.683,150.492 328.204 C 150.492 335.085,135.172 337.877,128.962 332.128 C 125.417 328.846,125.344 328.172,128.115 324.314 C 130.743 320.656,137.917 319.147,144.883 320.786 M31.418 323.285 C 24.931 325.475,22.066 329.956,23.013 336.432 L 23.414 339.174 26.397 342.062 C 28.240 343.847,29.674 344.952,30.150 344.955 C 30.574 344.957,31.725 345.207,32.708 345.511 C 36.759 346.763,40.278 345.656,44.003 341.958 L 46.720 339.261 46.951 336.250 C 47.163 333.492,46.913 330.867,46.265 329.044 C 45.974 328.224,43.260 325.290,42.794 325.290 C 42.623 325.290,42.018 324.825,41.449 324.257 C 39.600 322.408,35.262 321.987,31.418 323.285 M171.244 323.189 C 177.456 325.235,177.022 331.497,170.577 332.804 C 167.886 333.350,167.103 332.951,165.387 330.159 L 164.351 328.474 165.085 326.708 C 166.836 322.494,167.676 322.014,171.244 323.189 " stroke="none" fill="#fcfbfb" fill-rule="evenodd"></path></g></svg>