<svg id="svg" version="1.1" xmlns="http://www.w3.org/2000/svg" xmlns:xlink="http://www.w3.org/1999/xlink" width="400" height="360.5633802816901" viewBox="0, 0, 400,360.5633802816901"><g id="svgg"><path id="path0" d="M39.675 9.979 C 31.706 11.240,26.089 13.659,21.312 17.888 C 12.774 25.447,13.358 24.790,10.427 30.155 C 7.409 35.679,7.287 36.045,5.869 43.823 L 4.884 49.234 4.776 183.769 C 4.669 317.750,4.672 318.329,5.411 324.256 C 6.588 333.684,7.372 337.182,8.900 339.823 C 9.628 341.081,10.805 343.187,11.514 344.504 C 13.329 347.872,18.293 352.960,21.677 354.922 C 26.662 357.813,26.686 357.834,26.688 359.333 L 26.691 360.685 198.377 360.685 L 370.063 360.685 370.063 359.246 C 370.063 357.888,370.180 357.732,372.137 356.483 C 376.980 353.389,377.652 352.901,377.830 352.345 C 377.933 352.023,378.969 350.932,380.132 349.921 C 381.295 348.909,382.698 347.306,383.251 346.358 C 383.803 345.410,384.859 343.823,385.598 342.831 C 387.460 340.330,389.011 336.465,389.981 331.908 L 390.803 328.043 390.904 188.819 C 391.014 35.922,391.135 44.160,388.671 36.567 C 384.600 24.024,371.539 12.465,358.958 10.271 C 356.097 9.773,42.795 9.486,39.675 9.979 M49.121 42.831 C 52.760 46.737,52.964 51.734,49.625 55.154 L 48.356 56.453 45.285 56.249 C 41.110 55.972,40.249 55.205,38.927 50.582 C 38.161 47.904,38.222 47.694,40.858 43.913 L 42.305 41.839 45.251 41.839 C 48.000 41.839,48.259 41.906,49.121 42.831 M80.214 42.796 C 84.733 44.375,85.535 52.320,81.442 54.959 C 76.984 57.833,72.804 55.724,71.402 49.892 L 70.953 48.026 72.626 45.681 C 75.490 41.667,76.205 41.395,80.214 42.796 M111.682 43.094 C 112.448 43.783,113.193 44.351,113.337 44.356 C 113.481 44.361,114.242 45.177,115.027 46.170 L 116.454 47.976 115.810 50.300 C 114.621 54.586,111.623 57.038,108.790 56.038 C 104.817 54.636,103.750 53.294,103.094 48.872 C 102.900 47.560,104.566 45.520,107.357 43.654 C 110.577 41.500,109.996 41.575,111.682 43.094 M373.129 90.821 C 374.121 91.278,375.213 92.008,375.556 92.444 C 376.143 93.192,376.179 99.718,376.184 206.132 C 376.190 326.977,376.276 321.619,374.239 326.781 C 373.573 328.467,372.492 331.213,371.836 332.884 C 370.519 336.239,370.464 336.311,366.087 340.353 C 362.644 343.532,360.803 344.339,354.914 345.245 C 349.580 346.066,42.901 345.929,39.466 345.103 C 34.355 343.876,33.108 343.204,29.020 339.475 C 24.012 334.907,22.921 332.834,22.334 326.781 C 22.151 324.896,21.844 322.218,21.653 320.830 C 21.435 319.251,21.300 276.135,21.292 205.761 L 21.280 93.218 22.355 92.041 C 22.946 91.393,23.961 90.633,24.610 90.351 C 25.625 89.909,49.803 89.848,198.557 89.914 L 371.326 89.991 373.129 90.821 M141.389 122.542 C 133.868 122.985,126.069 124.440,122.813 126.009 C 118.393 128.138,116.529 128.633,109.631 129.509 C 104.595 130.149,103.261 130.456,100.812 131.537 C 99.225 132.237,96.952 133.202,95.762 133.680 C 91.779 135.280,90.684 135.991,87.893 138.788 C 81.564 145.130,79.678 150.651,79.436 163.547 L 79.274 172.179 76.753 177.116 C 74.507 181.513,74.193 182.382,73.880 185.075 C 73.360 189.545,74.228 199.384,75.329 201.511 C 75.656 202.144,76.601 204.010,77.429 205.659 C 78.256 207.308,79.478 209.306,80.143 210.099 C 82.279 212.647,88.357 223.811,89.274 226.871 C 89.819 228.691,91.579 231.801,92.665 232.863 C 93.440 233.621,94.047 234.826,94.655 236.814 L 95.529 239.675 94.484 240.653 C 93.764 241.326,91.944 242.102,88.649 243.142 C 86.015 243.973,83.086 245.038,82.141 245.509 C 79.829 246.661,76.939 247.366,72.840 247.777 C 68.547 248.207,67.377 248.553,64.918 250.122 C 63.830 250.816,61.885 251.882,60.595 252.492 C 59.306 253.101,57.704 253.875,57.035 254.212 C 54.686 255.395,46.033 264.332,44.918 266.727 C 44.364 267.917,43.205 269.836,42.342 270.990 C 40.199 273.857,38.319 280.664,37.680 287.866 C 37.230 292.935,40.329 297.288,45.331 298.611 L 48.281 299.391 127.026 299.289 L 205.771 299.188 208.760 297.579 C 213.847 294.840,214.893 291.733,213.842 282.490 C 213.519 279.647,213.194 278.466,212.228 276.616 C 211.562 275.343,210.361 272.922,209.558 271.235 C 207.016 265.895,205.470 263.760,201.472 260.069 C 200.496 259.168,198.873 257.642,197.865 256.678 C 196.661 255.526,194.862 254.376,192.623 253.328 C 190.748 252.450,188.719 251.355,188.114 250.894 C 185.440 248.855,183.547 248.183,179.441 247.815 C 175.085 247.425,172.657 246.809,169.280 245.234 C 168.055 244.663,165.475 243.786,163.546 243.285 C 158.189 241.893,156.076 240.358,157.010 238.536 C 157.298 237.972,157.827 236.577,158.185 235.434 C 158.616 234.057,159.401 232.720,160.515 231.467 C 162.584 229.137,162.750 228.826,164.306 224.356 C 164.996 222.374,166.267 219.655,167.131 218.312 C 168.705 215.865,170.243 212.714,170.243 211.938 C 170.243 211.710,171.066 210.726,172.071 209.751 C 174.757 207.145,175.525 205.000,176.564 197.197 C 176.848 195.060,177.333 192.339,177.641 191.150 C 178.255 188.781,177.743 184.108,176.627 181.901 C 176.344 181.342,175.665 179.504,175.117 177.818 C 174.569 176.132,173.804 174.174,173.416 173.467 C 171.730 170.393,173.599 162.459,177.269 157.105 C 179.682 153.585,179.926 147.788,177.824 143.913 C 176.897 142.205,175.550 139.390,174.717 137.421 C 174.084 135.924,172.266 133.587,169.452 130.652 C 168.830 130.003,167.296 128.968,166.042 128.350 C 164.788 127.733,163.567 126.994,163.330 126.708 C 161.955 125.051,157.854 123.949,150.159 123.168 C 147.220 122.870,144.491 122.581,144.094 122.525 C 143.697 122.470,142.480 122.478,141.389 122.542 M236.429 139.787 C 232.290 141.559,231.052 143.006,231.372 145.703 C 231.935 150.462,232.393 151.094,236.798 153.186 L 239.675 154.554 292.696 154.667 C 353.803 154.799,350.421 154.955,354.917 151.798 C 357.914 149.693,358.017 149.521,358.338 146.066 L 358.591 143.350 355.544 141.259 C 351.344 138.376,354.742 138.525,293.417 138.539 L 239.315 138.551 236.429 139.787 M237.151 187.373 C 236.357 187.637,235.264 187.952,234.721 188.072 C 233.533 188.333,232.809 189.368,231.730 192.349 L 230.918 194.590 231.764 196.259 C 232.994 198.686,234.475 199.987,237.234 201.064 L 239.675 202.017 295.790 201.910 L 351.905 201.803 353.319 200.758 C 358.076 197.241,359.468 195.171,358.511 193.034 C 357.050 189.770,355.763 188.485,352.944 187.476 C 350.557 186.621,239.701 186.523,237.151 187.373 M284.941 234.055 L 239.675 234.265 236.478 235.678 C 234.558 236.527,232.782 237.605,232.034 238.375 L 230.787 239.658 231.033 242.733 C 231.273 245.739,232.258 247.791,233.463 247.791 C 233.641 247.791,235.072 248.355,236.641 249.046 L 239.495 250.300 293.508 250.323 C 352.516 250.348,350.797 250.397,354.193 248.608 C 358.605 246.285,358.644 246.232,358.551 242.729 C 358.459 239.233,358.524 239.345,355.312 237.150 C 350.184 233.646,352.341 233.741,284.941 234.055 M236.851 283.838 C 234.193 285.132,232.858 286.412,231.706 288.766 L 230.795 290.629 231.753 292.925 C 233.017 295.955,233.672 296.597,236.931 298.004 L 239.675 299.188 270.694 299.188 C 298.910 299.188,301.827 299.134,302.976 298.587 C 303.670 298.256,305.005 297.658,305.942 297.259 C 311.860 294.735,310.986 286.412,304.519 283.714 L 302.276 282.777 270.615 282.795 L 238.954 282.813 236.851 283.838 " stroke="none" fill="#e43e5e" fill-rule="evenodd"></path><path id="path1" d="M0.000 180.343 L 0.000 360.685 13.345 360.685 L 26.691 360.685 26.688 359.333 C 26.686 357.834,26.662 357.813,21.677 354.922 C 18.293 352.960,13.329 347.872,11.514 344.504 C 10.805 343.187,9.628 341.081,8.900 339.823 C 7.372 337.182,6.588 333.684,5.411 324.256 C 4.672 318.329,4.669 317.750,4.776 183.769 L 4.884 49.234 5.869 43.823 C 7.287 36.045,7.409 35.679,10.427 30.155 C 13.358 24.790,12.774 25.447,21.312 17.888 C 24.960 14.658,30.342 11.890,35.167 10.762 L 38.774 9.919 197.295 9.826 C 371.269 9.723,358.990 9.574,364.615 11.863 C 379.207 17.801,389.411 31.027,390.664 45.627 C 390.872 48.055,390.965 103.623,390.904 188.819 L 390.803 328.043 389.981 331.908 C 389.011 336.465,387.460 340.330,385.598 342.831 C 384.859 343.823,383.803 345.410,383.251 346.358 C 382.698 347.306,381.295 348.909,380.132 349.921 C 378.969 350.932,377.933 352.023,377.830 352.345 C 377.652 352.901,376.980 353.389,372.137 356.483 C 370.180 357.732,370.063 357.888,370.063 359.246 L 370.063 360.685 385.032 360.685 L 400.000 360.685 400.000 180.343 L 400.000 0.000 200.000 0.000 L 0.000 0.000 0.000 180.343 M40.858 43.913 C 38.222 47.694,38.161 47.904,38.927 50.582 C 40.249 55.205,41.110 55.972,45.285 56.249 L 48.356 56.453 49.625 55.154 C 52.056 52.664,52.734 47.967,51.039 45.355 C 48.901 42.060,48.538 41.839,45.251 41.839 L 42.305 41.839 40.858 43.913 M75.258 42.582 C 74.731 42.997,73.546 44.391,72.626 45.681 L 70.953 48.026 71.402 49.892 C 72.574 54.766,74.775 56.682,78.363 55.951 C 84.290 54.744,86.098 48.947,82.117 43.916 C 80.913 42.394,76.570 41.550,75.258 42.582 M107.357 43.654 C 104.566 45.520,102.900 47.560,103.094 48.872 C 103.750 53.294,104.817 54.636,108.790 56.038 C 111.623 57.038,114.621 54.586,115.810 50.300 L 116.454 47.976 115.027 46.170 C 114.242 45.177,113.481 44.361,113.337 44.356 C 113.193 44.351,112.448 43.783,111.682 43.094 C 109.996 41.575,110.577 41.500,107.357 43.654 M24.610 90.351 C 23.961 90.633,22.946 91.393,22.355 92.041 L 21.280 93.218 21.292 205.761 C 21.300 276.135,21.435 319.251,21.653 320.830 C 21.844 322.218,22.151 324.896,22.334 326.781 C 22.921 332.834,24.012 334.907,29.020 339.475 C 33.108 343.204,34.355 343.876,39.466 345.103 C 42.901 345.929,349.580 346.066,354.914 345.245 C 360.803 344.339,362.644 343.532,366.087 340.353 C 370.464 336.311,370.519 336.239,371.836 332.884 C 372.492 331.213,373.573 328.467,374.239 326.781 C 376.276 321.619,376.190 326.977,376.184 206.132 C 376.179 99.718,376.143 93.192,375.556 92.444 C 375.213 92.008,374.121 91.278,373.129 90.821 L 371.326 89.991 198.557 89.914 C 49.803 89.848,25.625 89.909,24.610 90.351 M150.159 123.168 C 157.854 123.949,161.955 125.051,163.330 126.708 C 163.567 126.994,164.788 127.733,166.042 128.350 C 167.296 128.968,168.830 130.003,169.452 130.652 C 172.266 133.587,174.084 135.924,174.717 137.421 C 175.550 139.390,176.897 142.205,177.824 143.913 C 179.926 147.788,179.682 153.585,177.269 157.105 C 173.599 162.459,171.730 170.393,173.416 173.467 C 173.804 174.174,174.569 176.132,175.117 177.818 C 175.665 179.504,176.344 181.342,176.627 181.901 C 177.743 184.108,178.255 188.781,177.641 191.150 C 177.333 192.339,176.848 195.060,176.564 197.197 C 175.525 205.000,174.757 207.145,172.071 209.751 C 171.066 210.726,170.243 211.710,170.243 211.938 C 170.243 212.714,168.705 215.865,167.131 218.312 C 166.267 219.655,164.996 222.374,164.306 224.356 C 162.750 228.826,162.584 229.137,160.515 231.467 C 159.401 232.720,158.616 234.057,158.185 235.434 C 157.827 236.577,157.298 237.972,157.010 238.536 C 156.076 240.358,158.189 241.893,163.546 243.285 C 165.475 243.786,168.055 244.663,169.280 245.234 C 172.657 246.809,175.085 247.425,179.441 247.815 C 183.547 248.183,185.440 248.855,188.114 250.894 C 188.719 251.355,190.748 252.450,192.623 253.328 C 194.862 254.376,196.661 255.526,197.865 256.678 C 198.873 257.642,200.496 259.168,201.472 260.069 C 205.470 263.760,207.016 265.895,209.558 271.235 C 210.361 272.922,211.562 275.343,212.228 276.616 C 213.194 278.466,213.519 279.647,213.842 282.490 C 214.893 291.733,213.847 294.840,208.760 297.579 L 205.771 299.188 127.026 299.289 L 48.281 299.391 45.331 298.611 C 40.329 297.288,37.230 292.935,37.680 287.866 C 38.319 280.664,40.199 273.857,42.342 270.990 C 43.205 269.836,44.364 267.917,44.918 266.727 C 46.033 264.332,54.686 255.395,57.035 254.212 C 57.704 253.875,59.306 253.101,60.595 252.492 C 61.885 251.882,63.830 250.816,64.918 250.122 C 67.377 248.553,68.547 248.207,72.840 247.777 C 76.939 247.366,79.829 246.661,82.141 245.509 C 83.086 245.038,86.015 243.973,88.649 243.142 C 91.944 242.102,93.764 241.326,94.484 240.653 L 95.529 239.675 94.655 236.814 C 94.047 234.826,93.440 233.621,92.665 232.863 C 91.579 231.801,89.819 228.691,89.274 226.871 C 88.357 223.811,82.279 212.647,80.143 210.099 C 79.478 209.306,78.256 207.308,77.429 205.659 C 76.601 204.010,75.656 202.144,75.329 201.511 C 74.228 199.384,73.360 189.545,73.880 185.075 C 74.193 182.382,74.507 181.513,76.753 177.116 L 79.274 172.179 79.436 163.547 C 79.678 150.651,81.564 145.130,87.893 138.788 C 90.684 135.991,91.779 135.280,95.762 133.680 C 96.952 133.202,99.225 132.237,100.812 131.537 C 103.261 130.456,104.595 130.149,109.631 129.509 C 116.529 128.633,118.393 128.138,122.813 126.009 C 126.539 124.214,140.180 121.981,144.094 122.525 C 144.491 122.581,147.220 122.870,150.159 123.168 M350.009 138.847 C 352.202 139.130,352.859 139.416,355.544 141.259 L 358.591 143.350 358.338 146.066 C 358.017 149.521,357.914 149.693,354.917 151.798 C 350.421 154.955,353.803 154.799,292.696 154.667 L 239.675 154.554 236.798 153.186 C 232.393 151.094,231.935 150.462,231.372 145.703 C 231.052 143.006,232.290 141.559,236.429 139.787 L 239.315 138.551 293.417 138.539 C 323.174 138.532,348.640 138.671,350.009 138.847 M352.944 187.476 C 355.763 188.485,357.050 189.770,358.511 193.034 C 359.468 195.171,358.076 197.241,353.319 200.758 L 351.905 201.803 295.790 201.910 L 239.675 202.017 237.234 201.064 C 234.475 199.987,232.994 198.686,231.764 196.259 L 230.918 194.590 231.730 192.349 C 232.809 189.368,233.533 188.333,234.721 188.072 C 235.264 187.952,236.357 187.637,237.151 187.373 C 239.701 186.523,350.557 186.621,352.944 187.476 M350.203 234.800 C 352.663 235.433,356.935 237.838,358.107 239.250 C 359.070 240.411,358.691 245.723,357.585 246.571 C 352.334 250.597,356.545 250.350,293.508 250.323 L 239.495 250.300 236.641 249.046 C 235.072 248.355,233.641 247.791,233.463 247.791 C 232.258 247.791,231.273 245.739,231.033 242.733 L 230.787 239.658 232.034 238.375 C 232.782 237.605,234.558 236.527,236.478 235.678 L 239.675 234.265 284.941 234.055 C 340.462 233.797,346.572 233.866,350.203 234.800 M304.519 283.714 C 310.986 286.412,311.860 294.735,305.942 297.259 C 305.005 297.658,303.670 298.256,302.976 298.587 C 301.827 299.134,298.910 299.188,270.694 299.188 L 239.675 299.188 236.931 298.004 C 233.672 296.597,233.017 295.955,231.753 292.925 L 230.795 290.629 231.706 288.766 C 232.858 286.412,234.193 285.132,236.851 283.838 L 238.954 282.813 270.615 282.795 L 302.276 282.777 304.519 283.714 " stroke="none" fill="#ffffff" fill-rule="evenodd"></path></g></svg>