<svg id="svg" version="1.1" xmlns="http://www.w3.org/2000/svg" xmlns:xlink="http://www.w3.org/1999/xlink" width="400" height="400" viewBox="0, 0, 400,400"><g id="svgg"><path id="path0" d="M170.400 9.061 C 167.811 9.308,164.605 10.163,163.927 10.789 C 163.047 11.600,160.641 12.224,156.200 12.793 C 153.757 13.106,151.764 13.649,150.000 14.480 C 146.998 15.895,143.724 16.765,141.324 16.786 C 140.402 16.794,139.536 16.980,139.400 17.200 C 139.264 17.420,138.803 17.600,138.376 17.600 C 137.949 17.600,137.599 17.735,137.597 17.900 C 137.593 18.396,135.202 19.600,134.221 19.600 C 132.707 19.600,126.410 21.839,123.045 23.574 C 121.309 24.468,119.617 25.200,119.285 25.200 C 118.504 25.200,114.400 27.203,114.400 27.584 C 114.400 27.863,112.672 28.764,109.500 30.137 C 108.675 30.495,108.000 30.944,108.000 31.136 C 108.000 31.328,106.425 32.263,104.500 33.214 C 102.575 34.165,100.460 35.327,99.800 35.796 C 99.140 36.264,97.778 37.053,96.774 37.549 C 95.769 38.044,94.329 38.979,93.574 39.626 C 92.818 40.272,91.476 41.143,90.591 41.560 C 89.706 41.977,88.570 42.856,88.066 43.514 C 87.562 44.171,86.262 45.314,85.176 46.054 C 84.090 46.794,83.201 47.522,83.201 47.672 C 83.200 47.821,82.553 48.629,81.763 49.466 C 78.861 52.544,78.843 52.502,85.762 59.200 C 86.330 59.750,87.921 61.402,89.297 62.872 C 93.468 67.325,96.604 70.477,99.376 73.000 C 100.827 74.320,102.814 76.165,103.792 77.100 C 105.990 79.201,107.330 79.327,109.137 77.600 C 109.828 76.940,110.475 76.400,110.575 76.400 C 110.939 76.400,115.819 73.427,116.507 72.786 C 116.895 72.424,117.705 71.878,118.307 71.571 C 119.584 70.922,122.510 69.107,122.800 68.786 C 123.243 68.295,125.887 66.915,126.846 66.675 C 127.407 66.533,128.524 65.896,129.327 65.258 C 130.129 64.621,131.824 63.699,133.093 63.210 C 136.456 61.915,137.131 61.553,138.356 60.382 C 139.046 59.722,140.499 59.057,142.230 58.606 C 143.754 58.210,145.732 57.473,146.628 56.968 C 147.523 56.464,149.413 55.769,150.828 55.424 C 152.242 55.079,154.390 54.508,155.600 54.156 C 156.810 53.803,158.970 53.271,160.400 52.972 C 161.830 52.673,163.630 52.226,164.400 51.977 C 167.365 51.021,174.503 49.623,176.497 49.608 C 180.140 49.581,180.481 47.590,180.326 27.265 L 180.200 10.730 179.078 9.765 C 177.945 8.791,175.404 8.585,170.400 9.061 M220.673 9.174 C 217.665 9.783,217.814 8.868,217.684 27.574 L 217.567 44.320 218.534 46.060 C 219.858 48.445,221.640 49.600,223.994 49.600 C 225.956 49.600,232.820 50.545,234.200 51.006 C 234.640 51.152,235.360 51.418,235.800 51.596 C 237.837 52.419,239.178 52.799,241.402 53.184 C 242.723 53.413,244.433 53.791,245.202 54.024 C 248.078 54.898,250.859 55.600,251.443 55.600 C 251.775 55.600,252.711 56.123,253.523 56.762 C 254.336 57.401,255.630 58.046,256.400 58.195 C 259.055 58.709,260.606 59.365,262.600 60.817 C 263.700 61.619,265.655 62.596,266.944 62.989 C 268.234 63.381,269.854 64.179,270.544 64.762 C 271.235 65.344,272.295 66.041,272.900 66.310 C 273.505 66.580,274.495 67.017,275.100 67.282 C 275.705 67.547,277.280 68.504,278.600 69.408 C 279.920 70.312,281.634 71.344,282.410 71.702 C 283.185 72.059,284.344 72.803,284.986 73.354 C 285.627 73.905,286.789 74.681,287.568 75.078 C 288.347 75.475,289.528 76.307,290.192 76.927 C 290.857 77.548,292.390 78.742,293.600 79.583 C 294.810 80.423,296.236 81.581,296.770 82.155 C 297.303 82.730,297.899 83.200,298.093 83.200 C 298.790 83.200,305.843 90.093,310.600 95.422 C 314.917 100.259,316.573 102.069,318.402 103.948 C 319.393 104.967,320.453 106.285,320.757 106.877 C 321.062 107.470,322.006 108.723,322.855 109.661 C 323.705 110.600,324.400 111.600,324.400 111.884 C 324.400 112.168,324.568 112.400,324.773 112.400 C 324.978 112.400,325.272 112.805,325.427 113.300 C 325.581 113.795,325.819 114.290,325.954 114.400 C 326.515 114.856,328.154 117.424,329.482 119.927 C 330.262 121.397,331.390 123.320,331.989 124.200 C 332.589 125.080,333.201 126.300,333.350 126.910 C 333.498 127.521,334.244 128.711,335.007 129.555 C 335.808 130.442,336.662 132.001,337.028 133.245 C 337.377 134.430,338.352 136.840,339.195 138.600 C 340.038 140.360,341.030 142.790,341.400 144.000 C 341.769 145.210,342.216 146.560,342.392 147.000 C 342.568 147.440,342.928 148.610,343.193 149.600 C 343.458 150.590,344.176 152.480,344.789 153.800 C 345.401 155.120,346.009 157.190,346.140 158.400 C 346.678 163.398,347.173 165.524,348.329 167.801 C 349.812 170.723,350.136 173.569,350.845 189.955 C 351.226 198.740,351.231 202.453,350.867 206.355 C 350.608 209.130,350.397 213.322,350.398 215.671 C 350.401 222.533,349.530 227.827,347.940 230.600 C 347.562 231.260,346.961 233.600,346.604 235.800 C 345.966 239.738,345.473 241.824,344.811 243.400 C 343.816 245.767,343.037 248.115,342.358 250.800 C 341.096 255.786,340.691 256.964,339.957 257.800 C 339.168 258.698,337.873 261.581,337.442 263.400 C 337.138 264.680,334.802 268.398,334.300 268.399 C 334.135 268.400,334.000 268.582,334.000 268.804 C 334.000 269.543,332.268 272.982,331.304 274.157 C 330.783 274.793,329.890 276.233,329.322 277.357 C 328.753 278.481,327.712 280.074,327.008 280.897 C 326.304 281.720,325.524 283.070,325.274 283.897 C 325.025 284.724,324.406 285.850,323.899 286.400 C 323.392 286.950,322.551 288.030,322.030 288.800 C 321.509 289.570,320.254 291.034,319.241 292.054 C 316.349 294.966,313.200 298.668,313.200 299.155 C 313.200 299.400,313.062 299.600,312.893 299.600 C 312.724 299.600,312.314 300.047,311.982 300.594 C 310.861 302.442,303.657 310.118,301.278 312.000 C 300.861 312.330,299.670 313.320,298.632 314.200 C 297.595 315.080,296.370 316.115,295.911 316.500 C 295.453 316.885,294.950 317.200,294.793 317.200 C 294.636 317.200,293.899 317.749,293.154 318.419 C 292.409 319.089,290.990 320.207,290.000 320.903 C 289.010 321.598,287.412 322.767,286.448 323.500 C 285.484 324.233,284.079 325.091,283.325 325.406 C 282.571 325.720,281.377 326.568,280.672 327.289 C 279.967 328.010,278.506 329.049,277.427 329.598 C 276.347 330.147,274.836 331.094,274.070 331.703 C 273.304 332.312,271.981 332.922,271.130 333.058 C 270.279 333.194,269.486 333.461,269.368 333.653 C 269.249 333.844,268.803 334.000,268.376 334.000 C 267.949 334.000,267.600 334.135,267.600 334.300 C 267.599 334.740,263.800 336.800,262.989 336.800 C 262.043 336.800,255.570 339.037,252.474 340.434 C 251.084 341.061,249.284 341.679,248.474 341.807 C 245.497 342.279,243.360 342.979,241.712 344.019 C 240.060 345.063,238.464 345.474,232.400 346.418 C 230.750 346.674,228.050 347.467,226.400 348.179 C 224.750 348.890,222.525 349.726,221.455 350.036 C 220.385 350.346,219.069 351.040,218.531 351.579 L 217.552 352.557 217.676 368.818 C 217.778 382.144,217.903 385.202,218.368 385.762 C 219.728 387.399,223.177 388.005,226.600 387.208 C 227.480 387.003,230.720 386.630,233.800 386.378 C 238.252 386.014,240.247 385.641,243.533 384.560 C 246.196 383.684,248.473 383.194,249.933 383.182 C 252.884 383.159,255.283 382.478,258.000 380.892 C 259.210 380.185,260.532 379.606,260.938 379.604 C 262.493 379.596,266.069 378.295,266.945 377.419 C 268.224 376.140,269.097 375.746,271.400 375.412 C 272.500 375.252,274.030 374.806,274.800 374.420 C 275.570 374.034,277.010 373.307,278.000 372.803 C 278.990 372.299,280.160 371.752,280.600 371.588 C 283.154 370.635,286.744 368.985,287.662 368.343 C 288.246 367.934,288.915 367.600,289.150 367.600 C 289.771 367.600,292.223 366.167,295.039 364.157 C 296.393 363.191,297.724 362.400,297.995 362.400 C 298.266 362.400,299.270 361.607,300.226 360.637 C 301.182 359.667,302.648 358.655,303.482 358.387 C 304.913 357.929,306.841 356.701,308.085 355.458 C 308.390 355.153,309.185 354.621,309.853 354.276 C 310.520 353.931,311.832 353.009,312.769 352.226 C 313.705 351.444,315.040 350.533,315.736 350.202 C 316.431 349.871,317.630 349.047,318.400 348.372 C 319.170 347.697,320.430 346.664,321.200 346.076 C 321.970 345.489,323.596 344.017,324.813 342.804 C 327.240 340.387,333.498 334.667,335.103 333.400 C 335.660 332.960,336.315 332.350,336.558 332.044 C 336.801 331.739,337.945 330.492,339.100 329.274 C 340.255 328.057,341.200 326.936,341.200 326.784 C 341.200 326.632,342.145 325.512,343.300 324.295 C 346.417 321.012,349.288 317.629,350.680 315.600 C 351.359 314.610,352.384 313.364,352.958 312.830 C 353.531 312.297,354.000 311.622,354.000 311.330 C 354.000 311.039,354.180 310.800,354.400 310.800 C 354.620 310.800,354.800 310.545,354.800 310.232 C 354.800 309.920,355.439 309.065,356.221 308.332 C 357.002 307.600,358.001 306.190,358.439 305.200 C 358.878 304.210,359.768 302.736,360.418 301.923 C 361.068 301.111,361.600 300.256,361.600 300.023 C 361.600 299.791,361.780 299.600,362.000 299.600 C 362.220 299.600,362.400 299.317,362.400 298.971 C 362.400 298.209,364.203 295.061,365.035 294.371 C 365.595 293.906,367.600 289.930,367.600 289.284 C 367.600 289.123,368.227 288.273,368.992 287.396 C 369.758 286.518,370.388 285.530,370.392 285.201 C 370.397 284.872,371.324 282.712,372.453 280.401 C 374.885 275.425,374.942 275.288,375.826 272.200 C 376.204 270.880,376.948 269.031,377.478 268.092 C 378.639 266.037,379.588 263.043,379.599 261.400 C 379.604 260.740,380.185 259.210,380.891 258.000 C 382.522 255.205,383.185 253.367,383.200 251.600 C 383.217 249.711,384.154 245.843,384.867 244.715 C 385.999 242.929,386.757 240.148,387.191 236.200 C 387.747 231.140,388.307 227.796,389.237 223.997 C 391.091 216.422,391.375 182.599,389.641 176.000 C 388.619 172.111,387.773 166.956,387.180 161.000 C 386.762 156.796,386.336 155.221,384.920 152.640 C 384.249 151.416,383.201 146.570,383.200 144.684 C 383.200 143.640,381.841 140.445,381.208 140.000 C 380.855 139.752,379.825 136.194,379.182 133.000 C 378.916 131.680,378.197 129.869,377.583 128.976 C 376.969 128.084,376.165 126.284,375.795 124.976 C 374.575 120.656,373.966 119.016,373.057 117.600 C 372.074 116.067,370.400 112.174,370.400 111.419 C 370.400 111.158,369.799 110.237,369.064 109.372 C 368.330 108.507,367.240 106.810,366.643 105.600 C 366.046 104.390,365.328 103.220,365.047 103.000 C 364.767 102.780,363.789 101.160,362.875 99.400 C 361.960 97.640,360.798 95.750,360.292 95.200 C 359.787 94.650,359.042 93.480,358.637 92.600 C 358.232 91.720,357.203 90.083,356.350 88.963 C 355.498 87.843,354.800 86.742,354.800 86.517 C 354.800 86.292,353.810 85.077,352.600 83.818 C 351.390 82.558,350.400 81.354,350.400 81.141 C 350.400 80.927,349.666 79.970,348.769 79.013 C 347.873 78.057,346.826 76.691,346.444 75.979 C 346.062 75.266,344.861 73.689,343.775 72.473 C 342.689 71.258,340.673 68.989,339.296 67.432 C 337.919 65.874,336.659 64.478,336.496 64.330 C 336.333 64.181,334.879 62.786,333.264 61.230 C 331.649 59.673,330.176 58.400,329.991 58.400 C 329.805 58.400,328.772 57.545,327.695 56.500 C 326.618 55.455,325.234 54.240,324.618 53.800 C 324.003 53.360,323.114 52.629,322.644 52.176 C 322.173 51.723,320.855 50.827,319.713 50.186 C 318.572 49.544,317.441 48.655,317.199 48.210 C 316.957 47.764,315.863 46.865,314.768 46.210 C 313.672 45.556,312.143 44.423,311.369 43.693 C 310.595 42.963,309.565 42.194,309.081 41.984 C 307.886 41.466,306.839 40.774,305.625 39.700 C 305.066 39.205,304.484 38.800,304.333 38.800 C 304.181 38.800,303.819 38.575,303.529 38.300 C 303.238 38.025,302.460 37.535,301.800 37.212 C 301.140 36.889,299.661 36.040,298.513 35.326 C 297.366 34.611,295.554 33.585,294.488 33.045 C 293.422 32.504,292.307 31.769,292.009 31.411 C 291.712 31.053,290.644 30.390,289.635 29.938 C 285.897 28.262,285.376 27.981,284.289 27.044 C 283.191 26.099,282.524 25.794,279.400 24.805 C 278.520 24.527,276.360 23.610,274.600 22.768 C 271.122 21.104,266.766 19.600,265.423 19.600 C 264.958 19.600,264.162 19.309,263.654 18.953 C 262.393 18.070,258.833 16.800,257.617 16.800 C 256.273 16.800,251.200 15.175,251.200 14.744 C 251.200 14.555,250.975 14.399,250.700 14.398 C 250.425 14.396,249.745 14.157,249.188 13.867 C 248.632 13.577,245.932 13.108,243.188 12.826 C 238.151 12.308,235.521 11.743,233.116 10.661 C 229.998 9.259,223.870 8.526,220.673 9.174 M50.963 80.086 C 50.323 80.581,49.730 81.153,49.645 81.359 C 49.559 81.564,48.659 82.563,47.645 83.579 C 45.450 85.777,42.337 90.044,41.332 92.232 C 40.936 93.094,39.934 94.590,39.106 95.556 C 38.278 96.522,37.600 97.477,37.600 97.678 C 37.600 97.878,36.815 99.248,35.855 100.721 C 34.895 102.195,33.628 104.300,33.039 105.400 C 32.450 106.500,31.473 108.120,30.868 109.000 C 30.262 109.880,29.526 111.306,29.233 112.168 C 28.939 113.030,28.181 114.614,27.548 115.688 C 26.915 116.761,25.747 119.566,24.952 121.920 C 24.157 124.274,23.206 126.650,22.839 127.200 C 21.556 129.120,20.400 132.259,20.400 133.819 C 20.400 134.315,19.797 135.616,19.060 136.711 C 17.670 138.776,16.800 141.435,16.800 143.617 C 16.800 144.312,16.047 146.437,15.127 148.340 C 13.901 150.875,13.374 152.548,13.156 154.600 C 12.719 158.704,12.135 161.819,11.169 165.200 C 10.210 168.557,9.484 176.444,10.008 177.820 C 10.205 178.340,11.260 179.162,12.523 179.780 L 14.698 180.844 30.049 180.697 C 50.152 180.505,49.331 180.824,50.186 172.873 C 50.649 168.562,51.572 164.837,52.445 163.757 C 52.813 163.302,53.443 160.627,53.849 157.800 C 54.094 156.090,55.266 152.416,56.401 149.800 C 56.783 148.920,57.291 147.480,57.531 146.600 C 58.929 141.462,59.720 139.209,60.561 137.972 C 61.080 137.208,61.920 135.327,62.429 133.791 C 62.953 132.207,63.897 130.394,64.611 129.600 C 65.705 128.383,67.600 124.547,67.600 123.550 C 67.600 123.361,67.949 122.800,68.376 122.303 C 70.797 119.487,71.199 118.970,71.200 118.672 C 71.200 118.237,73.663 114.637,74.077 114.467 C 74.255 114.393,74.400 114.078,74.400 113.767 C 74.400 113.455,74.580 113.200,74.800 113.200 C 75.020 113.200,75.200 112.963,75.200 112.674 C 75.200 112.385,76.028 110.914,77.041 109.404 C 80.087 104.862,79.627 104.132,64.600 89.634 C 62.173 87.293,55.102 80.775,54.309 80.149 C 53.103 79.195,52.137 79.177,50.963 80.086 M146.800 133.698 C 144.388 134.658,143.638 135.237,139.402 139.407 C 135.317 143.428,134.880 144.001,134.412 145.951 L 133.899 148.087 137.450 151.410 C 139.402 153.238,141.180 154.945,141.400 155.203 C 142.595 156.607,144.453 158.400,144.713 158.400 C 144.877 158.400,145.456 159.120,146.000 160.000 C 146.544 160.880,147.121 161.600,147.282 161.600 C 147.519 161.600,156.335 169.984,157.800 171.604 C 158.020 171.847,159.010 172.839,160.000 173.808 C 160.990 174.776,161.980 175.772,162.200 176.021 C 162.806 176.705,172.968 186.848,174.265 188.063 C 174.889 188.648,175.850 189.679,176.400 190.354 C 176.950 191.029,177.676 191.675,178.013 191.790 C 178.351 191.905,178.930 192.512,179.301 193.140 C 179.671 193.767,180.700 195.006,181.587 195.893 C 183.973 198.279,183.791 198.616,176.056 206.137 C 174.436 207.712,172.726 209.417,172.256 209.928 C 171.785 210.438,169.690 212.552,167.600 214.625 C 165.510 216.698,163.641 218.552,163.448 218.745 C 163.254 218.937,161.661 220.514,159.908 222.248 C 158.155 223.981,156.334 225.817,155.861 226.328 C 155.145 227.099,148.135 234.100,147.080 235.097 C 145.853 236.256,143.737 238.383,142.853 239.345 C 142.274 239.975,140.108 242.186,138.040 244.260 C 134.492 247.817,134.269 248.139,134.093 249.975 L 133.906 251.920 138.353 256.318 C 140.799 258.737,142.800 260.890,142.800 261.103 C 142.800 261.716,147.525 263.678,148.360 263.413 C 148.930 263.232,157.253 255.130,164.600 247.605 C 164.820 247.380,168.510 243.693,172.800 239.412 C 177.090 235.131,180.780 231.444,181.000 231.217 C 190.761 221.177,198.793 213.725,198.803 214.700 C 198.807 215.054,200.739 216.000,201.458 216.000 C 201.896 216.000,206.558 220.095,207.757 221.532 C 208.000 221.824,209.010 222.852,210.000 223.816 C 210.990 224.780,211.980 225.766,212.200 226.006 C 212.420 226.246,216.110 229.941,220.400 234.217 C 224.690 238.493,228.380 242.186,228.600 242.422 C 229.434 243.319,239.147 253.058,240.443 254.297 C 243.321 257.048,245.128 258.924,246.854 260.958 C 247.628 261.870,248.513 262.340,250.182 262.727 L 252.456 263.254 257.828 257.823 L 263.200 252.392 263.200 250.156 C 263.200 247.585,263.064 247.416,253.624 238.238 C 250.887 235.577,247.107 231.793,245.224 229.829 C 243.341 227.865,240.212 224.715,238.272 222.829 C 236.331 220.943,232.641 217.267,230.072 214.661 C 219.802 204.242,218.341 202.800,218.055 202.800 C 217.891 202.800,217.317 201.903,216.779 200.806 C 216.240 199.710,215.665 198.810,215.500 198.806 C 214.163 198.779,216.974 195.320,224.345 187.922 C 227.785 184.469,230.804 181.433,231.053 181.175 C 231.302 180.917,235.040 177.172,239.359 172.853 C 243.678 168.534,247.344 164.866,247.506 164.702 C 247.668 164.539,251.445 160.793,255.900 156.378 C 260.355 151.964,263.998 148.048,263.996 147.676 C 263.976 144.638,254.637 133.200,252.176 133.200 C 250.402 133.200,247.766 134.321,246.639 135.554 C 245.957 136.300,245.051 137.200,244.624 137.555 C 244.197 137.910,243.387 138.728,242.824 139.372 C 242.261 140.017,241.377 140.917,240.860 141.372 C 240.342 141.828,239.622 142.534,239.260 142.943 C 238.384 143.928,231.887 150.422,230.943 151.255 C 230.534 151.615,228.625 153.505,226.699 155.455 C 224.774 157.405,223.017 159.180,222.794 159.400 C 222.572 159.620,220.504 161.690,218.198 164.000 C 215.892 166.310,213.820 168.380,213.593 168.600 C 213.366 168.820,211.846 170.350,210.216 172.000 C 208.585 173.650,206.835 175.376,206.326 175.837 C 205.817 176.297,204.860 177.303,204.200 178.072 C 203.540 178.841,202.460 179.813,201.800 180.232 C 201.140 180.651,200.251 181.310,199.825 181.697 C 198.516 182.883,197.721 182.515,194.706 179.331 C 193.108 177.644,190.212 174.719,188.272 172.831 C 186.331 170.944,182.695 167.330,180.192 164.800 C 177.688 162.270,174.216 158.760,172.476 157.000 C 170.735 155.240,166.991 151.503,164.155 148.695 C 161.320 145.887,157.452 142.017,155.560 140.095 C 149.402 133.839,148.359 133.077,146.800 133.698 M13.359 217.330 C 9.401 218.829,8.971 222.115,11.492 231.600 C 12.339 234.785,13.183 239.925,13.192 241.951 C 13.197 243.089,13.668 244.698,14.539 246.551 C 16.559 250.849,16.800 251.527,16.802 252.919 C 16.806 254.797,17.556 257.231,18.553 258.600 C 19.633 260.083,20.400 261.807,20.400 262.753 C 20.400 263.875,21.939 268.414,22.999 270.417 C 23.527 271.417,24.520 273.905,25.204 275.948 C 25.888 277.990,26.780 280.253,27.186 280.976 C 28.550 283.404,28.753 283.792,29.761 285.898 C 30.313 287.052,31.088 288.345,31.482 288.772 C 31.877 289.199,32.628 290.685,33.151 292.074 C 33.674 293.463,34.695 295.230,35.420 296.000 C 36.145 296.770,37.187 298.390,37.735 299.600 C 38.284 300.810,39.199 302.340,39.768 303.000 C 40.337 303.660,41.156 304.951,41.589 305.870 C 42.022 306.788,42.788 307.958,43.291 308.470 C 43.795 308.981,44.984 310.693,45.934 312.274 C 46.883 313.854,48.108 315.441,48.655 315.799 C 49.202 316.158,50.257 317.095,50.998 317.881 C 52.201 319.156,52.412 319.245,52.951 318.706 C 53.284 318.374,54.346 317.602,55.311 316.991 C 56.277 316.380,57.450 315.322,57.918 314.640 C 58.387 313.958,60.953 311.240,63.622 308.600 C 66.290 305.960,69.653 302.630,71.095 301.200 C 78.304 294.052,79.958 290.791,77.634 288.314 C 76.956 287.591,75.906 286.010,75.300 284.800 C 74.695 283.590,74.065 282.540,73.900 282.467 C 73.735 282.393,73.600 282.123,73.600 281.865 C 73.600 281.608,73.084 280.910,72.453 280.315 C 71.823 279.720,71.006 278.599,70.639 277.825 C 70.271 277.051,69.446 275.842,68.804 275.140 C 68.162 274.437,67.239 272.858,66.752 271.631 C 66.265 270.404,65.267 268.566,64.534 267.546 C 63.800 266.527,63.200 265.446,63.200 265.144 C 63.200 264.842,62.329 262.796,61.265 260.597 C 58.852 255.611,58.614 254.973,57.645 250.874 C 57.212 249.045,56.608 247.155,56.303 246.674 C 55.580 245.537,54.279 241.036,53.505 237.000 C 53.167 235.240,52.399 232.728,51.797 231.419 C 51.195 230.109,50.628 228.309,50.537 227.419 C 49.737 219.547,49.121 218.132,46.156 217.351 C 43.511 216.654,15.194 216.636,13.359 217.330 M104.550 321.517 C 102.757 322.497,100.354 324.623,93.607 331.200 C 87.112 337.532,83.338 341.042,81.254 342.686 C 78.873 344.565,79.742 348.368,82.927 350.010 C 83.847 350.484,85.050 351.282,85.600 351.783 C 86.150 352.284,87.500 353.211,88.600 353.843 C 89.700 354.475,91.175 355.584,91.877 356.307 C 92.580 357.030,93.762 357.876,94.505 358.186 C 95.248 358.497,96.564 359.385,97.428 360.159 C 98.293 360.934,100.136 362.148,101.525 362.856 C 102.913 363.565,104.206 364.437,104.397 364.794 C 104.588 365.151,105.792 365.936,107.072 366.538 C 108.352 367.141,109.850 367.903,110.400 368.232 C 111.881 369.117,116.363 371.200,116.788 371.200 C 116.991 371.200,118.472 371.878,120.078 372.707 C 121.685 373.536,123.720 374.429,124.600 374.691 C 125.480 374.953,126.880 375.370,127.710 375.618 C 128.541 375.866,129.711 376.478,130.310 376.978 C 131.337 377.835,133.376 378.639,138.332 380.144 C 139.504 380.500,140.963 381.147,141.574 381.582 C 142.185 382.016,143.475 382.548,144.442 382.763 C 145.409 382.978,147.190 383.368,148.400 383.629 C 149.610 383.890,150.780 384.214,151.000 384.349 C 152.066 385.001,154.433 385.627,156.600 385.829 C 157.920 385.953,159.810 386.208,160.800 386.396 C 161.790 386.585,163.770 386.947,165.200 387.200 C 166.630 387.453,168.610 387.816,169.600 388.005 C 170.590 388.195,172.810 388.460,174.534 388.595 L 177.668 388.840 179.034 387.391 L 180.400 385.943 180.400 369.831 C 180.400 349.511,180.654 350.281,173.785 349.809 C 169.940 349.546,167.731 349.037,165.768 347.964 C 165.091 347.593,162.931 346.989,160.968 346.620 C 156.109 345.707,154.070 345.121,153.273 344.405 C 152.076 343.329,149.244 342.227,146.600 341.806 C 144.484 341.470,142.431 340.778,141.200 339.986 C 139.782 339.075,135.954 337.331,133.395 336.432 C 132.197 336.011,130.718 335.323,130.108 334.904 C 129.499 334.485,128.294 333.817,127.431 333.420 C 126.568 333.022,124.557 331.820,122.962 330.749 C 121.366 329.677,119.950 328.800,119.813 328.800 C 119.677 328.800,118.890 328.176,118.065 327.412 C 117.240 326.649,115.679 325.553,114.596 324.977 C 113.512 324.401,112.040 323.415,111.324 322.787 C 109.154 320.882,106.591 320.401,104.550 321.517 " stroke="none" fill="#e44160" fill-rule="evenodd"></path><path id="path1" d="M0.000 200.000 L 0.000 400.000 200.000 400.000 L 400.000 400.000 400.000 200.000 L 400.000 0.000 200.000 0.000 L 0.000 0.000 0.000 200.000 M179.078 9.765 L 180.200 10.730 180.326 27.265 C 180.481 47.590,180.140 49.581,176.497 49.608 C 174.503 49.623,167.365 51.021,164.400 51.977 C 163.630 52.226,161.830 52.673,160.400 52.972 C 158.970 53.271,156.810 53.803,155.600 54.156 C 154.390 54.508,152.242 55.079,150.828 55.424 C 149.413 55.769,147.523 56.464,146.628 56.968 C 145.732 57.473,143.754 58.210,142.230 58.606 C 140.499 59.057,139.046 59.722,138.356 60.382 C 137.131 61.553,136.456 61.915,133.093 63.210 C 131.824 63.699,130.129 64.621,129.327 65.258 C 128.524 65.896,127.407 66.533,126.846 66.675 C 125.887 66.915,123.243 68.295,122.800 68.786 C 122.510 69.107,119.584 70.922,118.307 71.571 C 117.705 71.878,116.895 72.424,116.507 72.786 C 115.819 73.427,110.939 76.400,110.575 76.400 C 110.475 76.400,109.828 76.940,109.137 77.600 C 107.330 79.327,105.990 79.201,103.792 77.100 C 102.814 76.165,100.827 74.320,99.376 73.000 C 96.604 70.477,93.468 67.325,89.297 62.872 C 87.921 61.402,86.330 59.750,85.762 59.200 C 78.843 52.502,78.861 52.544,81.763 49.466 C 82.553 48.629,83.200 47.821,83.201 47.672 C 83.201 47.522,84.090 46.794,85.176 46.054 C 86.262 45.314,87.562 44.171,88.066 43.514 C 88.570 42.856,89.706 41.977,90.591 41.560 C 91.476 41.143,92.818 40.272,93.574 39.626 C 94.329 38.979,95.769 38.044,96.774 37.549 C 97.778 37.053,99.140 36.264,99.800 35.796 C 100.460 35.327,102.575 34.165,104.500 33.214 C 106.425 32.263,108.000 31.328,108.000 31.136 C 108.000 30.944,108.675 30.495,109.500 30.137 C 112.672 28.764,114.400 27.863,114.400 27.584 C 114.400 27.203,118.504 25.200,119.285 25.200 C 119.617 25.200,121.309 24.468,123.045 23.574 C 126.410 21.839,132.707 19.600,134.221 19.600 C 135.202 19.600,137.593 18.396,137.597 17.900 C 137.599 17.735,137.949 17.600,138.376 17.600 C 138.803 17.600,139.264 17.420,139.400 17.200 C 139.536 16.980,140.402 16.794,141.324 16.786 C 143.724 16.765,146.998 15.895,150.000 14.480 C 151.764 13.649,153.757 13.106,156.200 12.793 C 160.641 12.224,163.047 11.600,163.927 10.789 C 166.003 8.875,177.165 8.121,179.078 9.765 M230.400 9.665 C 231.170 9.887,232.392 10.335,233.116 10.661 C 235.521 11.743,238.151 12.308,243.188 12.826 C 245.932 13.108,248.632 13.577,249.188 13.867 C 249.745 14.157,250.425 14.396,250.700 14.398 C 250.975 14.399,251.200 14.555,251.200 14.744 C 251.200 15.175,256.273 16.800,257.617 16.800 C 258.833 16.800,262.393 18.070,263.654 18.953 C 264.162 19.309,264.958 19.600,265.423 19.600 C 266.766 19.600,271.122 21.104,274.600 22.768 C 276.360 23.610,278.520 24.527,279.400 24.805 C 282.524 25.794,283.191 26.099,284.289 27.044 C 285.376 27.981,285.897 28.262,289.635 29.938 C 290.644 30.390,291.712 31.053,292.009 31.411 C 292.307 31.769,293.422 32.504,294.488 33.045 C 295.554 33.585,297.366 34.611,298.513 35.326 C 299.661 36.040,301.140 36.889,301.800 37.212 C 302.460 37.535,303.238 38.025,303.529 38.300 C 303.819 38.575,304.181 38.800,304.333 38.800 C 304.484 38.800,305.066 39.205,305.625 39.700 C 306.839 40.774,307.886 41.466,309.081 41.984 C 309.565 42.194,310.595 42.963,311.369 43.693 C 312.143 44.423,313.672 45.556,314.768 46.210 C 315.863 46.865,316.957 47.764,317.199 48.210 C 317.441 48.655,318.572 49.544,319.713 50.186 C 320.855 50.827,322.173 51.723,322.644 52.176 C 323.114 52.629,324.003 53.360,324.618 53.800 C 325.234 54.240,326.618 55.455,327.695 56.500 C 328.772 57.545,329.805 58.400,329.991 58.400 C 330.176 58.400,331.649 59.673,333.264 61.230 C 334.879 62.786,336.333 64.181,336.496 64.330 C 336.659 64.478,337.919 65.874,339.296 67.432 C 340.673 68.989,342.689 71.258,343.775 72.473 C 344.861 73.689,346.062 75.266,346.444 75.979 C 346.826 76.691,347.873 78.057,348.769 79.013 C 349.666 79.970,350.400 80.927,350.400 81.141 C 350.400 81.354,351.390 82.558,352.600 83.818 C 353.810 85.077,354.800 86.292,354.800 86.517 C 354.800 86.742,355.498 87.843,356.350 88.963 C 357.203 90.083,358.232 91.720,358.637 92.600 C 359.042 93.480,359.787 94.650,360.292 95.200 C 360.798 95.750,361.960 97.640,362.875 99.400 C 363.789 101.160,364.767 102.780,365.047 103.000 C 365.328 103.220,366.046 104.390,366.643 105.600 C 367.240 106.810,368.330 108.507,369.064 109.372 C 369.799 110.237,370.400 111.158,370.400 111.419 C 370.400 112.174,372.074 116.067,373.057 117.600 C 373.966 119.016,374.575 120.656,375.795 124.976 C 376.165 126.284,376.969 128.084,377.583 128.976 C 378.197 129.869,378.916 131.680,379.182 133.000 C 379.825 136.194,380.855 139.752,381.208 140.000 C 381.841 140.445,383.200 143.640,383.200 144.684 C 383.201 146.570,384.249 151.416,384.920 152.640 C 386.336 155.221,386.762 156.796,387.180 161.000 C 387.773 166.956,388.619 172.111,389.641 176.000 C 391.375 182.599,391.091 216.422,389.237 223.997 C 388.307 227.796,387.747 231.140,387.191 236.200 C 386.757 240.148,385.999 242.929,384.867 244.715 C 384.154 245.843,383.217 249.711,383.200 251.600 C 383.185 253.367,382.522 255.205,380.891 258.000 C 380.185 259.210,379.604 260.740,379.599 261.400 C 379.588 263.043,378.639 266.037,377.478 268.092 C 376.948 269.031,376.204 270.880,375.826 272.200 C 374.942 275.288,374.885 275.425,372.453 280.401 C 371.324 282.712,370.397 284.872,370.392 285.201 C 370.388 285.530,369.758 286.518,368.992 287.396 C 368.227 288.273,367.600 289.123,367.600 289.284 C 367.600 289.930,365.595 293.906,365.035 294.371 C 364.203 295.061,362.400 298.209,362.400 298.971 C 362.400 299.317,362.220 299.600,362.000 299.600 C 361.780 299.600,361.600 299.791,361.600 300.023 C 361.600 300.256,361.068 301.111,360.418 301.923 C 359.768 302.736,358.878 304.210,358.439 305.200 C 358.001 306.190,357.002 307.600,356.221 308.332 C 355.439 309.065,354.800 309.920,354.800 310.232 C 354.800 310.545,354.620 310.800,354.400 310.800 C 354.180 310.800,354.000 311.039,354.000 311.330 C 354.000 311.622,353.531 312.297,352.958 312.830 C 352.384 313.364,351.359 314.610,350.680 315.600 C 349.288 317.629,346.417 321.012,343.300 324.295 C 342.145 325.512,341.200 326.632,341.200 326.784 C 341.200 326.936,340.255 328.057,339.100 329.274 C 337.945 330.492,336.801 331.739,336.558 332.044 C 336.315 332.350,335.660 332.960,335.103 333.400 C 333.498 334.667,327.240 340.387,324.813 342.804 C 323.596 344.017,321.970 345.489,321.200 346.076 C 320.430 346.664,319.170 347.697,318.400 348.372 C 317.630 349.047,316.431 349.871,315.736 350.202 C 315.040 350.533,313.705 351.444,312.769 352.226 C 311.832 353.009,310.520 353.931,309.853 354.276 C 309.185 354.621,308.390 355.153,308.085 355.458 C 306.841 356.701,304.913 357.929,303.482 358.387 C 302.648 358.655,301.182 359.667,300.226 360.637 C 299.270 361.607,298.266 362.400,297.995 362.400 C 297.724 362.400,296.393 363.191,295.039 364.157 C 292.223 366.167,289.771 367.600,289.150 367.600 C 288.915 367.600,288.246 367.934,287.662 368.343 C 286.744 368.985,283.154 370.635,280.600 371.588 C 280.160 371.752,278.990 372.299,278.000 372.803 C 277.010 373.307,275.570 374.034,274.800 374.420 C 274.030 374.806,272.500 375.252,271.400 375.412 C 269.097 375.746,268.224 376.140,266.945 377.419 C 266.069 378.295,262.493 379.596,260.938 379.604 C 260.532 379.606,259.210 380.185,258.000 380.892 C 255.283 382.478,252.884 383.159,249.933 383.182 C 248.473 383.194,246.196 383.684,243.533 384.560 C 240.247 385.641,238.252 386.014,233.800 386.378 C 230.720 386.630,227.480 387.003,226.600 387.208 C 223.177 388.005,219.728 387.399,218.368 385.762 C 217.903 385.202,217.778 382.144,217.676 368.818 L 217.552 352.557 218.531 351.579 C 219.069 351.040,220.385 350.346,221.455 350.036 C 222.525 349.726,224.750 348.890,226.400 348.179 C 228.050 347.467,230.750 346.674,232.400 346.418 C 238.464 345.474,240.060 345.063,241.712 344.019 C 243.360 342.979,245.497 342.279,248.474 341.807 C 249.284 341.679,251.084 341.061,252.474 340.434 C 255.570 339.037,262.043 336.800,262.989 336.800 C 263.800 336.800,267.599 334.740,267.600 334.300 C 267.600 334.135,267.949 334.000,268.376 334.000 C 268.803 334.000,269.249 333.844,269.368 333.653 C 269.486 333.461,270.279 333.194,271.130 333.058 C 271.981 332.922,273.304 332.312,274.070 331.703 C 274.836 331.094,276.347 330.147,277.427 329.598 C 278.506 329.049,279.967 328.010,280.672 327.289 C 281.377 326.568,282.571 325.720,283.325 325.406 C 284.079 325.091,285.484 324.233,286.448 323.500 C 287.412 322.767,289.010 321.598,290.000 320.903 C 290.990 320.207,292.409 319.089,293.154 318.419 C 293.899 317.749,294.636 317.200,294.793 317.200 C 294.950 317.200,295.453 316.885,295.911 316.500 C 296.370 316.115,297.595 315.080,298.632 314.200 C 299.670 313.320,300.861 312.330,301.278 312.000 C 303.657 310.118,310.861 302.442,311.982 300.594 C 312.314 300.047,312.724 299.600,312.893 299.600 C 313.062 299.600,313.200 299.400,313.200 299.155 C 313.200 298.668,316.349 294.966,319.241 292.054 C 320.254 291.034,321.509 289.570,322.030 288.800 C 322.551 288.030,323.392 286.950,323.899 286.400 C 324.406 285.850,325.025 284.724,325.274 283.897 C 325.524 283.070,326.304 281.720,327.008 280.897 C 327.712 280.074,328.753 278.481,329.322 277.357 C 329.890 276.233,330.783 274.793,331.304 274.157 C 332.268 272.982,334.000 269.543,334.000 268.804 C 334.000 268.582,334.135 268.400,334.300 268.399 C 334.802 268.398,337.138 264.680,337.442 263.400 C 337.873 261.581,339.168 258.698,339.957 257.800 C 340.691 256.964,341.096 255.786,342.358 250.800 C 343.037 248.115,343.816 245.767,344.811 243.400 C 345.473 241.824,345.966 239.738,346.604 235.800 C 346.961 233.600,347.562 231.260,347.940 230.600 C 349.530 227.827,350.401 222.533,350.398 215.671 C 350.397 213.322,350.608 209.130,350.867 206.355 C 351.231 202.453,351.226 198.740,350.845 189.955 C 350.136 173.569,349.812 170.723,348.329 167.801 C 347.173 165.524,346.678 163.398,346.140 158.400 C 346.009 157.190,345.401 155.120,344.789 153.800 C 344.176 152.480,343.458 150.590,343.193 149.600 C 342.928 148.610,342.568 147.440,342.392 147.000 C 342.216 146.560,341.769 145.210,341.400 144.000 C 341.030 142.790,340.038 140.360,339.195 138.600 C 338.352 136.840,337.377 134.430,337.028 133.245 C 336.662 132.001,335.808 130.442,335.007 129.555 C 334.244 128.711,333.498 127.521,333.350 126.910 C 333.201 126.300,332.589 125.080,331.989 124.200 C 331.390 123.320,330.262 121.397,329.482 119.927 C 328.154 117.424,326.515 114.856,325.954 114.400 C 325.819 114.290,325.581 113.795,325.427 113.300 C 325.272 112.805,324.978 112.400,324.773 112.400 C 324.568 112.400,324.400 112.168,324.400 111.884 C 324.400 111.600,323.705 110.600,322.855 109.661 C 322.006 108.723,321.062 107.470,320.757 106.877 C 320.453 106.285,319.393 104.967,318.402 103.948 C 316.573 102.069,314.917 100.259,310.600 95.422 C 305.843 90.093,298.790 83.200,298.093 83.200 C 297.899 83.200,297.303 82.730,296.770 82.155 C 296.236 81.581,294.810 80.423,293.600 79.583 C 292.390 78.742,290.857 77.548,290.192 76.927 C 289.528 76.307,288.347 75.475,287.568 75.078 C 286.789 74.681,285.627 73.905,284.986 73.354 C 284.344 72.803,283.185 72.059,282.410 71.702 C 281.634 71.344,279.920 70.312,278.600 69.408 C 277.280 68.504,275.705 67.547,275.100 67.282 C 274.495 67.017,273.505 66.580,272.900 66.310 C 272.295 66.041,271.235 65.344,270.544 64.762 C 269.854 64.179,268.234 63.381,266.944 62.989 C 265.655 62.596,263.700 61.619,262.600 60.817 C 260.606 59.365,259.055 58.709,256.400 58.195 C 255.630 58.046,254.336 57.401,253.523 56.762 C 252.711 56.123,251.775 55.600,251.443 55.600 C 250.859 55.600,248.078 54.898,245.202 54.024 C 244.433 53.791,242.723 53.413,241.402 53.184 C 239.178 52.799,237.837 52.419,235.800 51.596 C 235.360 51.418,234.640 51.152,234.200 51.006 C 232.820 50.545,225.956 49.600,223.994 49.600 C 221.640 49.600,219.858 48.445,218.534 46.060 L 217.567 44.320 217.684 27.574 C 217.814 8.868,217.665 9.783,220.673 9.174 C 222.510 8.802,228.450 9.101,230.400 9.665 M54.309 80.149 C 55.102 80.775,62.173 87.293,64.600 89.634 C 79.627 104.132,80.087 104.862,77.041 109.404 C 76.028 110.914,75.200 112.385,75.200 112.674 C 75.200 112.963,75.020 113.200,74.800 113.200 C 74.580 113.200,74.400 113.455,74.400 113.767 C 74.400 114.078,74.255 114.393,74.077 114.467 C 73.663 114.637,71.200 118.237,71.200 118.672 C 71.199 118.970,70.797 119.487,68.376 122.303 C 67.949 122.800,67.600 123.361,67.600 123.550 C 67.600 124.547,65.705 128.383,64.611 129.600 C 63.897 130.394,62.953 132.207,62.429 133.791 C 61.920 135.327,61.080 137.208,60.561 137.972 C 59.720 139.209,58.929 141.462,57.531 146.600 C 57.291 147.480,56.783 148.920,56.401 149.800 C 55.266 152.416,54.094 156.090,53.849 157.800 C 53.443 160.627,52.813 163.302,52.445 163.757 C 51.572 164.837,50.649 168.562,50.186 172.873 C 49.331 180.824,50.152 180.505,30.049 180.697 L 14.698 180.844 12.523 179.780 C 11.260 179.162,10.205 178.340,10.008 177.820 C 9.484 176.444,10.210 168.557,11.169 165.200 C 12.135 161.819,12.719 158.704,13.156 154.600 C 13.374 152.548,13.901 150.875,15.127 148.340 C 16.047 146.437,16.800 144.312,16.800 143.617 C 16.800 141.435,17.670 138.776,19.060 136.711 C 19.797 135.616,20.400 134.315,20.400 133.819 C 20.400 132.259,21.556 129.120,22.839 127.200 C 23.206 126.650,24.157 124.274,24.952 121.920 C 25.747 119.566,26.915 116.761,27.548 115.688 C 28.181 114.614,28.939 113.030,29.233 112.168 C 29.526 111.306,30.262 109.880,30.868 109.000 C 31.473 108.120,32.450 106.500,33.039 105.400 C 33.628 104.300,34.895 102.195,35.855 100.721 C 36.815 99.248,37.600 97.878,37.600 97.678 C 37.600 97.477,38.278 96.522,39.106 95.556 C 39.934 94.590,40.936 93.094,41.332 92.232 C 42.337 90.044,45.450 85.777,47.645 83.579 C 48.659 82.563,49.559 81.564,49.645 81.359 C 50.360 79.639,52.848 78.994,54.309 80.149 M150.665 135.316 C 151.465 136.022,153.668 138.173,155.560 140.095 C 157.452 142.017,161.320 145.887,164.155 148.695 C 166.991 151.503,170.735 155.240,172.476 157.000 C 174.216 158.760,177.688 162.270,180.192 164.800 C 182.695 167.330,186.331 170.944,188.272 172.831 C 190.212 174.719,193.108 177.644,194.706 179.331 C 197.721 182.515,198.516 182.883,199.825 181.697 C 200.251 181.310,201.140 180.651,201.800 180.232 C 202.460 179.813,203.540 178.841,204.200 178.072 C 204.860 177.303,205.817 176.297,206.326 175.837 C 206.835 175.376,208.585 173.650,210.216 172.000 C 211.846 170.350,213.366 168.820,213.593 168.600 C 213.820 168.380,215.892 166.310,218.198 164.000 C 220.504 161.690,222.572 159.620,222.794 159.400 C 223.017 159.180,224.774 157.405,226.699 155.455 C 228.625 153.505,230.534 151.615,230.943 151.255 C 231.887 150.422,238.384 143.928,239.260 142.943 C 239.622 142.534,240.342 141.828,240.860 141.372 C 241.377 140.917,242.261 140.017,242.824 139.372 C 243.387 138.728,244.197 137.910,244.624 137.555 C 245.051 137.200,245.957 136.300,246.639 135.554 C 247.766 134.321,250.402 133.200,252.176 133.200 C 254.637 133.200,263.976 144.638,263.996 147.676 C 263.998 148.048,260.355 151.964,255.900 156.378 C 251.445 160.793,247.668 164.539,247.506 164.702 C 247.344 164.866,243.678 168.534,239.359 172.853 C 235.040 177.172,231.302 180.917,231.053 181.175 C 230.804 181.433,227.785 184.469,224.345 187.922 C 216.974 195.320,214.163 198.779,215.500 198.806 C 215.665 198.810,216.240 199.710,216.779 200.806 C 217.317 201.903,217.891 202.800,218.055 202.800 C 218.341 202.800,219.802 204.242,230.072 214.661 C 232.641 217.267,236.331 220.943,238.272 222.829 C 240.212 224.715,243.341 227.865,245.224 229.829 C 247.107 231.793,250.887 235.577,253.624 238.238 C 263.064 247.416,263.200 247.585,263.200 250.156 L 263.200 252.392 257.828 257.823 L 252.456 263.254 250.182 262.727 C 248.513 262.340,247.628 261.870,246.854 260.958 C 245.128 258.924,243.321 257.048,240.443 254.297 C 239.147 253.058,229.434 243.319,228.600 242.422 C 228.380 242.186,224.690 238.493,220.400 234.217 C 216.110 229.941,212.420 226.246,212.200 226.006 C 211.980 225.766,210.990 224.780,210.000 223.816 C 209.010 222.852,208.000 221.824,207.757 221.532 C 206.558 220.095,201.896 216.000,201.458 216.000 C 200.739 216.000,198.807 215.054,198.803 214.700 C 198.793 213.725,190.761 221.177,181.000 231.217 C 180.780 231.444,177.090 235.131,172.800 239.412 C 168.510 243.693,164.820 247.380,164.600 247.605 C 157.253 255.130,148.930 263.232,148.360 263.413 C 147.525 263.678,142.800 261.716,142.800 261.103 C 142.800 260.890,140.799 258.737,138.353 256.318 L 133.906 251.920 134.093 249.975 C 134.269 248.139,134.492 247.817,138.040 244.260 C 140.108 242.186,142.274 239.975,142.853 239.345 C 143.737 238.383,145.853 236.256,147.080 235.097 C 148.135 234.100,155.145 227.099,155.861 226.328 C 156.334 225.817,158.155 223.981,159.908 222.248 C 161.661 220.514,163.254 218.937,163.448 218.745 C 163.641 218.552,165.510 216.698,167.600 214.625 C 169.690 212.552,171.785 210.438,172.256 209.928 C 172.726 209.417,174.436 207.712,176.056 206.137 C 183.791 198.616,183.973 198.279,181.587 195.893 C 180.700 195.006,179.671 193.767,179.301 193.140 C 178.930 192.512,178.351 191.905,178.013 191.790 C 177.676 191.675,176.950 191.029,176.400 190.354 C 175.850 189.679,174.889 188.648,174.265 188.063 C 172.968 186.848,162.806 176.705,162.200 176.021 C 161.980 175.772,160.990 174.776,160.000 173.808 C 159.010 172.839,158.020 171.847,157.800 171.604 C 156.335 169.984,147.519 161.600,147.282 161.600 C 147.121 161.600,146.544 160.880,146.000 160.000 C 145.456 159.120,144.877 158.400,144.713 158.400 C 144.453 158.400,142.595 156.607,141.400 155.203 C 141.180 154.945,139.402 153.238,137.450 151.410 L 133.899 148.087 134.412 145.951 C 134.939 143.752,142.236 135.773,144.839 134.548 C 147.973 133.073,148.147 133.096,150.665 135.316 M46.156 217.351 C 49.121 218.132,49.737 219.547,50.537 227.419 C 50.628 228.309,51.195 230.109,51.797 231.419 C 52.399 232.728,53.167 235.240,53.505 237.000 C 54.279 241.036,55.580 245.537,56.303 246.674 C 56.608 247.155,57.212 249.045,57.645 250.874 C 58.614 254.973,58.852 255.611,61.265 260.597 C 62.329 262.796,63.200 264.842,63.200 265.144 C 63.200 265.446,63.800 266.527,64.534 267.546 C 65.267 268.566,66.265 270.404,66.752 271.631 C 67.239 272.858,68.162 274.437,68.804 275.140 C 69.446 275.842,70.271 277.051,70.639 277.825 C 71.006 278.599,71.823 279.720,72.453 280.315 C 73.084 280.910,73.600 281.608,73.600 281.865 C 73.600 282.123,73.735 282.393,73.900 282.467 C 74.065 282.540,74.695 283.590,75.300 284.800 C 75.906 286.010,76.956 287.591,77.634 288.314 C 79.958 290.791,78.304 294.052,71.095 301.200 C 69.653 302.630,66.290 305.960,63.622 308.600 C 60.953 311.240,58.387 313.958,57.918 314.640 C 57.450 315.322,56.277 316.380,55.311 316.991 C 54.346 317.602,53.284 318.374,52.951 318.706 C 52.412 319.245,52.201 319.156,50.998 317.881 C 50.257 317.095,49.202 316.158,48.655 315.799 C 48.108 315.441,46.883 313.854,45.934 312.274 C 44.984 310.693,43.795 308.981,43.291 308.470 C 42.788 307.958,42.022 306.788,41.589 305.870 C 41.156 304.951,40.337 303.660,39.768 303.000 C 39.199 302.340,38.284 300.810,37.735 299.600 C 37.187 298.390,36.145 296.770,35.420 296.000 C 34.695 295.230,33.674 293.463,33.151 292.074 C 32.628 290.685,31.877 289.199,31.482 288.772 C 31.088 288.345,30.313 287.052,29.761 285.898 C 28.753 283.792,28.550 283.404,27.186 280.976 C 26.780 280.253,25.888 277.990,25.204 275.948 C 24.520 273.905,23.527 271.417,22.999 270.417 C 21.939 268.414,20.400 263.875,20.400 262.753 C 20.400 261.807,19.633 260.083,18.553 258.600 C 17.556 257.231,16.806 254.797,16.802 252.919 C 16.800 251.527,16.559 250.849,14.539 246.551 C 13.668 244.698,13.197 243.089,13.192 241.951 C 13.183 239.925,12.339 234.785,11.492 231.600 C 8.971 222.115,9.401 218.829,13.359 217.330 C 15.194 216.636,43.511 216.654,46.156 217.351 M108.511 321.224 C 109.342 321.455,110.608 322.158,111.324 322.787 C 112.040 323.415,113.512 324.401,114.596 324.977 C 115.679 325.553,117.240 326.649,118.065 327.412 C 118.890 328.176,119.677 328.800,119.813 328.800 C 119.950 328.800,121.366 329.677,122.962 330.749 C 124.557 331.820,126.568 333.022,127.431 333.420 C 128.294 333.817,129.499 334.485,130.108 334.904 C 130.718 335.323,132.197 336.011,133.395 336.432 C 135.954 337.331,139.782 339.075,141.200 339.986 C 142.431 340.778,144.484 341.470,146.600 341.806 C 149.244 342.227,152.076 343.329,153.273 344.405 C 154.070 345.121,156.109 345.707,160.968 346.620 C 162.931 346.989,165.091 347.593,165.768 347.964 C 167.731 349.037,169.940 349.546,173.785 349.809 C 180.654 350.281,180.400 349.511,180.400 369.831 L 180.400 385.943 179.034 387.391 L 177.668 388.840 174.534 388.595 C 172.810 388.460,170.590 388.195,169.600 388.005 C 168.610 387.816,166.630 387.453,165.200 387.200 C 163.770 386.947,161.790 386.585,160.800 386.396 C 159.810 386.208,157.920 385.953,156.600 385.829 C 154.433 385.627,152.066 385.001,151.000 384.349 C 150.780 384.214,149.610 383.890,148.400 383.629 C 147.190 383.368,145.409 382.978,144.442 382.763 C 143.475 382.548,142.185 382.016,141.574 381.582 C 140.963 381.147,139.504 380.500,138.332 380.144 C 133.376 378.639,131.337 377.835,130.310 376.978 C 129.711 376.478,128.541 375.866,127.710 375.618 C 126.880 375.370,125.480 374.953,124.600 374.691 C 123.720 374.429,121.685 373.536,120.078 372.707 C 118.472 371.878,116.991 371.200,116.788 371.200 C 116.363 371.200,111.881 369.117,110.400 368.232 C 109.850 367.903,108.352 367.141,107.072 366.538 C 105.792 365.936,104.588 365.151,104.397 364.794 C 104.206 364.437,102.913 363.565,101.525 362.856 C 100.136 362.148,98.293 360.934,97.428 360.159 C 96.564 359.385,95.248 358.497,94.505 358.186 C 93.762 357.876,92.580 357.030,91.877 356.307 C 91.175 355.584,89.700 354.475,88.600 353.843 C 87.500 353.211,86.150 352.284,85.600 351.783 C 85.050 351.282,83.847 350.484,82.927 350.010 C 79.742 348.368,78.873 344.565,81.254 342.686 C 83.338 341.042,87.112 337.532,93.607 331.200 C 104.163 320.909,105.106 320.278,108.511 321.224 " stroke="none" fill="#fcfbfb" fill-rule="evenodd"></path></g></svg>