<svg id="svg" version="1.1" xmlns="http://www.w3.org/2000/svg" xmlns:xlink="http://www.w3.org/1999/xlink" width="400" height="400" viewBox="0, 0, 400,400"><g id="svgg"><path id="path0" d="M199.568 6.756 C 198.017 6.926,196.737 7.393,195.368 8.289 C 193.525 9.497,191.748 10.433,188.400 11.961 C 186.414 12.867,179.057 20.555,177.644 23.200 C 176.548 25.253,175.747 27.646,174.698 32.000 C 174.039 34.734,173.768 199.491,174.412 205.400 C 175.446 214.882,177.582 219.179,185.146 227.000 C 185.834 227.710,193.432 232.105,196.600 233.625 C 197.615 234.111,204.121 234.218,238.719 234.319 L 279.638 234.438 281.235 236.035 C 283.806 238.606,283.749 238.152,283.915 257.148 L 284.067 274.496 285.133 275.416 C 285.720 275.921,287.341 276.921,288.736 277.638 L 291.272 278.940 294.275 277.454 C 297.067 276.073,313.230 260.825,322.936 250.415 C 323.851 249.434,325.129 248.174,325.776 247.615 C 327.240 246.351,328.804 244.794,329.633 243.777 C 329.980 243.350,331.163 242.190,332.260 241.200 C 333.357 240.210,335.182 238.525,336.316 237.456 C 339.244 234.694,341.077 234.403,355.600 234.393 C 367.656 234.384,371.720 234.041,374.000 232.844 C 379.757 229.818,381.236 228.886,383.000 227.167 C 384.100 226.096,385.855 224.472,386.900 223.558 C 387.945 222.645,388.800 221.747,388.800 221.562 C 388.800 221.195,391.891 216.527,392.700 215.671 C 392.975 215.381,393.200 214.654,393.200 214.058 C 393.200 213.461,393.605 211.899,394.100 210.586 L 395.000 208.200 395.000 121.600 L 395.000 35.000 393.936 30.046 C 393.351 27.321,392.709 24.981,392.508 24.846 C 391.961 24.477,388.800 20.085,388.800 19.695 C 388.800 18.288,380.204 11.200,378.497 11.200 C 377.778 11.200,375.121 9.639,374.710 8.976 C 374.551 8.718,373.471 8.078,372.310 7.554 L 370.200 6.600 286.000 6.556 C 239.690 6.531,200.796 6.621,199.568 6.756 M291.000 33.351 C 293.420 33.693,297.560 34.258,300.200 34.608 C 305.585 35.320,309.825 36.442,311.248 37.532 C 311.772 37.934,314.489 39.450,317.286 40.901 C 320.538 42.589,322.832 44.064,323.646 44.991 C 324.346 45.788,325.477 46.722,326.159 47.066 C 327.883 47.935,329.600 49.616,329.600 50.436 C 329.600 50.814,330.483 51.969,331.562 53.003 C 332.928 54.311,334.140 56.117,335.550 58.942 C 336.665 61.174,338.193 64.069,338.946 65.374 C 343.708 73.627,342.857 99.085,337.588 106.000 C 337.001 106.770,336.200 108.255,335.806 109.300 C 335.413 110.345,334.953 111.200,334.785 111.200 C 334.616 111.200,334.302 111.695,334.087 112.300 C 333.872 112.905,332.853 114.286,331.822 115.369 C 330.792 116.451,329.705 117.801,329.405 118.369 C 329.106 118.936,326.103 122.074,322.731 125.341 C 319.359 128.609,316.317 131.759,315.972 132.341 C 315.626 132.924,314.877 133.627,314.307 133.905 C 313.736 134.183,312.759 135.053,312.135 135.838 C 311.511 136.623,310.248 138.016,309.329 138.933 C 307.271 140.986,306.308 142.709,304.923 146.813 C 303.719 150.379,302.407 152.004,298.637 154.595 L 296.317 156.190 285.258 156.332 C 273.130 156.488,273.494 156.544,269.060 153.838 C 265.873 151.893,265.796 151.716,265.836 146.485 C 265.876 141.261,266.668 137.512,268.811 132.396 C 269.501 130.748,270.202 128.856,270.370 128.191 C 270.690 126.923,271.536 125.141,271.980 124.800 C 272.124 124.690,272.862 123.700,273.621 122.601 C 277.705 116.682,280.006 114.084,290.598 103.435 C 294.337 99.676,298.155 95.633,299.082 94.451 C 303.825 88.404,303.556 77.786,298.590 75.037 C 298.156 74.797,297.710 74.505,297.600 74.388 C 293.757 70.324,278.089 70.187,271.891 74.163 C 265.909 78.000,265.002 80.098,264.552 91.136 C 264.254 98.446,262.843 101.394,259.225 102.271 C 258.661 102.408,257.845 102.763,257.411 103.060 C 256.571 103.635,235.890 103.878,233.219 103.344 C 231.924 103.085,230.581 101.958,227.963 98.935 C 225.376 95.947,224.944 89.361,226.809 81.363 C 227.240 79.515,228.054 75.347,228.619 72.101 C 229.681 65.995,230.711 63.087,232.552 61.000 C 233.134 60.340,233.769 59.229,233.964 58.532 C 234.362 57.105,236.320 54.084,238.170 52.041 C 242.475 47.286,247.194 43.098,249.600 41.898 C 251.030 41.184,252.290 40.492,252.400 40.361 C 252.510 40.229,253.461 39.644,254.513 39.061 C 255.566 38.478,256.829 37.738,257.320 37.416 C 259.508 35.982,260.836 35.721,277.800 33.389 C 285.447 32.337,283.853 32.342,291.000 33.351 M88.715 79.629 C 84.076 80.751,79.005 83.752,76.987 86.568 C 76.114 87.786,75.265 88.787,75.100 88.791 C 74.935 88.796,74.800 89.009,74.800 89.264 C 74.800 89.519,74.070 90.694,73.178 91.876 C 69.884 96.239,70.200 83.419,70.200 212.634 L 70.200 327.868 71.348 329.525 C 73.163 332.144,73.267 332.188,76.315 331.637 C 79.120 331.129,80.361 330.351,81.800 328.197 C 82.594 327.009,82.602 326.153,82.815 215.200 C 83.061 87.370,82.586 101.361,86.838 96.558 C 91.038 91.814,89.428 92.000,126.386 92.000 L 156.303 92.000 157.742 89.900 C 160.366 86.073,160.173 82.965,157.110 79.704 L 156.261 78.800 124.030 78.841 C 94.020 78.879,91.587 78.934,88.715 79.629 M100.200 105.487 C 95.661 107.748,95.451 108.372,97.253 114.267 C 97.872 116.293,102.325 117.542,104.887 116.409 C 106.635 115.636,106.680 115.567,107.532 112.384 C 108.513 108.719,108.450 108.461,106.056 106.299 C 103.451 103.945,103.331 103.928,100.200 105.487 M152.500 104.683 C 150.263 105.343,147.587 107.762,147.614 109.101 C 147.712 113.997,149.101 115.955,153.167 116.937 L 156.038 117.630 157.191 116.715 C 158.600 115.598,158.728 115.316,159.402 111.817 C 159.991 108.763,159.949 108.601,157.835 105.716 C 156.439 103.812,155.846 103.697,152.500 104.683 M124.100 106.396 C 121.740 108.682,121.724 108.750,122.696 112.541 C 123.674 116.358,125.496 117.555,128.842 116.578 C 130.029 116.231,131.443 115.823,131.984 115.670 C 133.236 115.316,134.066 112.700,133.911 109.600 L 133.800 107.400 131.143 106.099 C 126.891 104.016,126.542 104.030,124.100 106.396 M102.400 129.887 C 102.070 130.009,100.849 130.460,99.687 130.889 C 97.206 131.803,96.546 132.671,95.756 136.054 L 95.172 138.559 96.518 139.904 C 97.321 140.708,98.944 141.642,100.550 142.225 L 103.236 143.200 129.718 143.184 L 156.200 143.167 157.426 142.084 C 161.100 138.836,161.107 133.909,157.444 130.716 L 156.200 129.633 129.600 129.648 C 114.970 129.656,102.730 129.764,102.400 129.887 M47.771 131.436 C 46.699 132.006,45.368 132.793,44.811 133.185 C 44.255 133.578,42.720 134.446,41.400 135.114 C 38.422 136.623,36.581 138.535,34.384 142.400 C 33.447 144.050,32.251 146.147,31.728 147.059 C 29.518 150.915,29.600 147.022,29.600 247.858 C 29.600 313.870,29.473 341.350,29.162 342.584 C 28.266 346.145,27.823 346.300,18.000 346.496 C 8.685 346.681,8.146 346.797,6.305 349.022 C 3.537 352.368,3.595 372.777,6.397 381.404 C 8.612 388.222,16.646 394.726,24.600 396.141 C 30.685 397.223,372.741 396.987,376.698 395.898 C 379.869 395.025,383.245 393.228,385.354 391.290 C 386.259 390.458,387.360 389.510,387.800 389.183 C 388.240 388.856,388.780 388.299,389.000 387.946 C 389.220 387.592,390.190 386.264,391.155 384.994 C 392.910 382.686,393.153 382.072,394.246 377.200 C 395.085 373.457,395.441 359.127,394.817 354.171 C 393.956 347.328,392.191 346.385,380.262 346.395 C 374.489 346.400,373.820 346.326,372.761 345.572 C 370.492 343.956,370.615 346.404,370.400 298.800 C 370.162 246.154,370.585 249.932,364.752 248.430 L 361.800 247.670 360.339 249.078 C 359.536 249.853,358.456 251.502,357.939 252.743 L 357.000 255.000 356.800 298.800 C 356.574 348.198,356.940 343.668,353.054 345.220 L 350.600 346.200 298.400 346.426 C 259.263 346.595,245.764 346.773,244.458 347.137 C 242.109 347.792,240.897 348.465,239.000 350.166 C 238.120 350.956,236.770 351.891,236.000 352.245 C 235.230 352.599,234.420 353.107,234.200 353.373 C 230.504 357.852,225.514 358.513,197.000 358.298 C 171.127 358.103,170.314 357.991,166.065 354.027 C 165.331 353.342,164.089 352.514,163.305 352.186 C 162.520 351.858,161.122 350.893,160.197 350.040 C 156.311 346.458,160.033 346.685,100.600 346.411 C 43.253 346.146,44.841 346.217,43.498 343.869 C 43.105 343.183,43.000 323.306,43.000 249.400 L 43.000 155.800 43.914 154.200 C 44.416 153.320,45.362 151.790,46.016 150.800 C 46.670 149.810,47.305 148.730,47.426 148.400 C 47.618 147.878,51.215 144.933,53.748 143.225 C 55.255 142.209,56.800 140.664,56.800 140.174 C 56.800 139.912,57.046 139.494,57.347 139.244 C 57.980 138.718,57.047 132.431,56.260 131.924 C 55.862 131.668,50.662 130.400,50.011 130.400 C 49.850 130.400,48.842 130.866,47.771 131.436 M152.200 170.296 C 148.770 170.555,147.600 172.082,147.600 176.301 C 147.600 180.728,148.431 181.621,153.231 182.356 L 156.430 182.846 157.715 181.766 C 162.235 177.969,160.549 169.735,155.320 170.072 C 154.704 170.112,153.300 170.212,152.200 170.296 M299.731 171.465 C 305.860 175.772,305.966 199.953,299.883 206.048 C 296.934 209.004,296.938 209.003,284.400 208.988 L 274.200 208.975 271.000 207.332 C 265.645 204.582,265.226 203.226,265.206 188.600 C 265.181 169.839,265.050 169.947,287.539 170.190 L 298.078 170.303 299.731 171.465 M107.881 170.977 C 103.462 172.553,97.600 178.667,97.600 181.698 C 97.600 182.326,97.349 183.326,97.043 183.920 C 95.971 185.999,95.816 191.520,96.764 193.915 C 97.224 195.078,97.600 196.306,97.600 196.645 C 97.600 197.493,100.837 202.369,102.246 203.644 C 107.810 208.679,118.027 209.441,125.157 205.353 C 127.091 204.243,129.600 202.076,129.600 201.513 C 129.600 201.172,131.604 197.955,132.037 197.600 C 135.269 194.953,134.467 183.211,130.721 178.342 C 130.105 177.541,129.600 176.701,129.600 176.477 C 129.600 175.856,124.716 172.104,122.743 171.208 C 120.566 170.221,110.443 170.063,107.881 170.977 M152.400 195.861 C 149.542 196.626,148.973 197.244,148.117 200.513 L 147.407 203.227 148.404 205.113 C 149.468 207.130,151.478 208.409,154.728 209.139 L 156.336 209.500 157.738 207.450 C 160.098 204.002,160.190 203.623,159.427 200.530 C 158.227 195.674,156.756 194.696,152.400 195.861 M152.800 222.274 C 147.963 223.397,146.587 225.931,148.327 230.512 C 149.340 233.179,150.034 233.724,153.110 234.264 C 162.401 235.897,165.944 234.074,166.133 227.562 C 166.283 222.412,161.085 220.351,152.800 222.274 M111.600 222.540 C 109.897 222.803,107.974 223.392,107.153 223.902 C 106.357 224.396,105.431 224.800,105.095 224.800 C 103.657 224.800,98.311 231.108,97.787 233.424 C 97.641 234.071,97.194 235.512,96.794 236.626 C 95.993 238.856,96.192 243.603,97.203 246.400 C 97.482 247.170,97.974 248.577,98.298 249.526 C 98.621 250.475,99.326 251.735,99.864 252.326 C 102.370 255.078,104.130 256.800,104.436 256.800 C 104.621 256.800,105.602 257.326,106.615 257.969 C 110.816 260.633,118.454 260.646,123.820 257.999 C 127.958 255.958,129.401 254.376,132.464 248.525 C 137.685 238.556,129.929 224.066,118.600 222.624 C 117.500 222.484,116.150 222.304,115.600 222.223 C 115.050 222.142,113.250 222.285,111.600 222.540 M151.400 248.163 C 146.290 249.691,146.503 258.081,151.697 259.857 C 154.629 260.860,258.665 261.211,264.307 260.237 C 267.615 259.667,270.391 258.343,270.397 257.333 C 270.399 257.077,270.608 256.797,270.862 256.713 C 272.788 256.071,269.381 248.710,266.830 248.002 C 264.618 247.387,153.473 247.542,151.400 248.163 M152.915 273.455 C 145.641 275.193,145.884 284.828,153.245 286.543 C 157.122 287.446,263.841 287.380,266.502 286.473 C 268.253 285.876,269.934 284.225,270.240 282.800 C 270.359 282.250,270.623 281.385,270.829 280.879 C 271.701 278.727,269.026 274.121,266.465 273.366 C 264.257 272.715,155.656 272.800,152.915 273.455 M321.931 273.148 C 320.275 273.432,319.246 274.535,317.886 277.481 C 317.003 279.394,317.000 279.474,317.000 303.216 L 317.000 327.032 318.328 329.216 C 320.540 332.854,320.308 332.700,323.801 332.857 L 326.976 333.000 328.296 330.804 L 329.617 328.607 329.508 302.538 L 329.400 276.468 328.184 274.734 C 326.871 272.862,325.549 272.527,321.931 273.148 M112.200 274.006 C 110.880 274.436,109.419 274.791,108.954 274.794 C 108.489 274.797,107.679 275.135,107.154 275.543 C 106.629 275.952,105.570 276.603,104.800 276.989 C 102.170 278.308,97.600 283.966,97.600 285.903 C 97.600 286.340,97.218 287.562,96.751 288.618 C 95.776 290.822,95.943 296.613,97.027 298.159 C 97.342 298.610,97.600 299.293,97.600 299.678 C 97.600 301.246,100.893 306.800,101.823 306.800 C 101.967 306.800,102.439 307.251,102.873 307.802 C 105.846 311.582,111.605 312.672,121.532 311.333 C 122.876 311.152,123.817 310.618,125.729 308.950 C 127.085 307.767,128.414 306.800,128.683 306.800 C 128.952 306.800,129.381 306.395,129.636 305.900 C 129.891 305.405,130.426 304.640,130.825 304.200 C 135.173 299.406,135.215 289.544,130.916 283.016 C 130.192 281.917,129.600 280.805,129.600 280.545 C 129.600 279.858,127.538 278.228,124.567 276.567 C 122.357 275.331,120.658 274.749,115.400 273.425 C 114.960 273.314,113.520 273.576,112.200 274.006 M152.558 300.160 C 148.369 300.987,147.649 301.875,147.622 306.238 C 147.582 312.834,144.349 312.400,193.571 312.400 C 227.075 312.400,233.629 312.309,234.987 311.828 C 235.874 311.513,237.064 311.157,237.631 311.037 C 239.053 310.737,239.600 309.292,239.600 305.843 C 239.600 302.313,239.308 301.963,235.201 300.574 L 232.323 299.600 193.662 299.639 C 165.259 299.668,154.352 299.806,152.558 300.160 M257.800 299.972 C 253.341 300.549,252.000 301.987,252.000 306.193 C 252.000 312.204,252.625 312.400,271.810 312.400 C 289.856 312.400,290.400 312.222,290.400 306.300 C 290.400 302.819,289.776 301.739,286.905 300.254 C 285.582 299.570,262.623 299.347,257.800 299.972 M146.982 359.408 C 150.340 359.994,150.845 360.219,155.063 363.016 C 157.538 364.657,159.723 366.000,159.919 366.000 C 160.115 366.000,160.619 366.385,161.038 366.856 C 162.014 367.952,167.191 370.400,168.534 370.400 C 169.099 370.400,170.598 370.670,171.865 371.000 C 174.699 371.738,222.088 371.893,226.200 371.178 C 227.520 370.948,229.590 370.608,230.800 370.421 C 232.241 370.200,234.014 369.482,235.938 368.341 C 237.553 367.384,239.652 366.150,240.601 365.600 C 241.550 365.050,242.658 364.321,243.063 363.979 C 249.503 358.554,246.061 358.800,315.400 358.800 C 385.408 358.800,380.192 358.321,381.438 364.859 C 382.723 371.606,381.053 376.853,376.452 380.522 C 372.008 384.065,389.716 383.723,201.800 383.900 C 21.988 384.069,26.265 384.115,24.800 381.990 C 24.690 381.831,23.729 381.150,22.665 380.477 C 18.866 378.077,17.079 371.817,18.187 364.788 C 18.832 360.687,19.708 359.814,23.678 359.309 C 29.291 358.594,142.842 358.685,146.982 359.408 " stroke="none" fill="#e54363" fill-rule="evenodd"></path><path id="path1" d="M0.000 200.000 L 0.000 400.000 200.000 400.000 L 400.000 400.000 400.000 200.000 L 400.000 0.000 200.000 0.000 L 0.000 0.000 0.000 200.000 M372.310 7.554 C 373.471 8.078,374.551 8.718,374.710 8.976 C 375.121 9.639,377.778 11.200,378.497 11.200 C 380.204 11.200,388.800 18.288,388.800 19.695 C 388.800 20.085,391.961 24.477,392.508 24.846 C 392.709 24.981,393.351 27.321,393.936 30.046 L 395.000 35.000 395.000 121.600 L 395.000 208.200 394.100 210.586 C 393.605 211.899,393.200 213.461,393.200 214.058 C 393.200 214.654,392.975 215.381,392.700 215.671 C 391.891 216.527,388.800 221.195,388.800 221.562 C 388.800 221.747,387.945 222.645,386.900 223.558 C 385.855 224.472,384.100 226.096,383.000 227.167 C 381.236 228.886,379.757 229.818,374.000 232.844 C 371.720 234.041,367.656 234.384,355.600 234.393 C 341.077 234.403,339.244 234.694,336.316 237.456 C 335.182 238.525,333.357 240.210,332.260 241.200 C 331.163 242.190,329.980 243.350,329.633 243.777 C 328.804 244.794,327.240 246.351,325.776 247.615 C 325.129 248.174,323.851 249.434,322.936 250.415 C 313.230 260.825,297.067 276.073,294.275 277.454 L 291.272 278.940 288.736 277.638 C 287.341 276.921,285.720 275.921,285.133 275.416 L 284.067 274.496 283.915 257.148 C 283.749 238.152,283.806 238.606,281.235 236.035 L 279.638 234.438 238.719 234.319 C 204.121 234.218,197.615 234.111,196.600 233.625 C 193.432 232.105,185.834 227.710,185.146 227.000 C 177.582 219.179,175.446 214.882,174.412 205.400 C 173.768 199.491,174.039 34.734,174.698 32.000 C 175.747 27.646,176.548 25.253,177.644 23.200 C 179.057 20.555,186.414 12.867,188.400 11.961 C 191.748 10.433,193.525 9.497,195.368 8.289 C 198.210 6.428,194.078 6.507,286.000 6.556 L 370.200 6.600 372.310 7.554 M283.400 32.638 C 266.985 34.629,259.472 36.006,257.320 37.416 C 256.829 37.738,255.566 38.478,254.513 39.061 C 253.461 39.644,252.510 40.229,252.400 40.361 C 252.290 40.492,251.030 41.184,249.600 41.898 C 247.194 43.098,242.475 47.286,238.170 52.041 C 236.320 54.084,234.362 57.105,233.964 58.532 C 233.769 59.229,233.134 60.340,232.552 61.000 C 230.711 63.087,229.681 65.995,228.619 72.101 C 228.054 75.347,227.240 79.515,226.809 81.363 C 224.944 89.361,225.376 95.947,227.963 98.935 C 230.581 101.958,231.924 103.085,233.219 103.344 C 235.890 103.878,256.571 103.635,257.411 103.060 C 257.845 102.763,258.661 102.408,259.225 102.271 C 262.843 101.394,264.254 98.446,264.552 91.136 C 265.002 80.098,265.909 78.000,271.891 74.163 C 278.089 70.187,293.757 70.324,297.600 74.388 C 297.710 74.505,298.156 74.797,298.590 75.037 C 303.556 77.786,303.825 88.404,299.082 94.451 C 298.155 95.633,294.337 99.676,290.598 103.435 C 280.006 114.084,277.705 116.682,273.621 122.601 C 272.862 123.700,272.124 124.690,271.980 124.800 C 271.536 125.141,270.690 126.923,270.370 128.191 C 270.202 128.856,269.501 130.748,268.811 132.396 C 266.668 137.512,265.876 141.261,265.836 146.485 C 265.796 151.716,265.873 151.893,269.060 153.838 C 273.494 156.544,273.130 156.488,285.258 156.332 L 296.317 156.190 298.637 154.595 C 302.407 152.004,303.719 150.379,304.923 146.813 C 306.308 142.709,307.271 140.986,309.329 138.933 C 310.248 138.016,311.511 136.623,312.135 135.838 C 312.759 135.053,313.736 134.183,314.307 133.905 C 314.877 133.627,315.626 132.924,315.972 132.341 C 316.317 131.759,319.359 128.609,322.731 125.341 C 326.103 122.074,329.106 118.936,329.405 118.369 C 329.705 117.801,330.792 116.451,331.822 115.369 C 332.853 114.286,333.872 112.905,334.087 112.300 C 334.302 111.695,334.616 111.200,334.785 111.200 C 334.953 111.200,335.413 110.345,335.806 109.300 C 336.200 108.255,337.001 106.770,337.588 106.000 C 342.857 99.085,343.708 73.627,338.946 65.374 C 338.193 64.069,336.665 61.174,335.550 58.942 C 334.140 56.117,332.928 54.311,331.562 53.003 C 330.483 51.969,329.600 50.814,329.600 50.436 C 329.600 49.616,327.883 47.935,326.159 47.066 C 325.477 46.722,324.346 45.788,323.646 44.991 C 322.832 44.064,320.538 42.589,317.286 40.901 C 314.489 39.450,311.772 37.934,311.248 37.532 C 309.825 36.442,305.585 35.320,300.200 34.608 C 297.560 34.258,293.420 33.693,291.000 33.351 C 284.887 32.488,284.747 32.475,283.400 32.638 M157.110 79.704 C 160.173 82.965,160.366 86.073,157.742 89.900 L 156.303 92.000 126.386 92.000 C 89.428 92.000,91.038 91.814,86.838 96.558 C 82.586 101.361,83.061 87.370,82.815 215.200 C 82.602 326.153,82.594 327.009,81.800 328.197 C 80.361 330.351,79.120 331.129,76.315 331.637 C 73.267 332.188,73.163 332.144,71.348 329.525 L 70.200 327.868 70.200 212.634 C 70.200 83.419,69.884 96.239,73.178 91.876 C 74.070 90.694,74.800 89.519,74.800 89.264 C 74.800 89.009,74.935 88.796,75.100 88.791 C 75.265 88.787,76.114 87.786,76.987 86.568 C 78.256 84.796,79.280 83.955,82.102 82.364 C 88.477 78.770,87.073 78.888,124.030 78.841 L 156.261 78.800 157.110 79.704 M106.056 106.299 C 108.450 108.461,108.513 108.719,107.532 112.384 C 106.680 115.567,106.635 115.636,104.887 116.409 C 102.325 117.542,97.872 116.293,97.253 114.267 C 95.451 108.372,95.661 107.748,100.200 105.487 C 103.331 103.928,103.451 103.945,106.056 106.299 M157.835 105.716 C 159.949 108.601,159.991 108.763,159.402 111.817 C 158.728 115.316,158.600 115.598,157.191 116.715 L 156.038 117.630 153.167 116.937 C 149.101 115.955,147.712 113.997,147.614 109.101 C 147.587 107.762,150.263 105.343,152.500 104.683 C 155.846 103.697,156.439 103.812,157.835 105.716 M131.143 106.099 L 133.800 107.400 133.911 109.600 C 134.066 112.700,133.236 115.316,131.984 115.670 C 131.443 115.823,130.029 116.231,128.842 116.578 C 125.496 117.555,123.674 116.358,122.696 112.541 C 121.724 108.750,121.740 108.682,124.100 106.396 C 126.542 104.030,126.891 104.016,131.143 106.099 M157.444 130.716 C 161.107 133.909,161.100 138.836,157.426 142.084 L 156.200 143.167 129.718 143.184 L 103.236 143.200 100.550 142.225 C 98.944 141.642,97.321 140.708,96.518 139.904 L 95.172 138.559 95.756 136.054 C 96.546 132.671,97.206 131.803,99.687 130.889 C 100.849 130.460,102.070 130.009,102.400 129.887 C 102.730 129.764,114.970 129.656,129.600 129.648 L 156.200 129.633 157.444 130.716 M53.067 131.024 C 56.725 131.851,56.601 131.719,57.291 135.495 C 57.799 138.277,57.808 138.861,57.347 139.244 C 57.046 139.494,56.800 139.912,56.800 140.174 C 56.800 140.664,55.255 142.209,53.748 143.225 C 51.215 144.933,47.618 147.878,47.426 148.400 C 47.305 148.730,46.670 149.810,46.016 150.800 C 45.362 151.790,44.416 153.320,43.914 154.200 L 43.000 155.800 43.000 249.400 C 43.000 323.306,43.105 343.183,43.498 343.869 C 44.841 346.217,43.253 346.146,100.600 346.411 C 160.033 346.685,156.311 346.458,160.197 350.040 C 161.122 350.893,162.520 351.858,163.305 352.186 C 164.089 352.514,165.331 353.342,166.065 354.027 C 170.314 357.991,171.127 358.103,197.000 358.298 C 225.514 358.513,230.504 357.852,234.200 353.373 C 234.420 353.107,235.230 352.599,236.000 352.245 C 236.770 351.891,238.120 350.956,239.000 350.166 C 240.897 348.465,242.109 347.792,244.458 347.137 C 245.764 346.773,259.263 346.595,298.400 346.426 L 350.600 346.200 353.054 345.220 C 356.940 343.668,356.574 348.198,356.800 298.800 L 357.000 255.000 357.939 252.743 C 358.456 251.502,359.536 249.853,360.339 249.078 L 361.800 247.670 364.752 248.430 C 370.585 249.932,370.162 246.154,370.400 298.800 C 370.615 346.404,370.492 343.956,372.761 345.572 C 373.820 346.326,374.489 346.400,380.262 346.395 C 392.191 346.385,393.956 347.328,394.817 354.171 C 395.441 359.127,395.085 373.457,394.246 377.200 C 393.153 382.072,392.910 382.686,391.155 384.994 C 390.190 386.264,389.220 387.592,389.000 387.946 C 388.780 388.299,388.240 388.856,387.800 389.183 C 387.360 389.510,386.259 390.458,385.354 391.290 C 383.245 393.228,379.869 395.025,376.698 395.898 C 372.741 396.987,30.685 397.223,24.600 396.141 C 18.248 395.011,9.962 389.256,7.547 384.298 C 5.221 379.520,4.400 374.354,4.400 364.497 C 4.400 347.127,4.677 346.760,18.000 346.496 C 27.823 346.300,28.266 346.145,29.162 342.584 C 29.473 341.350,29.600 313.870,29.600 247.858 C 29.600 147.022,29.518 150.915,31.728 147.059 C 32.251 146.147,33.447 144.050,34.384 142.400 C 36.581 138.535,38.422 136.623,41.400 135.114 C 42.720 134.446,44.255 133.578,44.811 133.185 C 46.061 132.304,49.615 130.400,50.011 130.400 C 50.171 130.400,51.546 130.681,53.067 131.024 M157.581 170.590 C 161.222 172.473,161.297 178.756,157.715 181.766 L 156.430 182.846 153.231 182.356 C 148.431 181.621,147.600 180.728,147.600 176.301 C 147.600 173.052,147.637 172.921,148.900 171.702 C 150.205 170.442,150.418 170.388,155.320 170.072 C 155.936 170.032,156.953 170.266,157.581 170.590 M274.000 170.344 C 266.044 171.056,265.185 172.839,265.206 188.600 C 265.226 203.226,265.645 204.582,271.000 207.332 L 274.200 208.975 284.400 208.988 C 296.938 209.003,296.934 209.004,299.883 206.048 C 304.792 201.129,305.943 182.194,301.855 173.614 C 301.596 173.071,300.641 172.104,299.731 171.465 L 298.078 170.303 287.539 170.190 C 281.743 170.127,275.650 170.197,274.000 170.344 M122.743 171.208 C 124.716 172.104,129.600 175.856,129.600 176.477 C 129.600 176.701,130.105 177.541,130.721 178.342 C 134.467 183.211,135.269 194.953,132.037 197.600 C 131.604 197.955,129.600 201.172,129.600 201.513 C 129.600 202.076,127.091 204.243,125.157 205.353 C 118.027 209.441,107.810 208.679,102.246 203.644 C 100.837 202.369,97.600 197.493,97.600 196.645 C 97.600 196.306,97.224 195.078,96.764 193.915 C 95.816 191.520,95.971 185.999,97.043 183.920 C 97.349 183.326,97.600 182.326,97.600 181.698 C 97.600 178.667,103.462 172.553,107.881 170.977 C 110.443 170.063,120.566 170.221,122.743 171.208 M157.582 196.500 C 158.352 197.355,158.983 198.734,159.427 200.530 C 160.190 203.623,160.098 204.002,157.738 207.450 L 156.336 209.500 154.728 209.139 C 151.478 208.409,149.468 207.130,148.404 205.113 L 147.407 203.227 148.117 200.513 C 148.973 197.244,149.542 196.626,152.400 195.861 C 155.694 194.980,156.278 195.052,157.582 196.500 M162.720 222.164 C 167.039 224.421,167.467 230.725,163.505 233.747 C 161.369 235.376,151.549 234.920,149.737 233.108 C 147.435 230.806,146.983 225.946,148.900 224.117 C 151.138 221.983,159.981 220.733,162.720 222.164 M118.600 222.624 C 129.929 224.066,137.685 238.556,132.464 248.525 C 129.401 254.376,127.958 255.958,123.820 257.999 C 118.454 260.646,110.816 260.633,106.615 257.969 C 105.602 257.326,104.621 256.800,104.436 256.800 C 104.130 256.800,102.370 255.078,99.864 252.326 C 99.326 251.735,98.621 250.475,98.298 249.526 C 97.974 248.577,97.482 247.170,97.203 246.400 C 96.192 243.603,95.993 238.856,96.794 236.626 C 97.194 235.512,97.641 234.071,97.787 233.424 C 98.311 231.108,103.657 224.800,105.095 224.800 C 105.431 224.800,106.357 224.396,107.153 223.902 C 108.639 222.980,113.785 221.957,115.600 222.223 C 116.150 222.304,117.500 222.484,118.600 222.624 M266.830 248.002 C 269.381 248.710,272.788 256.071,270.862 256.713 C 270.608 256.797,270.399 257.077,270.397 257.333 C 270.391 258.343,267.615 259.667,264.307 260.237 C 258.665 261.211,154.629 260.860,151.697 259.857 C 146.503 258.081,146.290 249.691,151.400 248.163 C 153.473 247.542,264.618 247.387,266.830 248.002 M266.465 273.366 C 269.026 274.121,271.701 278.727,270.829 280.879 C 270.623 281.385,270.359 282.250,270.240 282.800 C 269.934 284.225,268.253 285.876,266.502 286.473 C 263.841 287.380,157.122 287.446,153.245 286.543 C 145.884 284.828,145.641 275.193,152.915 273.455 C 155.656 272.800,264.257 272.715,266.465 273.366 M328.184 274.734 L 329.400 276.468 329.508 302.538 L 329.617 328.607 328.296 330.804 L 326.976 333.000 323.801 332.857 C 320.308 332.700,320.540 332.854,318.328 329.216 L 317.000 327.032 317.000 303.216 C 317.000 276.905,316.905 277.949,319.617 274.481 C 321.455 272.131,326.462 272.279,328.184 274.734 M119.090 274.373 C 123.255 275.449,129.600 279.175,129.600 280.545 C 129.600 280.805,130.192 281.917,130.916 283.016 C 135.215 289.544,135.173 299.406,130.825 304.200 C 130.426 304.640,129.891 305.405,129.636 305.900 C 129.381 306.395,128.952 306.800,128.683 306.800 C 128.414 306.800,127.085 307.767,125.729 308.950 C 123.817 310.618,122.876 311.152,121.532 311.333 C 111.605 312.672,105.846 311.582,102.873 307.802 C 102.439 307.251,101.967 306.800,101.823 306.800 C 100.893 306.800,97.600 301.246,97.600 299.678 C 97.600 299.293,97.342 298.610,97.027 298.159 C 95.943 296.613,95.776 290.822,96.751 288.618 C 97.218 287.562,97.600 286.340,97.600 285.903 C 97.600 283.966,102.170 278.308,104.800 276.989 C 105.570 276.603,106.629 275.952,107.154 275.543 C 107.679 275.135,108.489 274.797,108.954 274.794 C 109.419 274.791,110.880 274.436,112.200 274.006 C 113.520 273.576,114.960 273.314,115.400 273.425 C 115.840 273.536,117.500 273.962,119.090 274.373 M235.201 300.574 C 239.308 301.963,239.600 302.313,239.600 305.843 C 239.600 309.292,239.053 310.737,237.631 311.037 C 237.064 311.157,235.874 311.513,234.987 311.828 C 233.629 312.309,227.075 312.400,193.571 312.400 C 144.349 312.400,147.582 312.834,147.622 306.238 C 147.664 299.332,145.179 299.688,193.662 299.639 L 232.323 299.600 235.201 300.574 M286.905 300.254 C 289.776 301.739,290.400 302.819,290.400 306.300 C 290.400 312.222,289.856 312.400,271.810 312.400 C 252.625 312.400,252.000 312.204,252.000 306.193 C 252.000 302.702,252.313 302.095,254.800 300.765 C 257.222 299.470,284.547 299.035,286.905 300.254 M23.678 359.309 C 19.708 359.814,18.832 360.687,18.187 364.788 C 17.079 371.817,18.866 378.077,22.665 380.477 C 23.729 381.150,24.690 381.831,24.800 381.990 C 26.265 384.115,21.988 384.069,201.800 383.900 C 389.716 383.723,372.008 384.065,376.452 380.522 C 381.053 376.853,382.723 371.606,381.438 364.859 C 380.192 358.321,385.408 358.800,315.400 358.800 C 246.061 358.800,249.503 358.554,243.063 363.979 C 242.658 364.321,241.550 365.050,240.601 365.600 C 239.652 366.150,237.553 367.384,235.938 368.341 C 234.014 369.482,232.241 370.200,230.800 370.421 C 229.590 370.608,227.520 370.948,226.200 371.178 C 222.088 371.893,174.699 371.738,171.865 371.000 C 170.598 370.670,169.099 370.400,168.534 370.400 C 167.191 370.400,162.014 367.952,161.038 366.856 C 160.619 366.385,160.115 366.000,159.919 366.000 C 159.723 366.000,157.538 364.657,155.063 363.016 C 148.141 358.426,153.921 358.769,85.000 358.860 C 51.870 358.903,25.336 359.098,23.678 359.309 " stroke="none" fill="#ffffff" fill-rule="evenodd"></path></g></svg>