<svg id="svg" version="1.1" xmlns="http://www.w3.org/2000/svg" xmlns:xlink="http://www.w3.org/1999/xlink" width="400" height="429.8507462686567" viewBox="0, 0, 400,429.8507462686567"><g id="svgg"><path id="path0" d="M195.000 12.192 C 187.898 13.070,185.115 13.641,183.177 14.617 C 181.381 15.522,172.691 18.682,170.864 19.095 C 170.349 19.212,169.269 19.923,168.464 20.675 C 167.659 21.428,165.333 22.862,163.296 23.863 C 161.260 24.864,159.280 26.071,158.896 26.547 C 157.966 27.700,154.620 30.400,154.120 30.400 C 153.901 30.400,152.930 31.337,151.961 32.482 C 150.993 33.627,149.480 35.302,148.600 36.204 C 145.571 39.310,142.710 42.850,141.715 44.723 C 141.167 45.755,140.564 46.696,140.377 46.813 C 139.812 47.165,136.790 52.842,135.912 55.200 C 135.462 56.410,134.941 57.594,134.755 57.832 C 133.589 59.315,130.990 68.302,130.547 72.378 C 129.859 78.715,125.966 81.199,116.716 81.203 C 111.272 81.205,110.281 81.314,107.694 82.192 C 103.836 83.501,103.513 83.698,102.315 85.476 C 100.277 88.500,100.292 87.991,100.231 153.956 C 100.191 197.662,100.046 215.832,99.730 216.896 C 99.283 218.402,95.468 223.200,94.718 223.200 C 93.432 223.200,89.072 228.328,88.160 230.913 C 87.835 231.834,87.275 233.036,86.916 233.585 C 84.881 236.691,84.765 247.126,86.735 249.919 C 87.154 250.514,87.987 251.972,88.586 253.160 C 90.208 256.380,95.070 260.892,98.200 262.083 C 104.703 264.557,117.333 263.410,119.469 260.151 C 119.835 259.592,121.136 258.319,122.358 257.323 C 124.105 255.900,125.055 254.643,126.791 251.456 L 129.000 247.400 128.991 242.000 L 128.981 236.600 127.491 233.485 C 126.671 231.771,126.000 230.207,126.000 230.009 C 126.000 229.810,124.002 227.522,121.560 224.924 C 115.196 218.152,115.342 218.385,114.853 214.200 C 114.579 211.862,114.426 192.046,114.415 157.676 L 114.399 104.752 115.453 102.600 C 117.591 98.233,121.038 96.576,125.058 97.983 C 129.317 99.474,130.485 101.037,132.627 108.119 C 133.346 110.495,134.102 112.655,134.308 112.919 C 134.513 113.184,135.006 114.390,135.403 115.600 C 136.402 118.645,138.700 123.140,140.063 124.715 C 140.690 125.438,141.446 126.615,141.745 127.331 C 142.044 128.046,142.539 128.895,142.844 129.216 C 143.150 129.537,143.930 130.509,144.577 131.375 C 145.225 132.241,147.565 134.834,149.777 137.136 C 153.320 140.823,155.216 142.514,158.726 145.114 C 159.235 145.491,160.315 146.363,161.126 147.051 C 161.937 147.738,164.130 149.088,166.000 150.051 C 167.870 151.013,169.755 152.121,170.190 152.513 C 171.977 154.128,176.670 155.824,182.050 156.800 C 183.068 156.985,184.778 157.580,185.850 158.123 C 192.304 161.388,215.553 161.616,220.600 158.464 C 221.972 157.606,223.667 157.018,226.000 156.589 C 230.707 155.724,235.208 154.185,236.478 153.008 C 237.064 152.464,239.312 151.087,241.472 149.949 C 243.632 148.810,245.940 147.391,246.600 146.795 C 247.260 146.200,248.790 144.994,250.000 144.116 C 253.089 141.875,254.232 140.885,256.350 138.620 C 257.367 137.531,259.038 135.764,260.062 134.693 C 263.822 130.764,269.600 122.239,269.600 120.620 C 269.600 120.161,270.049 119.125,270.598 118.317 C 271.971 116.297,274.276 110.939,274.607 109.000 C 274.757 108.120,275.326 105.690,275.871 103.600 C 278.952 91.792,278.869 78.596,275.643 67.220 C 275.235 65.779,274.691 63.591,274.434 62.358 C 274.032 60.419,273.357 58.886,270.259 52.871 C 269.956 52.282,269.336 50.966,268.882 49.947 C 268.428 48.927,267.143 46.843,266.028 45.314 C 264.913 43.785,264.000 42.416,264.000 42.272 C 264.000 41.744,260.288 37.145,259.384 36.552 C 258.872 36.217,257.682 34.943,256.739 33.721 C 255.797 32.500,254.390 31.092,253.613 30.594 C 252.836 30.095,251.049 28.683,249.642 27.454 C 248.235 26.226,245.899 24.667,244.451 23.989 C 243.003 23.311,240.875 22.029,239.721 21.139 C 237.684 19.568,232.809 17.583,228.200 16.449 C 227.100 16.178,225.314 15.499,224.231 14.939 C 219.238 12.356,204.705 10.991,195.000 12.192 M192.268 51.429 C 192.966 51.747,194.136 52.122,194.868 52.262 C 196.795 52.632,201.164 54.899,203.158 56.565 C 204.103 57.354,205.137 58.000,205.457 58.000 C 206.079 58.000,211.425 60.803,213.387 62.158 C 214.040 62.609,215.656 63.490,216.980 64.116 C 218.303 64.742,219.479 65.399,219.593 65.577 C 219.790 65.884,223.475 68.016,229.470 71.292 C 233.981 73.756,239.890 77.364,242.587 79.300 C 244.465 80.648,247.345 85.693,247.015 87.056 C 246.451 89.378,239.433 95.525,236.505 96.260 C 235.976 96.392,234.190 97.472,232.536 98.659 C 229.242 101.022,227.532 102.000,226.695 102.000 C 226.395 102.000,224.541 103.101,222.575 104.447 C 220.609 105.794,218.100 107.196,217.000 107.565 C 215.900 107.933,213.740 109.149,212.200 110.267 C 210.660 111.385,208.134 112.829,206.587 113.475 C 205.040 114.121,202.738 115.493,201.471 116.525 C 200.205 117.556,198.900 118.400,198.570 118.400 C 198.241 118.400,197.573 118.651,197.086 118.959 C 196.599 119.266,194.760 120.001,193.000 120.593 C 191.240 121.184,189.403 121.922,188.918 122.232 C 188.093 122.758,187.942 122.683,186.606 121.085 C 185.820 120.144,184.465 118.935,183.597 118.398 C 181.296 116.976,181.411 118.507,181.279 87.600 C 181.135 53.891,180.798 57.125,184.884 52.962 L 188.102 49.683 189.551 50.267 C 190.348 50.587,191.571 51.110,192.268 51.429 M198.811 72.189 C 197.133 73.920,196.848 75.367,196.533 83.738 C 195.932 99.746,198.090 104.256,203.832 98.996 C 204.620 98.274,206.105 97.374,207.132 96.995 C 209.767 96.024,213.130 94.115,214.958 92.554 C 215.815 91.822,217.105 91.029,217.825 90.792 C 218.545 90.554,219.419 89.919,219.767 89.380 C 221.845 86.163,221.873 86.967,219.534 82.857 C 218.596 81.209,217.954 80.684,215.600 79.645 C 213.527 78.730,208.693 75.932,207.887 75.181 C 207.426 74.751,206.794 74.400,206.483 74.400 C 206.171 74.400,205.116 73.860,204.137 73.200 C 200.424 70.693,200.286 70.667,198.811 72.189 M288.400 125.956 C 284.227 127.304,280.400 131.400,280.400 134.518 C 280.400 137.935,283.631 141.077,288.888 142.774 C 289.778 143.061,290.872 143.881,291.613 144.817 L 292.851 146.380 292.803 226.090 C 292.776 269.930,292.602 306.520,292.417 307.400 C 292.232 308.280,291.882 309.974,291.638 311.165 C 291.236 313.136,290.277 314.826,288.328 317.000 C 287.933 317.440,287.198 318.427,286.693 319.194 C 285.756 320.618,283.132 322.382,281.932 322.393 C 281.358 322.399,277.058 325.104,274.619 326.994 C 274.189 327.328,273.507 327.600,273.103 327.600 C 272.129 327.600,270.015 328.767,266.600 331.191 C 265.060 332.284,263.568 333.184,263.284 333.189 C 262.329 333.209,259.415 334.887,257.400 336.578 C 256.300 337.501,254.590 338.646,253.600 339.121 C 252.610 339.597,250.738 340.844,249.440 341.893 C 248.142 342.942,246.462 344.170,245.706 344.623 C 242.981 346.255,234.983 352.230,231.912 354.928 C 230.751 355.949,228.540 357.723,227.000 358.870 C 225.460 360.017,222.878 362.263,221.263 363.861 C 217.399 367.681,215.283 367.575,213.371 363.468 L 212.408 361.400 212.414 283.800 C 212.420 207.594,212.434 206.158,213.210 203.838 C 213.644 202.539,214.000 201.100,214.000 200.641 C 214.000 199.580,216.523 195.891,217.703 195.227 C 218.197 194.949,219.142 193.983,219.804 193.079 C 220.466 192.174,221.805 190.827,222.779 190.084 C 223.753 189.341,224.752 188.343,225.000 187.867 C 225.556 186.796,226.905 184.670,227.200 184.400 C 228.969 182.780,228.214 178.012,225.710 174.995 C 223.512 172.347,218.594 173.170,215.065 176.776 C 213.760 178.109,212.402 179.206,212.047 179.214 C 211.224 179.233,209.681 180.575,208.251 182.517 C 207.541 183.481,206.695 184.121,205.927 184.275 C 205.258 184.408,203.700 185.460,202.431 186.636 L 200.141 188.755 198.171 187.853 C 194.332 186.095,188.953 184.481,185.400 184.021 C 182.653 183.665,180.897 183.141,177.990 181.811 C 174.121 180.041,173.407 179.862,164.200 178.347 C 161.340 177.877,157.560 176.967,155.800 176.325 C 146.335 172.872,136.055 172.255,132.992 174.957 C 131.580 176.202,130.400 179.338,130.400 181.843 C 130.400 185.052,137.341 189.466,143.246 190.013 C 150.143 190.651,156.344 191.964,163.041 194.205 C 165.335 194.972,167.779 195.600,168.473 195.600 C 170.461 195.600,178.642 197.933,182.649 199.643 C 184.655 200.499,186.709 201.200,187.212 201.200 C 188.710 201.200,193.991 204.064,194.936 205.389 L 195.800 206.600 195.906 290.091 L 196.013 373.581 195.141 375.436 L 194.269 377.291 189.235 377.117 C 184.317 376.948,184.028 376.886,176.800 374.447 C 172.730 373.073,168.410 371.857,167.200 371.744 C 165.990 371.632,161.940 370.840,158.200 369.985 C 149.033 367.889,141.297 366.396,139.619 366.398 C 138.860 366.399,133.242 365.588,127.136 364.597 C 119.305 363.325,113.876 362.675,108.716 362.393 C 104.692 362.174,100.320 361.830,99.000 361.631 C 97.680 361.431,93.180 361.249,89.000 361.226 C 71.968 361.132,65.555 357.603,63.879 347.400 C 63.165 343.056,63.067 188.889,63.776 187.393 C 65.115 184.572,67.978 183.308,73.600 183.056 C 79.623 182.786,80.365 182.486,82.384 179.495 C 84.263 176.712,84.318 175.896,82.913 171.637 C 81.646 167.796,81.662 167.800,69.471 167.800 C 57.635 167.800,58.195 167.677,53.940 171.218 C 52.674 172.272,51.278 173.248,50.839 173.388 C 49.238 173.896,48.494 175.943,47.661 182.142 C 46.552 190.382,47.004 190.000,38.350 190.000 C 29.358 190.000,26.521 190.732,23.600 193.805 C 22.830 194.615,21.823 195.425,21.363 195.605 C 20.902 195.785,20.002 196.983,19.363 198.266 L 18.200 200.600 18.078 289.600 C 17.955 379.231,17.985 381.571,19.322 386.200 C 19.816 387.909,23.240 393.167,24.214 393.712 C 24.536 393.892,24.800 394.262,24.800 394.534 C 24.800 395.052,28.814 399.200,29.316 399.200 C 29.476 399.200,30.352 399.740,31.263 400.400 C 32.175 401.060,33.148 401.600,33.427 401.600 C 33.706 401.600,35.115 402.227,36.560 402.993 C 42.022 405.891,38.813 405.736,99.600 406.031 C 133.929 406.198,155.017 406.449,156.400 406.706 C 160.588 407.485,163.730 408.458,164.962 409.359 C 165.643 409.857,167.906 410.967,169.991 411.825 C 172.077 412.684,174.553 413.974,175.495 414.693 C 176.436 415.412,177.303 416.000,177.420 416.000 C 177.673 416.000,179.950 417.588,180.718 418.300 C 181.014 418.575,181.478 418.800,181.749 418.800 C 182.019 418.800,183.269 419.717,184.527 420.838 C 186.763 422.831,190.801 424.858,195.300 426.245 C 197.088 426.796,197.200 426.913,197.200 428.215 L 197.200 429.600 203.600 429.600 L 210.000 429.600 210.000 428.200 C 210.000 427.122,210.164 426.800,210.715 426.800 C 211.109 426.800,212.126 426.446,212.975 426.013 C 213.824 425.580,215.617 424.858,216.959 424.409 C 218.553 423.876,220.212 422.898,221.740 421.590 C 223.027 420.488,225.281 418.810,226.748 417.861 C 228.215 416.912,230.227 415.520,231.218 414.768 C 232.829 413.545,234.020 412.940,238.714 410.955 C 239.436 410.650,240.269 410.400,240.565 410.400 C 240.860 410.400,241.316 410.143,241.577 409.828 C 242.230 409.041,246.318 407.686,250.400 406.904 C 253.394 406.331,260.350 406.222,308.600 405.991 C 367.631 405.709,367.124 405.729,369.344 403.659 C 369.815 403.219,371.100 402.504,372.200 402.070 C 373.300 401.635,375.010 400.814,376.000 400.245 C 376.990 399.675,378.102 399.207,378.471 399.205 C 378.841 399.202,379.993 398.075,381.033 396.700 C 382.072 395.325,383.615 393.601,384.462 392.869 C 385.308 392.137,386.000 391.276,386.000 390.956 C 386.000 390.635,386.427 389.524,386.949 388.487 C 388.106 386.187,389.430 380.649,389.983 375.800 C 390.251 373.454,390.395 343.428,390.397 289.576 L 390.400 206.952 389.551 203.576 C 387.118 193.897,382.813 190.574,372.000 190.029 C 368.457 189.851,365.234 189.458,363.717 189.020 L 361.233 188.304 360.440 185.852 C 359.772 183.786,359.245 181.357,358.158 175.332 C 358.065 174.818,356.860 173.635,355.201 172.428 C 353.660 171.308,352.399 170.258,352.397 170.096 C 352.396 169.933,351.738 169.353,350.935 168.806 L 349.475 167.811 331.637 167.606 L 313.800 167.400 311.541 166.291 C 308.052 164.577,308.246 165.350,308.077 152.455 C 307.886 137.869,306.961 133.791,302.820 129.280 C 300.172 126.396,292.508 124.629,288.400 125.956 M339.755 183.941 C 340.660 184.169,341.859 184.449,342.419 184.565 C 343.071 184.699,343.756 185.340,344.319 186.342 L 345.200 187.909 345.200 265.728 C 345.200 351.356,345.311 347.397,342.807 350.854 C 342.143 351.770,341.600 352.749,341.600 353.028 C 341.600 353.307,340.694 354.526,339.588 355.738 C 335.923 359.748,330.392 361.187,318.600 361.201 C 315.300 361.205,310.260 361.473,307.400 361.796 C 304.540 362.120,300.760 362.394,299.000 362.406 C 294.806 362.434,278.976 364.439,273.813 365.597 C 272.721 365.842,270.291 366.198,268.413 366.389 C 266.536 366.580,263.470 367.031,261.600 367.391 C 249.632 369.695,246.879 369.737,243.660 367.661 L 242.719 367.055 244.415 366.257 C 245.547 365.725,246.659 364.696,247.756 363.167 C 248.660 361.907,249.760 360.679,250.200 360.438 C 250.640 360.197,252.350 359.006,254.000 357.791 C 255.650 356.576,257.315 355.475,257.700 355.344 C 258.085 355.214,258.400 354.961,258.400 354.782 C 258.400 354.604,259.525 353.782,260.900 352.956 C 262.275 352.130,263.850 351.121,264.400 350.715 C 266.395 349.239,271.021 346.310,271.889 345.973 C 272.378 345.784,274.448 344.601,276.489 343.345 C 281.862 340.040,284.115 338.815,284.838 338.807 C 285.189 338.803,285.814 338.426,286.228 337.969 C 286.907 337.218,288.510 336.210,293.803 333.200 C 298.009 330.808,304.643 322.305,305.816 317.802 C 308.070 309.148,308.000 311.420,308.000 247.322 C 308.000 210.044,308.143 188.081,308.387 187.623 C 309.280 185.956,312.457 184.493,316.200 184.027 C 322.395 183.256,336.823 183.203,339.755 183.941 M45.444 206.306 C 47.510 207.673,47.381 203.226,47.621 281.200 C 47.791 336.249,47.958 353.409,48.335 354.752 C 48.960 356.975,49.402 357.819,50.981 359.800 C 51.682 360.680,52.683 362.292,53.204 363.383 C 54.357 365.796,58.027 369.491,60.431 370.659 C 72.571 376.559,69.979 376.140,100.600 377.144 C 112.971 377.550,115.493 377.780,123.000 379.186 C 125.420 379.640,128.930 380.291,130.800 380.633 C 132.670 380.976,135.550 381.526,137.200 381.857 C 138.850 382.187,142.270 382.624,144.800 382.827 C 147.330 383.030,150.660 383.474,152.200 383.813 C 153.740 384.152,155.500 384.537,156.110 384.667 C 157.016 384.861,157.174 385.060,156.969 385.752 C 156.066 388.788,154.340 389.352,147.844 388.736 C 144.296 388.400,139.980 388.403,130.844 388.748 C 112.504 389.442,48.397 389.359,43.944 388.636 C 38.731 387.790,37.954 387.136,35.028 381.124 C 31.738 374.369,32.010 382.324,32.005 292.687 C 32.000 209.465,31.997 209.634,33.480 209.591 C 33.656 209.586,34.497 208.953,35.350 208.186 C 36.831 206.852,37.338 206.623,39.600 206.266 C 41.406 205.982,44.991 206.006,45.444 206.306 M371.615 206.591 C 375.352 207.070,375.000 198.129,375.000 292.569 C 375.000 383.595,375.155 378.223,372.433 381.493 C 371.377 382.762,370.235 384.340,369.894 385.000 C 368.762 387.197,367.613 387.888,363.969 388.564 C 359.684 389.358,294.614 389.498,275.971 388.753 C 265.906 388.351,263.885 388.375,259.036 388.960 C 251.403 389.879,249.847 389.487,249.374 386.526 C 249.129 384.999,249.174 384.904,250.258 384.673 C 250.886 384.540,252.660 384.152,254.200 383.813 C 255.740 383.474,259.107 383.029,261.683 382.825 C 264.258 382.621,269.118 381.915,272.483 381.257 C 289.230 377.978,292.267 377.614,306.800 377.152 C 335.959 376.224,336.067 376.211,342.527 372.931 C 346.071 371.132,351.505 366.918,352.800 364.965 C 353.130 364.468,354.245 363.094,355.279 361.912 C 359.532 357.048,359.302 361.427,359.571 280.000 C 359.829 201.813,359.520 208.764,362.800 207.314 C 365.615 206.070,366.800 205.973,371.615 206.591 M107.892 236.699 C 112.100 237.820,113.936 240.589,112.429 243.543 C 111.352 245.655,110.881 245.948,107.559 246.581 C 104.199 247.222,104.295 247.252,102.966 245.147 C 101.216 242.374,101.161 241.928,102.281 239.556 C 104.099 235.704,104.119 235.694,107.892 236.699 M241.431 389.240 C 247.220 389.822,249.120 390.829,245.500 391.396 C 244.025 391.627,239.241 392.757,234.308 394.039 C 233.341 394.291,232.383 394.965,231.589 395.954 C 230.855 396.867,229.525 397.841,228.281 398.377 C 223.871 400.276,222.762 400.963,221.367 402.666 C 220.515 403.706,218.968 404.910,217.587 405.607 C 216.301 406.256,214.473 407.512,213.525 408.399 C 212.576 409.286,211.350 410.115,210.800 410.240 C 210.250 410.366,209.121 410.723,208.292 411.034 C 203.943 412.666,198.371 411.578,193.800 408.203 C 191.137 406.238,190.072 405.592,187.455 404.357 C 186.826 404.060,186.162 403.426,185.980 402.948 C 185.490 401.659,183.312 400.176,180.600 399.285 C 176.730 398.013,175.347 397.203,174.751 395.857 C 174.030 394.232,173.289 393.917,166.400 392.309 C 161.223 391.101,160.697 390.902,161.502 390.462 C 165.123 388.484,177.552 389.233,180.073 391.582 C 180.843 392.299,184.182 393.439,186.600 393.809 C 189.285 394.221,196.237 396.351,198.336 397.405 C 201.207 398.848,207.458 398.724,208.396 397.206 C 208.663 396.774,217.579 394.126,220.000 393.759 C 222.059 393.447,225.513 392.184,226.400 391.419 C 227.204 390.725,229.335 390.067,232.873 389.421 C 236.687 388.725,236.377 388.731,241.431 389.240 " stroke="none" fill="#e64b6a" fill-rule="evenodd"></path><path id="path1" d="M0.000 214.800 L 0.000 429.600 98.600 429.600 L 197.200 429.600 197.200 428.215 C 197.200 426.913,197.088 426.796,195.300 426.245 C 190.801 424.858,186.763 422.831,184.527 420.838 C 183.269 419.717,182.019 418.800,181.749 418.800 C 181.478 418.800,181.014 418.575,180.718 418.300 C 179.950 417.588,177.673 416.000,177.420 416.000 C 177.303 416.000,176.436 415.412,175.495 414.693 C 174.553 413.974,172.077 412.684,169.991 411.825 C 167.906 410.967,165.643 409.857,164.962 409.359 C 163.730 408.458,160.588 407.485,156.400 406.706 C 155.017 406.449,133.929 406.198,99.600 406.031 C 38.813 405.736,42.022 405.891,36.560 402.993 C 35.115 402.227,33.706 401.600,33.427 401.600 C 33.148 401.600,32.175 401.060,31.263 400.400 C 30.352 399.740,29.464 399.200,29.290 399.200 C 28.791 399.200,24.800 395.029,24.800 394.507 C 24.800 394.250,24.536 393.892,24.214 393.712 C 23.240 393.167,19.816 387.909,19.322 386.200 C 17.985 381.571,17.955 379.231,18.078 289.600 L 18.200 200.600 19.363 198.266 C 20.002 196.983,20.902 195.785,21.363 195.605 C 21.823 195.425,22.830 194.615,23.600 193.805 C 26.521 190.732,29.358 190.000,38.350 190.000 C 47.004 190.000,46.552 190.382,47.661 182.142 C 48.494 175.943,49.238 173.896,50.839 173.388 C 51.278 173.248,52.674 172.272,53.940 171.218 C 58.195 167.677,57.635 167.800,69.471 167.800 C 81.662 167.800,81.646 167.796,82.913 171.637 C 84.318 175.896,84.263 176.712,82.384 179.495 C 80.365 182.486,79.623 182.786,73.600 183.056 C 67.978 183.308,65.115 184.572,63.776 187.393 C 63.067 188.889,63.165 343.056,63.879 347.400 C 65.555 357.603,71.968 361.132,89.000 361.226 C 93.180 361.249,97.680 361.431,99.000 361.631 C 100.320 361.830,104.692 362.174,108.716 362.393 C 113.876 362.675,119.305 363.325,127.136 364.597 C 133.242 365.588,138.860 366.399,139.619 366.398 C 141.297 366.396,149.033 367.889,158.200 369.985 C 161.940 370.840,165.990 371.632,167.200 371.744 C 168.410 371.857,172.730 373.073,176.800 374.447 C 184.028 376.886,184.317 376.948,189.235 377.117 L 194.269 377.291 195.141 375.436 L 196.013 373.581 195.906 290.091 L 195.800 206.600 194.936 205.389 C 193.991 204.064,188.710 201.200,187.212 201.200 C 186.709 201.200,184.655 200.499,182.649 199.643 C 178.642 197.933,170.461 195.600,168.473 195.600 C 167.779 195.600,165.335 194.972,163.041 194.205 C 156.344 191.964,150.143 190.651,143.246 190.013 C 137.341 189.466,130.400 185.052,130.400 181.843 C 130.400 172.707,140.103 170.598,155.800 176.325 C 157.560 176.967,161.340 177.877,164.200 178.347 C 173.407 179.862,174.121 180.041,177.990 181.811 C 180.897 183.141,182.653 183.665,185.400 184.021 C 188.953 184.481,194.332 186.095,198.171 187.853 L 200.141 188.755 202.431 186.636 C 203.700 185.460,205.258 184.408,205.927 184.275 C 206.695 184.121,207.541 183.481,208.251 182.517 C 209.681 180.575,211.224 179.233,212.047 179.214 C 212.402 179.206,213.760 178.109,215.065 176.776 C 218.594 173.170,223.512 172.347,225.710 174.995 C 228.214 178.012,228.969 182.780,227.200 184.400 C 226.905 184.670,225.556 186.796,225.000 187.867 C 224.752 188.343,223.753 189.341,222.779 190.084 C 221.805 190.827,220.466 192.174,219.804 193.079 C 219.142 193.983,218.197 194.949,217.703 195.227 C 216.523 195.891,214.000 199.580,214.000 200.641 C 214.000 201.100,213.644 202.539,213.210 203.838 C 212.434 206.158,212.420 207.594,212.414 283.800 L 212.408 361.400 213.371 363.468 C 215.283 367.575,217.399 367.681,221.263 363.861 C 222.878 362.263,225.460 360.017,227.000 358.870 C 228.540 357.723,230.751 355.949,231.912 354.928 C 234.983 352.230,242.981 346.255,245.706 344.623 C 246.462 344.170,248.142 342.942,249.440 341.893 C 250.738 340.844,252.610 339.597,253.600 339.121 C 254.590 338.646,256.300 337.501,257.400 336.578 C 259.415 334.887,262.329 333.209,263.284 333.189 C 263.568 333.184,265.060 332.284,266.600 331.191 C 270.015 328.767,272.129 327.600,273.103 327.600 C 273.507 327.600,274.189 327.328,274.619 326.994 C 277.058 325.104,281.358 322.399,281.932 322.393 C 283.132 322.382,285.756 320.618,286.693 319.194 C 287.198 318.427,287.933 317.440,288.328 317.000 C 290.277 314.826,291.236 313.136,291.638 311.165 C 291.882 309.974,292.232 308.280,292.417 307.400 C 292.602 306.520,292.776 269.930,292.803 226.090 L 292.851 146.380 291.613 144.817 C 290.872 143.881,289.778 143.061,288.888 142.774 C 283.631 141.077,280.400 137.935,280.400 134.518 C 280.400 126.119,296.471 122.364,302.820 129.280 C 306.961 133.791,307.886 137.869,308.077 152.455 C 308.246 165.350,308.052 164.577,311.541 166.291 L 313.800 167.400 331.637 167.606 L 349.475 167.811 350.935 168.806 C 351.738 169.353,352.396 169.933,352.397 170.096 C 352.399 170.258,353.660 171.308,355.201 172.428 C 356.860 173.635,358.065 174.818,358.158 175.332 C 359.245 181.357,359.772 183.786,360.440 185.852 L 361.233 188.304 363.717 189.020 C 365.234 189.458,368.457 189.851,372.000 190.029 C 382.813 190.574,387.118 193.897,389.551 203.576 L 390.400 206.952 390.397 289.576 C 390.395 343.428,390.251 373.454,389.983 375.800 C 389.430 380.649,388.106 386.187,386.949 388.487 C 386.427 389.524,386.000 390.635,386.000 390.956 C 386.000 391.276,385.308 392.137,384.462 392.869 C 383.615 393.601,382.072 395.325,381.033 396.700 C 379.993 398.075,378.841 399.202,378.471 399.205 C 378.102 399.207,376.990 399.675,376.000 400.245 C 375.010 400.814,373.300 401.635,372.200 402.070 C 371.100 402.504,369.815 403.219,369.344 403.659 C 367.124 405.729,367.631 405.709,308.600 405.991 C 260.350 406.222,253.394 406.331,250.400 406.904 C 246.318 407.686,242.230 409.041,241.577 409.828 C 241.316 410.143,240.860 410.400,240.565 410.400 C 240.269 410.400,239.436 410.650,238.714 410.955 C 234.020 412.940,232.829 413.545,231.218 414.768 C 230.227 415.520,228.215 416.912,226.748 417.861 C 225.281 418.810,223.027 420.488,221.740 421.590 C 220.212 422.898,218.553 423.876,216.959 424.409 C 215.617 424.858,213.824 425.580,212.975 426.013 C 212.126 426.446,211.109 426.800,210.715 426.800 C 210.164 426.800,210.000 427.122,210.000 428.200 L 210.000 429.600 305.000 429.600 L 400.000 429.600 400.000 214.800 L 400.000 0.000 200.000 0.000 L 0.000 0.000 0.000 214.800 M213.600 12.400 C 219.016 12.946,221.545 13.549,224.231 14.939 C 225.314 15.499,227.100 16.178,228.200 16.449 C 232.809 17.583,237.684 19.568,239.721 21.139 C 240.875 22.029,243.003 23.311,244.451 23.989 C 245.899 24.667,248.235 26.226,249.642 27.454 C 251.049 28.683,252.836 30.095,253.613 30.594 C 254.390 31.092,255.797 32.500,256.739 33.721 C 257.682 34.943,258.872 36.217,259.384 36.552 C 260.288 37.145,264.000 41.744,264.000 42.272 C 264.000 42.416,264.913 43.785,266.028 45.314 C 267.143 46.843,268.428 48.927,268.882 49.947 C 269.336 50.966,269.956 52.282,270.259 52.871 C 273.357 58.886,274.032 60.419,274.434 62.358 C 274.691 63.591,275.235 65.779,275.643 67.220 C 278.869 78.596,278.952 91.792,275.871 103.600 C 275.326 105.690,274.757 108.120,274.607 109.000 C 274.276 110.939,271.971 116.297,270.598 118.317 C 270.049 119.125,269.600 120.161,269.600 120.620 C 269.600 122.239,263.822 130.764,260.062 134.693 C 259.038 135.764,257.367 137.531,256.350 138.620 C 254.232 140.885,253.089 141.875,250.000 144.116 C 248.790 144.994,247.260 146.200,246.600 146.795 C 245.940 147.391,243.632 148.810,241.472 149.949 C 239.312 151.087,237.064 152.464,236.478 153.008 C 235.208 154.185,230.707 155.724,226.000 156.589 C 223.667 157.018,221.972 157.606,220.600 158.464 C 215.553 161.616,192.304 161.388,185.850 158.123 C 184.778 157.580,183.068 156.985,182.050 156.800 C 176.670 155.824,171.977 154.128,170.190 152.513 C 169.755 152.121,167.870 151.013,166.000 150.051 C 164.130 149.088,161.937 147.738,161.126 147.051 C 160.315 146.363,159.235 145.491,158.726 145.114 C 155.216 142.514,153.320 140.823,149.777 137.136 C 147.565 134.834,145.225 132.241,144.577 131.375 C 143.930 130.509,143.150 129.537,142.844 129.216 C 142.539 128.895,142.044 128.046,141.745 127.331 C 141.446 126.615,140.690 125.438,140.063 124.715 C 138.700 123.140,136.402 118.645,135.403 115.600 C 135.006 114.390,134.513 113.184,134.308 112.919 C 134.102 112.655,133.346 110.495,132.627 108.119 C 130.485 101.037,129.317 99.474,125.058 97.983 C 121.038 96.576,117.591 98.233,115.453 102.600 L 114.399 104.752 114.415 157.676 C 114.426 192.046,114.579 211.862,114.853 214.200 C 115.342 218.385,115.196 218.152,121.560 224.924 C 124.002 227.522,126.000 229.810,126.000 230.009 C 126.000 230.207,126.671 231.771,127.491 233.485 L 128.981 236.600 128.991 242.000 L 129.000 247.400 126.791 251.456 C 125.055 254.643,124.105 255.900,122.358 257.323 C 121.136 258.319,119.835 259.592,119.469 260.151 C 117.333 263.410,104.703 264.557,98.200 262.083 C 95.070 260.892,90.208 256.380,88.586 253.160 C 87.987 251.972,87.154 250.514,86.735 249.919 C 84.765 247.126,84.881 236.691,86.916 233.585 C 87.275 233.036,87.835 231.834,88.160 230.913 C 89.072 228.328,93.432 223.200,94.718 223.200 C 95.468 223.200,99.283 218.402,99.730 216.896 C 100.046 215.832,100.191 197.662,100.231 153.956 C 100.301 78.738,99.658 84.919,107.694 82.192 C 110.281 81.314,111.272 81.205,116.716 81.203 C 125.966 81.199,129.859 78.715,130.547 72.378 C 130.990 68.302,133.589 59.315,134.755 57.832 C 134.941 57.594,135.462 56.410,135.912 55.200 C 136.790 52.842,139.812 47.165,140.377 46.813 C 140.564 46.696,141.167 45.755,141.715 44.723 C 142.710 42.850,145.571 39.310,148.600 36.204 C 149.480 35.302,150.993 33.627,151.961 32.482 C 152.930 31.337,153.901 30.400,154.120 30.400 C 154.620 30.400,157.966 27.700,158.896 26.547 C 159.280 26.071,161.260 24.864,163.296 23.863 C 165.333 22.862,167.659 21.428,168.464 20.675 C 169.269 19.923,170.349 19.212,170.864 19.095 C 172.691 18.682,181.381 15.522,183.177 14.617 C 188.082 12.147,201.424 11.175,213.600 12.400 M184.884 52.962 C 180.798 57.125,181.135 53.891,181.279 87.600 C 181.411 118.507,181.296 116.976,183.597 118.398 C 184.465 118.935,185.820 120.144,186.606 121.085 C 187.942 122.683,188.093 122.758,188.918 122.232 C 189.403 121.922,191.240 121.184,193.000 120.593 C 194.760 120.001,196.599 119.266,197.086 118.959 C 197.573 118.651,198.241 118.400,198.570 118.400 C 198.900 118.400,200.205 117.556,201.471 116.525 C 202.738 115.493,205.040 114.121,206.587 113.475 C 208.134 112.829,210.660 111.385,212.200 110.267 C 213.740 109.149,215.900 107.933,217.000 107.565 C 218.100 107.196,220.609 105.794,222.575 104.447 C 224.541 103.101,226.395 102.000,226.695 102.000 C 227.532 102.000,229.242 101.022,232.536 98.659 C 234.190 97.472,235.976 96.392,236.505 96.260 C 239.433 95.525,246.451 89.378,247.015 87.056 C 247.345 85.693,244.465 80.648,242.587 79.300 C 239.890 77.364,233.981 73.756,229.470 71.292 C 223.475 68.016,219.790 65.884,219.593 65.577 C 219.479 65.399,218.303 64.742,216.980 64.116 C 215.656 63.490,214.040 62.609,213.387 62.158 C 211.425 60.803,206.079 58.000,205.457 58.000 C 205.137 58.000,204.103 57.354,203.158 56.565 C 201.164 54.899,196.795 52.632,194.868 52.262 C 194.136 52.122,192.966 51.747,192.268 51.429 C 191.571 51.110,190.348 50.587,189.551 50.267 L 188.102 49.683 184.884 52.962 M204.137 73.200 C 205.116 73.860,206.171 74.400,206.483 74.400 C 206.794 74.400,207.426 74.751,207.887 75.181 C 208.693 75.932,213.527 78.730,215.600 79.645 C 217.954 80.684,218.596 81.209,219.534 82.857 C 221.653 86.580,221.627 86.498,220.988 87.488 C 220.665 87.990,220.115 88.841,219.767 89.380 C 219.419 89.919,218.545 90.554,217.825 90.792 C 217.105 91.029,215.815 91.822,214.958 92.554 C 213.130 94.115,209.767 96.024,207.132 96.995 C 206.105 97.374,204.620 98.274,203.832 98.996 C 198.090 104.256,195.932 99.746,196.533 83.738 C 196.848 75.367,197.133 73.920,198.811 72.189 C 200.286 70.667,200.424 70.693,204.137 73.200 M322.400 183.490 C 314.607 183.758,309.678 185.212,308.387 187.623 C 308.143 188.081,308.000 210.044,308.000 247.322 C 308.000 311.420,308.070 309.148,305.816 317.802 C 304.643 322.305,298.009 330.808,293.803 333.200 C 288.510 336.210,286.907 337.218,286.228 337.969 C 285.814 338.426,285.189 338.803,284.838 338.807 C 284.115 338.815,281.862 340.040,276.489 343.345 C 274.448 344.601,272.378 345.784,271.889 345.973 C 271.021 346.310,266.395 349.239,264.400 350.715 C 263.850 351.121,262.275 352.130,260.900 352.956 C 259.525 353.782,258.400 354.604,258.400 354.782 C 258.400 354.961,258.085 355.214,257.700 355.344 C 257.315 355.475,255.650 356.576,254.000 357.791 C 252.350 359.006,250.640 360.197,250.200 360.438 C 249.760 360.679,248.660 361.907,247.756 363.167 C 246.659 364.696,245.547 365.725,244.415 366.257 L 242.719 367.055 243.660 367.661 C 246.879 369.737,249.632 369.695,261.600 367.391 C 263.470 367.031,266.536 366.580,268.413 366.389 C 270.291 366.198,272.721 365.842,273.813 365.597 C 278.976 364.439,294.806 362.434,299.000 362.406 C 300.760 362.394,304.540 362.120,307.400 361.796 C 310.260 361.473,315.300 361.205,318.600 361.201 C 330.392 361.187,335.923 359.748,339.588 355.738 C 340.694 354.526,341.600 353.307,341.600 353.028 C 341.600 352.749,342.143 351.770,342.807 350.854 C 345.311 347.397,345.200 351.356,345.200 265.728 L 345.200 187.909 344.319 186.342 C 343.756 185.340,343.071 184.699,342.419 184.565 C 341.859 184.449,340.660 184.169,339.755 183.941 C 338.209 183.552,328.171 183.291,322.400 183.490 M39.600 206.266 C 37.338 206.623,36.831 206.852,35.350 208.186 C 34.497 208.953,33.656 209.586,33.480 209.591 C 31.997 209.634,32.000 209.465,32.005 292.687 C 32.010 382.324,31.738 374.369,35.028 381.124 C 37.954 387.136,38.731 387.790,43.944 388.636 C 48.397 389.359,112.504 389.442,130.844 388.748 C 139.980 388.403,144.296 388.400,147.844 388.736 C 154.340 389.352,156.066 388.788,156.969 385.752 C 157.174 385.060,157.016 384.861,156.110 384.667 C 155.500 384.537,153.740 384.152,152.200 383.813 C 150.660 383.474,147.330 383.030,144.800 382.827 C 142.270 382.624,138.850 382.187,137.200 381.857 C 135.550 381.526,132.670 380.976,130.800 380.633 C 128.930 380.291,125.420 379.640,123.000 379.186 C 115.493 377.780,112.971 377.550,100.600 377.144 C 69.979 376.140,72.571 376.559,60.431 370.659 C 58.027 369.491,54.357 365.796,53.204 363.383 C 52.683 362.292,51.682 360.680,50.981 359.800 C 49.402 357.819,48.960 356.975,48.335 354.752 C 47.958 353.409,47.791 336.249,47.621 281.200 C 47.381 203.226,47.510 207.673,45.444 206.306 C 44.991 206.006,41.406 205.982,39.600 206.266 M365.600 206.385 C 363.093 206.941,361.415 207.907,360.600 209.267 C 359.811 210.582,359.797 211.520,359.571 280.000 C 359.302 361.427,359.532 357.048,355.279 361.912 C 354.245 363.094,353.130 364.468,352.800 364.965 C 351.505 366.918,346.071 371.132,342.527 372.931 C 336.067 376.211,335.959 376.224,306.800 377.152 C 292.267 377.614,289.230 377.978,272.483 381.257 C 269.118 381.915,264.258 382.621,261.683 382.825 C 259.107 383.029,255.740 383.474,254.200 383.813 C 252.660 384.152,250.886 384.540,250.258 384.673 C 249.174 384.904,249.129 384.999,249.374 386.526 C 249.847 389.487,251.403 389.879,259.036 388.960 C 263.885 388.375,265.906 388.351,275.971 388.753 C 294.614 389.498,359.684 389.358,363.969 388.564 C 367.613 387.888,368.762 387.197,369.894 385.000 C 370.235 384.340,371.377 382.762,372.433 381.493 C 375.155 378.223,375.000 383.595,375.000 292.569 C 375.000 198.129,375.352 207.070,371.615 206.591 C 367.906 206.114,366.967 206.082,365.600 206.385 M103.911 236.700 C 102.591 238.208,101.249 241.677,101.614 242.637 C 102.046 243.772,103.847 246.658,104.297 246.936 C 104.799 247.247,110.411 246.089,111.075 245.538 C 114.613 242.601,112.976 238.054,107.892 236.699 C 104.667 235.840,104.664 235.840,103.911 236.700 M232.873 389.421 C 229.335 390.067,227.204 390.725,226.400 391.419 C 225.513 392.184,222.059 393.447,220.000 393.759 C 217.579 394.126,208.663 396.774,208.396 397.206 C 207.458 398.724,201.207 398.848,198.336 397.405 C 196.237 396.351,189.285 394.221,186.600 393.809 C 184.182 393.439,180.843 392.299,180.073 391.582 C 177.552 389.233,165.123 388.484,161.502 390.462 C 160.697 390.902,161.223 391.101,166.400 392.309 C 173.289 393.917,174.030 394.232,174.751 395.857 C 175.347 397.203,176.730 398.013,180.600 399.285 C 183.312 400.176,185.490 401.659,185.980 402.948 C 186.162 403.426,186.826 404.060,187.455 404.357 C 190.072 405.592,191.137 406.238,193.800 408.203 C 198.371 411.578,203.943 412.666,208.292 411.034 C 209.121 410.723,210.250 410.366,210.800 410.240 C 211.350 410.115,212.576 409.286,213.525 408.399 C 214.473 407.512,216.301 406.256,217.587 405.607 C 218.968 404.910,220.515 403.706,221.367 402.666 C 222.762 400.963,223.871 400.276,228.281 398.377 C 229.525 397.841,230.855 396.867,231.589 395.954 C 232.383 394.965,233.341 394.291,234.308 394.039 C 239.241 392.757,244.025 391.627,245.500 391.396 C 249.120 390.829,247.220 389.822,241.431 389.240 C 236.377 388.731,236.687 388.725,232.873 389.421 " stroke="none" fill="#fcfbfb" fill-rule="evenodd"></path></g></svg>